<mxfile host="Electron" modified="2024-03-21T12:20:21.088Z" agent="Mozilla/5.0 (Windows NT 10.0; Win64; x64) AppleWebKit/537.36 (KHTML, like Gecko) draw.io/24.0.4 Chrome/120.0.6099.109 Electron/28.1.0 Safari/537.36" etag="Gn06qVU0jOf83fAz2bAA" version="24.0.4" type="device">
  <diagram id="6a731a19-8d31-9384-78a2-239565b7b9f0" name="Page-1">
    <mxGraphModel dx="1185" dy="683" grid="1" gridSize="10" guides="1" tooltips="1" connect="1" arrows="1" fold="1" page="1" pageScale="1" pageWidth="1169" pageHeight="827" background="#003469" math="0" shadow="0">
      <root>
        <mxCell id="0" />
        <mxCell id="1" parent="0" />
        <mxCell id="ZuG04GfCBI8IsP-wyvSk-2113" value="" style="rounded=1;whiteSpace=wrap;html=1;fillColor=#dae8fc;strokeColor=#6c8ebf;" vertex="1" parent="1">
          <mxGeometry x="128.75" y="403.00000000000006" width="100" height="55" as="geometry" />
        </mxCell>
        <mxCell id="ZuG04GfCBI8IsP-wyvSk-2088" value="" style="dashed=0;outlineConnect=0;html=1;align=center;labelPosition=center;verticalLabelPosition=bottom;verticalAlign=top;shape=mxgraph.weblogos.github" vertex="1" parent="1">
          <mxGeometry x="580.13" y="379.51000000000005" width="90" height="94.14" as="geometry" />
        </mxCell>
        <mxCell id="ZuG04GfCBI8IsP-wyvSk-2089" value="&lt;font style=&quot;font-size: 24px;&quot;&gt;&lt;b&gt;GitHub Project&lt;br&gt;&lt;/b&gt;&lt;/font&gt;" style="text;strokeColor=none;align=center;fillColor=none;html=1;verticalAlign=middle;whiteSpace=wrap;rounded=0;" vertex="1" parent="1">
          <mxGeometry x="595.1299999999998" y="335" width="60" height="30" as="geometry" />
        </mxCell>
        <mxCell id="ZuG04GfCBI8IsP-wyvSk-2132" style="edgeStyle=orthogonalEdgeStyle;rounded=0;orthogonalLoop=1;jettySize=auto;html=1;entryX=0.5;entryY=0;entryDx=0;entryDy=0;strokeWidth=2;" edge="1" parent="1" source="ZuG04GfCBI8IsP-wyvSk-2094" target="ZuG04GfCBI8IsP-wyvSk-2102">
          <mxGeometry relative="1" as="geometry" />
        </mxCell>
        <mxCell id="ZuG04GfCBI8IsP-wyvSk-2133" value="Reads" style="edgeLabel;html=1;align=center;verticalAlign=middle;resizable=0;points=[];" vertex="1" connectable="0" parent="ZuG04GfCBI8IsP-wyvSk-2132">
          <mxGeometry x="0.0058" y="-3" relative="1" as="geometry">
            <mxPoint as="offset" />
          </mxGeometry>
        </mxCell>
        <mxCell id="ZuG04GfCBI8IsP-wyvSk-2142" style="edgeStyle=orthogonalEdgeStyle;rounded=0;orthogonalLoop=1;jettySize=auto;html=1;entryX=0;entryY=0.5;entryDx=0;entryDy=0;strokeWidth=2;" edge="1" parent="1" source="ZuG04GfCBI8IsP-wyvSk-2094" target="ZuG04GfCBI8IsP-wyvSk-2129">
          <mxGeometry relative="1" as="geometry" />
        </mxCell>
        <mxCell id="ZuG04GfCBI8IsP-wyvSk-2143" value="Produces" style="edgeLabel;html=1;align=center;verticalAlign=middle;resizable=0;points=[];" vertex="1" connectable="0" parent="ZuG04GfCBI8IsP-wyvSk-2142">
          <mxGeometry x="0.1034" y="-3" relative="1" as="geometry">
            <mxPoint x="-15" y="-3" as="offset" />
          </mxGeometry>
        </mxCell>
        <mxCell id="ZuG04GfCBI8IsP-wyvSk-2094" value="" style="rounded=1;whiteSpace=wrap;html=1;" vertex="1" parent="1">
          <mxGeometry x="239.99999999999994" y="70" width="110" height="110" as="geometry" />
        </mxCell>
        <mxCell id="ZuG04GfCBI8IsP-wyvSk-2134" style="edgeStyle=orthogonalEdgeStyle;rounded=0;orthogonalLoop=1;jettySize=auto;html=1;strokeWidth=2;exitX=0.5;exitY=1;exitDx=0;exitDy=0;" edge="1" parent="1" source="ZuG04GfCBI8IsP-wyvSk-2094" target="ZuG04GfCBI8IsP-wyvSk-2100">
          <mxGeometry relative="1" as="geometry">
            <mxPoint x="240" y="140" as="sourcePoint" />
            <Array as="points">
              <mxPoint x="295" y="220" />
              <mxPoint x="295" y="220" />
            </Array>
          </mxGeometry>
        </mxCell>
        <mxCell id="ZuG04GfCBI8IsP-wyvSk-2135" value="Executes" style="edgeLabel;html=1;align=center;verticalAlign=middle;resizable=0;points=[];" vertex="1" connectable="0" parent="ZuG04GfCBI8IsP-wyvSk-2134">
          <mxGeometry x="0.2021" y="2" relative="1" as="geometry">
            <mxPoint x="-2" y="-10" as="offset" />
          </mxGeometry>
        </mxCell>
        <mxCell id="ZuG04GfCBI8IsP-wyvSk-2090" value="" style="shape=image;verticalLabelPosition=bottom;labelBackgroundColor=default;verticalAlign=top;aspect=fixed;imageAspect=0;image=data:image/png,iVBORw0KGgoAAAANSUhEUgAAAMgAAADICAIAAAAiOjnJAAAhTklEQVR4nOydeVgUR/rH52C44wFBQW4hGoMICoZsAsYzXhgPQLKrxlUUdOMmKsTlMJsoGg8U8VrvjSIKLniBigdqFDmWQ0RQOQS5TwFhBpiDmfk9j/Nblp3uabqrq3tmYD5/+ODM21VvVX+nurqOt7SkUilDgwbYsJTtgIaBiUZYGihBIywNlKARlgZK0AhLAyVohKWBEjTC0kAJGmFpoASNsDRQgkZYGihBIyy8dHd3C4VCZXuhNmiE1T8CgeCbb74xNDQ0NjYODAwUiUTK9kgdkA4+JBJJTExMeHh4WVkZHvvg4OC+NRYTE4Pnqtzc3O3bt9+8eZO0v2rJoBMWj8fz8PCQScTIyOj27dvY9jk5OVpaWn2FNW7cuO7ubuyrIiIimEymzD4wMBBqCdSDQSesy5cv91UJi8VKS0vDsF+0aBGymf/b3/6Gccm//vWvXlUxGAw9Pb3Ozk4KiqLSDDph/fnPf5ZTiY2NTVFREapxUlISi4XSDWWz2Tk5OaiXXLlyRa6FYzAYBw8epLhYKsfgEpZEIjExMUEKZfjw4VVVVXLGbW1tw4YNU9A1ZSxcuBCZfmFhoaGhIdLY1tZWIpHQVUqVYCAIq6KiIiQkJCAgIDk5GdsyISFBkVDc3NxaW1v7GoeGhioylj1Dk5KS+tpnZ2cbGxsrss/IyMBwjM/nnzlzxt/fPzw8vKmpiVx9qARqL6zW1tbhw4f33r+goCCRSKTI+A9/+AOGVpydnXs7Q/X19fr6+hjGDAZj6NChbW1tMvv29vbRo0djGIeFhSnySiAQfP31172WqG2h2qH2woqNjZW7hdOnTy8pKUFaFhcXYwuFwWAsWbIkOjo6Kirq008/7ddYZn/48OHo6GhHR0dsSycnJ1T/U1JS7O3t+1pyOBwul0t9zVGL2gtrx44dyLvI4XCuXr0qZ7l//348WqGOgoKCvv5IJJL9+/ez2WykZXp6Or21CB+1H3mvqKhAfigSiZYuXfrDDz+0tbX1fpiUlESva/JERkb2/l1XV+fl5RUYGCgWi5GW+fn59LpGAcpWNllmzpyJUboJEyY0NDSkpaVt2LCh79iSUmCxWKGhocXFxampqUOGDMGwDAgIUHa9koWp7vsKx4wZU1paimHAZrNRWwUlwmKxJBIJhsFnn32WkZFBo0fwUW9hSSQSPT29gbfoQF9fn8fjKb2JJYP8GLGKUFVVdeDAgaqqKhcXlxUrVlhaWqKalZaWDjxVMRiMrq6u+vr6UaNGoX5bWFh4/vz54uJiNze3wMBAbW1t2h3EgbKfxej07Tnp6uoGBga2tLQgzeLi4uipJRaLZWFhgTpqTxGoM5i1tbU+Pj59zfz9/Wm5IYRRRWHx+XzkS7ixsfF3332Xl5fX11JuQQsVmJqaHjlypKGhQZZjWVlZcHAw6hgBXC5cuNBbzJ6enpSUFF9fX+QsJIfDEQqFtN+i/lFFYWGspGMymQsWLCgqKpJIJPv27UNWNFxYLFZ2djbSw8TERKo7QObm5pcvX5bNFGFPGPT09CjjLvWDKgpLKpXq6OhgVKW2traiXhdc9u/fr8jDFStW0OCAhYUFtoGhoSG9dwYvKiosIyMjGm4bNgYGBhhPmevXryvbQYasYaP3zuBFRUfe+50ApgErKysOh6PoW1tbW3rdQQdjYY9yUVFhGRgYKNsFhkAgAP6WNoYOHapsF9BRUWGpQotVWVlZXl6u6NusrCx63UFH02IRQxWEJRaL169fjzozIZVKT548qQyn5NG0WP+Fy+UWFxd3dXVh2NAjLCaTaWlpuXDhwrCwMFdXV6TB3bt3Q0JCenp6+n7Y2Ni4ZMkS1AUInp6egYGBc+fONTMzo9Lx/4LdYnV0dJSWlsr5TxM0vyxkZmbK3vj09fXnz59/6tQp1JW4X375JaWl/vzzz48fP15TU9ObY2Njo7W1NarxRx99dO7cubKyshcvXkRGRpqamqKaLVmypG8RioqKdu3a5ezsTGlBli1bhqy9kpKSiIiIL774QjbYZmFhUVpaSs39VAitwuro6EAdRxg7duyKFSsOHTqUkZHx/Pnz3n1/cDE3N1+7dm1CQkJzczOqe42NjZ999hlY4osXL+5dpizHmzdv/vnPf/r6+vZdQg2RVatWNTQ0pKSk7Nq1a8mSJagjfN7e3hTfW3loFdbLly+pqNl+8fDwSElJEYvF/XqI0W5hsHjxYjzF7+npOX/+/Lhx46gpJRbjx4+HcQMJQKuwOjs76eyVW1lZbd26NT8/n5CTRNstjLZKEWlpaevXr8fY0gMducc0DdDdx5o/fz4N9WhkZHT8+HHgrXz42y0yN6y9vf3vf/87PSN2u3btAvYTDLqFderUKUprcMyYMYcPH+bxeCT9xNNuAbRVSKqrq3/55RdFS69gkZKSQtJPotAtrKamJorqjs1m79mzB6Kr2O0Wzn4VTjo6Ovz9/SlaMcFkMtvb2yF6iwclTEKPHTsWbsWxWKy1a9fijElEiMbGRtQlKz4+PuTbKiSZmZmenp7Q5eXu7g7d1X5RgrCWL18OsdasrKxQl0zBoqOjY+XKlb0r+zgcDtX9lYsXL8JdbRwREUGpw6goQViHDh2CUl+6urpBQUH0RDqoq6t7+PBhWloaPc+UqqoquSXIZEDdF041ShAWlI1NhoaG9HdIaebs2bO6urokK8rS0lIpzithrpD8C7anp2dpaemMGTMgeaSirFy58tGjR/1GhcBm6NChygmaSoVahUIhRsgXkjM2W7ZswTOGPmAQiUSoUQXx8+233ypKXCAQULRkHvKG1aqqKj8/v4cPH4rFYh0dHQMDA/339P4hEAgeP34Mlrient6xY8dWrlwJ0WG1gM/n79y5c8+ePcBtz/Tp05lMZtd/6OzslP0hFAo5HM6qVauOHTuGGrsQHLg63bhxI0zn+mBkZPTs2TO43qoXp0+fpqhuGQxGXFwcXG8h97EqKyvhJijDwsLizp07Tk5OVCSuLvj5+V27do2iGcaCggK4CUIWFupyOZLY2to+ffqUipTVjoULF8bHx1OxXdbT0xNyinAbwMrKSvJvyH2xtbV9+fIlXCfVncePH48YMQJiJXt4eEB3Ev5bYVBQEKwCW1hYKFqUN8i5c+cOrEpmMBjR0dHQPYQfxqi1tXXMmDEtLS3kk3J0dPz4449hOKUSsFgsPT09ExMTc3PzsWPHTpgwgcyihsTExGXLlvF4PJJeWVhYvHr1CjWKOCmgS1UqlW7YsAGylwOUSZMmRUVFdXV1gdXzkSNHyPtw7tw52PdfStWUTl5enloHDaMZAwODFStWyAb/CNVzT08PyY7H2LFjMYayyUDVXCHJweLBydy5cwHm1PvGiCcKdQsfqBJWaWkp3NfDQYKhoaFshB1/VVdWVgJsAJHlVVdXR5EAqBKWRCIBK60GWXDbxsZG/LVdXFwM8DOeMGECdSf8UCWsffv2UVPngwUHBwe5Awew+fXXXwFykTsOCCIwhSUWi4uKii5duhQcHEx1rL3BgI6OTm5uLs7KF4lELi4uRLOwt7ffvn17YmJiVVUV3NYLfByrra3tzp07ZWVllZWVFe+prKwckDGMlYi1tfWdO3dw7hKQBZl++/YtWF6GhoY2NjbW1tayfz/66KOZM2eCj2+B6bGiooKiDeMa5DAxMcHf39q7dy/ErKdNmwYmD/BHYUhICMQCaMDGx8cH533hcrmffPIJxKyBD0sHXN3Q2toK0XsN2MTHx587dw6PpaGhYUxMDMTR6bq6OsArwfSYnJwMy3UNePjggw/wb5z85ptvoGQ6atSot2/fgikEsMWaM2dOYGAgFO814IHL5R49ehSnMaxX8t27d4OvKwTTo+z9dvr06VAKoAEPRkZGeLZfFxUV6enpkc/Oz8+PzD4LUuNYpaWlKnpC0AAlPDy835uCfYAjTlxdXUkOa5EdIL1+/bpGW7QxcuRIPp+PcTt+//138rno6ellZWWRFAaEkXfqduZoQJKamopxL7y9vclnERsbS14VEITV0tKCvX/G2dk5Kirq8XvOnDkz4HcwU8qBAwcU3Yj8/Hzk00NbW3vZsmWxsbHp6en37t3bvn079uKA1atXk5cEtLnCxsZGRVtHkGF9JRLJzz//DLW2BxGrVq1SdBdQI8VdunRJzqypqemjjz5CTZzD4cAKzwTnvfT169eo5y7L4uvJfchkMn/55ZeSkpLY2Ni+n7PZ7G3btmFHxA8KCoJ+1sj8+fPnzJkDfLlYLBYIBC0tLeXl5Xl5eWVlZVC9k6eqqgr189u3b2dmZsp9+Ouvvy5dulTuQxMTk0ePHrm4uNTX18t9JRKJmpub4Zx2AUWe69evR008Pj5e0SWPHj1C2m/atAk7ow8++ABCmf8XPK9a+MnIyACO6Y2HCRMmoOaLDO5qZmaG8Wa3efNm1PRPnz4NpR7IDjfs379/2rRpqHMITCaTy+UqupbL5SIv0dbWLi4uxshR9YUl4+TJk9hHLgJjZ2eHzC4zMxM5KDpv3jwMD8+fP4+avqGh4aJFi06dOlVfX0+mBkCEJZFIEhISPv/8c+wqYLPZGL8YRfEtgoKCMLJWF2HJTmGF7qps+wMyL9SXJ+yIzgkJCf3mtWjRotTUVLABLQLC4vF4ly9fXrVqFf4ztzGGQxQdJjBmzBgMH9RIWBTFHndxcZHL5dmzZ6iW2IcG7Ny5E2eO9vb2GzdufPDgAaGy4xWWRCIBiGv19ddfK0owPDwc9RItLS0MN9RLWAcPHoTuLbJKr1y5osg4PT1dkW8Ay02XL1+Ov+x4J6EvXryYmppK1JXExETU4DtpaWkHDhxAvQT+llzlQcXPADlSgFFjS5cuLS4ulvtQKBRu3rw5NzeXaNYxMTH4NYBXWG/evCHqhwx/f//Nmze/e/dO9l+xWBwZGTllyhRFK7o+/fRTsIxUECqGHpAtjYuLi6JBxJqamqlTp964cUMikcg+aWho8PLyUvSr7hcCYfpxtmxlZWVkDgA3MDBwcXFxdXXFHiNhMpmJiYkYbqjRo5DL5drZ2cF1lc1mV1dXI/Pav38/9oWjRo367LPPHBwcyIRAMjc3b2howFl8Ap3327dvQ44m+L+w2ewTJ05g+6AuwhIIBFBWGcgxf/58RTkqGkqEhbW1dW1tLf4aIDbckJGRQcXp7To6Or6+vpmZmf06oBbCyszMpGKlmpaWFkawzJ6enqSkpK+++gp6vrLZ3qKiIkKVQHgcq7i4mMwzEcm0adNevXqFM3dVFta7d+/i4+OpOxvW09MTjxupqakODg4Q83V3dxcIBERrA2RfYU1Nja+vb3p6Ohl3ORzO/Pnzv//++2nTpuG/asiQIahD9mSwtLQ0NzcHvlwikfD5/JaWloaGBtQJUyiwWKy0tDSck0UCgeDatWtHjx4FeJGXw8vL68SJEyALlIF+nNK2traJEycCuztp0qS8vDyAfKlosdSCn376CaC6kpOTFS1kwIO/vz9ApjLA5wo7Ozu9vLwIOcpms+fNm3fr1i3gTAensGbPng28/Lyzs/Ps2bOTJ08mmmloaCj2alVsSE1CR0dH43dUS0sLYyAYJ4NQWCNGjMD/kq8IiUQSHx9P6KWe5GGipIYPCAUadXBwQD37TwMG48aNS09PHzlyJMl0mEymt7e3hYUF/ktqamrI5AgurIaGBrmVetiQedgPTkaOHHnr1i2Io6xmZmb4jUNCQnrnSwAAEda7d+/CwsLs7OyysrLwX2VqagqQ16DF09Pz+fPnNjY2ENMktDT06tWrTk5OR44c6ezsBMmM6LMzOTkZLM7Mjh07yDyzZQyGPhaLxQoJCaHiUC5fX18AfxwdHfEPNPZCQFi5ubleXl7Ak00nT54k6hySAS8sFxcX6g749Pf3B/NKS0tr3bp1NTU1+PPCJSw+nx8WFkYyIsCFCxdI1Mn/M7CFNXLkSJILgrH561//SsY9bW3tM2fO4MwLl7DAmlA5rly5Qq5apANeWLItNNhbUslAPo6LbIcVnrz6F1ZXVxeURQ3AIbz6MuCFxWAwhg8f/ubNG/J1hSQ4OJi8e2w2G8/UYf+KYbPZ+vr65B2CfmjPQKWtrW3KlCmlpaXQU4ZyC4YOHYqnoenfQltbG7jT1xc+n08+kUFCdXV1QEAA9GTJnzrOZDKPHTuGp7eN6xm3e/fu2NhYksEtNcIixMOHD7du3Qo3TZIxradMmXL//n3k1mp08D+h+Xz+Tz/9BPxueOzYMXI9BOkg6WP15cmTJ+QrrZc1a9aAuaGtrU10hzThAdK8vLxFixYBdOd//vlnonkhGWzCmjlzJlhFNTU1lSGYO3cuUQe0tLTWr19PaARLBuDqhqSkJOzoHUgCAgLA8urLYBMWg8EAWGXU1NTE4XDIZw025i4D8Lnm6elZUVGxevXqq1ev4ryktrYWLC+qcXV1nTRpEn572ZLRurq6wsJCAtuhQNmwYUNhYSGhsKLt7e3k++lhYWEhISEGBgaA14PpUQYyRBEGqEEHiKJqa96Tk5PHjRsH3SU5EhISCHkFZaiivLwcuFrIrsci9DQsLy8n/zNSNebMmVNQUBAZGUlpINb4+HjqElcE/ggdqIALq6OjY8+ePfjtRSJRQ0MDcHYqC5vN3rRp061bt6g78OzmzZs9PT347QkZK8LT07Orqwv4ckBh5ebmOjk5vXjxgtBVVEe7UyIzZszYsWMHRYnzeDz8fVmZPflMHz16tHDhQuCzxECE9fLly7lz51ZUVBC9sKSkBCA7dSEwMBDn+W8AYISUQQJ+AM7/kpKS4uzsDLZGmbCwrl275ubm1tzcDJDZwBaWlpbW+fPnyQRHwODu3bv4e6j5+fmw8q2trZ01a1ZBQQHRC4kJ6/Llyz4+PsAtbWFhIdiF6sLkyZOnTp1KRcqtra3I2LWKePDgAcSsi4qKXF1dCe9Pxv8CuW/fPpLnlY0YMYLMG6wKDjcgOX78OHQPZXh7e+NxIC0tjYrXCBMTE0IHSOMVVk5ODpRT8IBHcmWovrCqq6uhe9hLVFQUdu6tra3UbVphMpn4j7bD+yhMTk6GspqH0NuNOmJhYUFdOO6NGzdu2bJF0baZ2tpaHx8f6sZ0ZDPFOI3xCovQpAcGFy5cgJKOKgNlJbciIiIirKysjh492neQqbOzMyIiws7O7v79+9RlzWAw8AexIhBtJigo6B//+Ed3dzcJxxiyGKnAnYCYmBgoo399mThxIvZZQL2wWKw1a9b0u5+7urraxsamNzojRWhpadnY2AwdOpTL5ZaXl0OvFjlMTU1DQ0MJbMcg1IHo6uo6ePAg3F2U6gXOACyjR49WtqfQcHNzi4uLIxoiC3ASOiMjIywsDNbzUY3AKawlS5Yo21NSaGlpeXh47N27F/hli+xZOoWFhatXr4Z4bLqKg1NY27ZtU7angBgZGQUHB1dVVZEUBpxDmqCvzlZZcApLfV9+kcfQgQEnCvLy5cuhpDNgGD9+vLJdAATg/BFU4AirqamJ0kjdaoetrS1Y6BTlwmaz29raoCQFQQ11dXXz5s2j+u1avWCz2ep4QrFYLCYZ36EXCMLasGEDlAVAA4x58+Yp2wUQHjx4EBISAiEhkn20iIgICE6oD/gDCcNaFKUUrl+/TlIYpISVkpJC3Xpc1YRQhGoa9llQxOjRoxsbG8loA/xRKBQK161bR/VMglozZcoUZbsASHl5+YIFC8jcXEBhCQQCb2/v169fA2c8GKBo0R89ZGVl7d69G/x6sIbuzJkzMAuhPhB6FLa1tal1V0FbWxv1FDs8ALZY//73v2GXYgAybNiwjRs3KtsLcIRC4a1bt8CuBRSWpaUl2IWDjW3btsE9LI1mgKcQAIUVEBCwcOFCKJEnBjb6+vpwhoVoR1dX98cff/z888/BLgc5Vq4XHo9XUFCQn5//7Nmz/Pz858+fk9k7qxb4+/ufOHGC0CU9PT1z585NSUmhzCk4GBsbO73H2dnZycnJwcGBVAcRrGuGikQiqa2tTUtLu3DhAqFjW9QIsJPWOjs7//SnPynbdxS++uqrhISE7Ozs5uZmiEqAtmwGCaGdu2rEunXrgOvk6tWrqtY3zcrKgnrb/wupRyE2VlZWAHuhvLy8cK5Apx82m+3j40PmtCk+n//06dOXL1+2trYKBAJYjt29e/fJkydErxo/fjzAFme8UCRY4PEIBwcHkUhEkVcDkvz8fOA1SyUlJRR5RckiKrFY/P3334Nd++LFCy8vL02IZZxwudzVq1cDr1k6ffo0bI/+AxVqJf8GFBYWRoVjAwyhUEjy0PwPP/xQKBRS4RslEw6nTp0imcLevXutra3Xrl2L+i2fz6+srCwvL3/zno6ODnNz89mzZ7u5uZHMV7ncvn37999/f/funbGxsa2t7ej3WFpaKopgExgY+OjRIzI5vn37ds+ePZRsWYAu1draWlgDp9euXZOlyePxHj9+HBUVtWLFCozxlS1btkAvDj1wuVxFK061tbUnT54cEBBw8uTJnJyc7u5u2SWEwilioKOj09LSAr1E8IWF9+QCHAwfPtzd3d3c3Bz/JTt37oReIhr44x//iLOAHA7H1tYW7unakZGR0EsEWVgUvr7iprKyEm6hqOb58+fKrbFx48ZBLxTkt8Lz58/DTRCAx48fK9sFYsTExCjXgVevXiUmJsJNE7KwioqK4CYIABUHslGKKqxBSktLg5sgZGFRFxoKP2/evFG2CwSQSCTPnj1Trg9aWloLFiyAnCbc5AIDAysqKn777TeRSGRgYDB8+PAhQ4YMe8/Q93R2dpJ5XAYEBKxZs8bCwqKiouLw4cMXL15E2pSXl5MrBK00NDS0t7cjP9fX1//hhx98fX1NTU0LCgqioqJu3rwJnMuaNWuYTGb7e969R/Z3d3e3rq5uRESEu7s7uXIggN5rk0qlIpEI43R/Pz8/AD/t7Oyys7Plknrw4AHyndHMzIyKQlFEamoqsrCffPJJYWGhnOXFixcBxnFYLNaBAwcU5S4SicRiMRXlomquEIPGxkYAYd2+fRs1tbi4OKRxR0cH7cUCJDo6Ws75Dz74QNHWq6NHjxKtty+//JL2MkmpmivEBmBIwsXFZdasWahfLV682MrKSu5D/KEylQ7ywe3r6ztixAhU44CAAPzBGmUUFhaKxWISDgKiBGFlZ2cTvWTBggWKJvC1tbWR5zvm5uaCekc3SGFhTEyx2WwXFxdC6be0tCjlZ6YewsI+NQ95lt/Tp0+J+6UckO+w2B0pHR0dollcu3aNuF9kUQ9h5eTkYHyLbJ/UusXCHi4BeOe9fv06cb9IQ3OfDuw4HV1dXUXnMubn5yMDVbLZ7K6uLpqLBkBHRwfyET9+/HhFS1lyc3PBJvjr6upoLhrdLRbYr4fP5wcFBaF+tWnTJuTqarFYXFlZCeQgreTn5yPX6BUWFq5fvx5p3Nzc7OnpCXaYKMBTgiw0C/mLL74AdnXGjBn37t2TLVzu7u6+ceMGRj936dKl6enpFA3SkKenp+fGjRsYcRm9vb0zMzNlTVd7e/ulS5ccHR2Bq27r1q00F5BWYbW3t5OPr8zhcMzNzXE+Edzd3e/duyeRSOgsJjYSiSQuLg7nqIGBgQHGQj/8zJ49m+Zi0iqs4uJi7PJbWlqS+V0q4uOPP966dWtqaqoSG7DOzs47d+589913hJaX4YHFYn355Zcffvghho2TkxPN5aVVWCKRCLmRlclkfvHFFxEREbIdI0Kh8Ntvv4Vb9b2YmZlt27atoqKCzlLn5uZu2LBh2LBhFBVKdiSYWCzOzs4OCwtDjbbg5+dHZ5Gp3VeISmlpaWhoaElJib29/eT/MGTIEDmzmTNnUnrekL29/dSpU11dXZ2cnBwdHbHHyYjC4/Hy8vJycnKys7OfPHlC6UFzq1evRoaUqq+vz8nJycrKysnJaWhocHV1DQ8Pp+64OVToFhZOqBZWX3R0dCZOnPiH90yaNMnW1pboNj0+n//69evs7OzMzMyMjAw6l9ECxJKgBxUNC0ZncBGBQJD5ngMHDsgWJ40aNcrMzGzYf9B+j+x1QSAQ9PT0dHd3yxaftLa21tfXNzU1KWU+jsFgvHv3Tin59otGWPL09PRUvUdZDhACdS2XKqCix0koOkRUgxwq22KpqLAGfJwtWGhaLGJohIUTTYtFDOxHoZ6eHhXjqCpIv8VU2RZLCUuT+wUj1MzHH3+8e/fu2tpaqVR648YNMqGqVJxZs2bJoqK9fv06ODjYxMREkSVFUT1IoorCEolEyKlACwuLc+fOye3R2L59O/W3WDkkJCT0LalQKAwPD0eu8tPV1cXYt6JEVFFYUqnU39+/t+48PDyio6O5XC7SDPr+XdUBuSVJKpW2tLRERkb2HtGjpaV1+PBhWm4IYVR05F0ikcTHxxcUFCxYsABjbUxVVZW1tTW9rtFEc3MzxrxyUlJSWlqap6cn/P2AkFBRYeFEKpUOGTJk4J2WaGxs/PbtW2V7QQoVfSvECZPJ7LfFUsFTDvpdXzVhwgS6fKEK9RYWg8GwsbHB+NbPz6+5ubmkpOTMmTOGhoY0+oWCkZFRbGxsfX19YWGhom2SMpydnWn0ixqU3ckjy1/+8hfUcunq6l64cKGv5aJFi2iv3f8hODi4rz+hoaGKLM+ePUt7RUJG7YW1d+9e5I1xdXVFhsanMEIwDjgcDjIiXFJSkp2dHdL42bNnNFYhJai9sK5evSp3V9asWYO6yL2hoaHfFfdhYWE8Hq+oqGjx4sV45BIWFlZWVsblcmfOnIltOWXKFFT/GxsbP/30076Wurq6AyDSvdoLi8vlTps2TXZLRo0aFR0djTFgiC2XtWvX8vl8mWVbWxsyJIQcjo6OPB5PZt/V1YXdbdq7d68ir0Qi0fbt27W1tWWWP/74IwX1RDdqLywZN2/ePHXq1Nu3b7HNMKJI+vj4yBkfOXIEQyhsNvvVq1d97VtaWjCOypEzRlJdXX3ixIm0tDTQOlAtBoiw8GNvb4+86x4eHkhR8ng8jNd+1NOaqqqqUE+ud3Nzo6t8qsKgExbyLF1nZ2eBQIBq/OrVK9SY8hwOp6amBvWSgoIC5IxeXFwcxcVSOQadsB48eND3lltbWxcVFWHYo+52P336NMYl6enpfRcjmJqa9nbdBg+DTlhSqXT58uWyW25ubt5vtIyamprebrUMRe93fUlKSup9Az106BA839UG9Z4rBCY1NbWpqcnd3X3kyJH9Gv/222+yDZ+ySaT79+/3vodiUF5enpeXN3r06IkTJ0LyWq1QtrLVg23btrHZbCMjo0uXLinbF/VgkLZYAAiFQhaLRer87cGERlgaKEHtVzdoUE00wtJACRphaaAEjbA0UIJGWBooQSMsDZSgEZYGStAISwMlaISlgRI0wtJACf8XAAD//7Wb41LuB9kIAAAAAElFTkSuQmCC;" vertex="1" parent="1">
          <mxGeometry x="254.99999999999994" y="85" width="80" height="80" as="geometry" />
        </mxCell>
        <mxCell id="ZuG04GfCBI8IsP-wyvSk-2145" style="edgeStyle=orthogonalEdgeStyle;rounded=0;orthogonalLoop=1;jettySize=auto;html=1;entryX=0.5;entryY=0;entryDx=0;entryDy=0;strokeWidth=2;" edge="1" parent="1" source="ZuG04GfCBI8IsP-wyvSk-2099" target="ZuG04GfCBI8IsP-wyvSk-2114">
          <mxGeometry relative="1" as="geometry" />
        </mxCell>
        <mxCell id="ZuG04GfCBI8IsP-wyvSk-2146" value="Depends on" style="edgeLabel;html=1;align=center;verticalAlign=middle;resizable=0;points=[];" vertex="1" connectable="0" parent="ZuG04GfCBI8IsP-wyvSk-2145">
          <mxGeometry x="0.4689" y="1" relative="1" as="geometry">
            <mxPoint as="offset" />
          </mxGeometry>
        </mxCell>
        <mxCell id="ZuG04GfCBI8IsP-wyvSk-2147" style="edgeStyle=orthogonalEdgeStyle;rounded=0;orthogonalLoop=1;jettySize=auto;html=1;entryX=0.5;entryY=0;entryDx=0;entryDy=0;exitX=1;exitY=0.5;exitDx=0;exitDy=0;exitPerimeter=0;strokeWidth=2;" edge="1" parent="1" source="ZuG04GfCBI8IsP-wyvSk-2099" target="ZuG04GfCBI8IsP-wyvSk-2108">
          <mxGeometry relative="1" as="geometry" />
        </mxCell>
        <mxCell id="ZuG04GfCBI8IsP-wyvSk-2148" value="Calls" style="edgeLabel;html=1;align=center;verticalAlign=middle;resizable=0;points=[];" vertex="1" connectable="0" parent="ZuG04GfCBI8IsP-wyvSk-2147">
          <mxGeometry x="-0.1158" relative="1" as="geometry">
            <mxPoint as="offset" />
          </mxGeometry>
        </mxCell>
        <mxCell id="ZuG04GfCBI8IsP-wyvSk-2099" value="" style="verticalLabelPosition=bottom;html=1;verticalAlign=top;align=center;strokeColor=none;fillColor=#00BEF2;shape=mxgraph.azure.powershell_file;pointerEvents=1;" vertex="1" parent="1">
          <mxGeometry x="257.08000000000004" y="255" width="80" height="80" as="geometry" />
        </mxCell>
        <mxCell id="ZuG04GfCBI8IsP-wyvSk-2100" value="get_project_insights.ps1" style="text;strokeColor=none;align=center;fillColor=none;html=1;verticalAlign=middle;whiteSpace=wrap;rounded=0;" vertex="1" parent="1">
          <mxGeometry x="264.58000000000004" y="230" width="65" height="30" as="geometry" />
        </mxCell>
        <mxCell id="ZuG04GfCBI8IsP-wyvSk-2101" value="" style="verticalLabelPosition=bottom;html=1;verticalAlign=top;align=center;strokeColor=none;fillColor=#00BEF2;shape=mxgraph.azure.cloud_services_configuration_file;pointerEvents=1;" vertex="1" parent="1">
          <mxGeometry x="19.999999999999943" y="226.9999999999999" width="71" height="80" as="geometry" />
        </mxCell>
        <mxCell id="ZuG04GfCBI8IsP-wyvSk-2102" value="projected.csv" style="text;strokeColor=none;align=center;fillColor=none;html=1;verticalAlign=middle;whiteSpace=wrap;rounded=0;" vertex="1" parent="1">
          <mxGeometry x="22.999999999999943" y="199.9999999999999" width="65" height="30" as="geometry" />
        </mxCell>
        <mxCell id="ZuG04GfCBI8IsP-wyvSk-2108" value="&lt;font style=&quot;font-size: 24px;&quot;&gt;&lt;b&gt;GitHub GraphQL Api&lt;br&gt;&lt;/b&gt;&lt;/font&gt;" style="text;strokeColor=none;align=center;fillColor=none;html=1;verticalAlign=middle;whiteSpace=wrap;rounded=0;" vertex="1" parent="1">
          <mxGeometry x="318.5" y="320" width="171.5" height="56.93" as="geometry" />
        </mxCell>
        <mxCell id="ZuG04GfCBI8IsP-wyvSk-2109" value="" style="dashed=0;outlineConnect=0;html=1;align=center;labelPosition=center;verticalLabelPosition=bottom;verticalAlign=top;shape=mxgraph.weblogos.github" vertex="1" parent="1">
          <mxGeometry x="374.25" y="397.36" width="60" height="60" as="geometry" />
        </mxCell>
        <mxCell id="ZuG04GfCBI8IsP-wyvSk-2140" style="edgeStyle=orthogonalEdgeStyle;rounded=0;orthogonalLoop=1;jettySize=auto;html=1;strokeWidth=2;" edge="1" parent="1" source="ZuG04GfCBI8IsP-wyvSk-2107" target="ZuG04GfCBI8IsP-wyvSk-2088">
          <mxGeometry relative="1" as="geometry" />
        </mxCell>
        <mxCell id="ZuG04GfCBI8IsP-wyvSk-2141" value="Provides&amp;nbsp;&lt;div&gt;automation for&lt;/div&gt;" style="edgeLabel;html=1;align=center;verticalAlign=middle;resizable=0;points=[];" vertex="1" connectable="0" parent="ZuG04GfCBI8IsP-wyvSk-2140">
          <mxGeometry x="-0.4308" y="-3" relative="1" as="geometry">
            <mxPoint x="20" y="-2" as="offset" />
          </mxGeometry>
        </mxCell>
        <mxCell id="ZuG04GfCBI8IsP-wyvSk-2107" value="" style="shape=image;verticalLabelPosition=bottom;labelBackgroundColor=default;verticalAlign=top;aspect=fixed;imageAspect=0;image=data:image/png,iVBORw0KGgoAAAANSUhEUgAABLAAAASwCAYAAADrIbPPAAAABmJLR0QA/wD/AP+gvaeTAAAgAElEQVR4nOzde3zcdZ3v8ffnN0l6Q6RcSjNJsUWuRq7JpBRQi+Kuol13aTIrbGWPLitHXGlRLioI5SoKSou6iLq6y0U4kwR3BfGyCHgBbCahCJS7FkhmUu6obWmTzO9z/gAVkUvSZvKd38zr+Y8PoZ15+bDTzLznd5EAAAAAAAAAAAAAAAAAAAAAAAAAAAAAAAAAAAAAAAAAAAAAAAAAAAAAAAAAAAAAAAAAAAAAAAAAAAAAAAAAAAAAAAAAAAAAAAAAAAAAAAAAAAAAAMBEstABAAAASbJ24Xem1m2esYPiaAeT7WCxUm7xTEmK5PVybSNJMq2PZSOSZB4965FKLn9aUfz06JQNT8+75cObAv7PAAAASBQGLAAAgJcYWJBrspL2tDiaa+ZzY7O5Jp8naY5cO0qaMUFPtUGmpyQNuGxt5P6Iuz3iKVsbDw8/sMvqo4oT9DwAAACJx4AFAABqknfmUoVHtE9k1uaufcx9HzfbV9IOodte9LSkX7vsbrP4blddX9ObRu+xrmwpdBgAAMBkY8ACAAA14YmW3Daj29jB7jpY7odINl/SG0J3jdMfJP1Krlslv63+ed0+a012fegoAACAcmPAAgAAVevxTM+uJZUWufR+yd4maUropgk2KvkqmV1n5jc2ruq8w2QeOgoAAGCiMWABAICq4Z25VOFRvUOyrLneL6kpdNMkGzTX9XEqyjXtUvo5pxsCAIBqwYAFAAASzbU8Wpd5y9tiWVbSYkk7h26qEOsk9ZiiXGP+7l+alsehgwAAALYUAxYAAEikR1p7GutT8THu+qhJu4buqXAFSVfaaHRpevXiR0PHAAAAjBcDFgAASAzX8qiYeev7pPhfJTtCUip0U8KMSrrBTd9s6l1zA0dlAQCApGDAAgAAFe+h3W6YMm37Df9ors9I2it0TzVw6beR/JJo86Zvzb7rmA2hewAAAF4LAxYAAKhYT2Rys0c9+jc3/7+SdgjdU6WeMunSVDTytZ1XHf146BgAAIBXwoAFAAAqTrH1uzt6VH+SpE9Imh66p0ZslPStevnnZ+Wz60LHAAAAvBQDFgAAqBgDC3LbRyU7Qa4TJW0buqdGbZD01bjOvzjn9uwzoWMAAAAkBiwAAFABHtrthikzZq4/0WWfEcNVRTDpd246f+MzM1bu/vARm0P3AACA2saABQAAgipkuhe5fIVJu4ZuwSt6zE2fa+7tvDx0CAAAqF0MWAAAIIiB+d37pmJf6dLC0C0Yk59GsqWN+Y41oUMAAEDtYcACAACTau3C70xt2LjNp+X6jKSG0D0YO5NGXPryxmdnnMlphQAAYDIxYAEAgElTbM0d6hZ9Q+Z7h27BVjA97BZ9tHnV4ptDpwAAgNrAgAUAAMpu3b6Xz4gbpl3kpuPE+49qEUv6usVTT073L9oYOgYAAFQ33kACAICyKrZ3t7n7lZL2DN2Csrjf4uif0v2L7wgdAgAAqhcDFgAAKAuX21Cm6wSXfVFc66rajcp0XvpNfo51ZUuhYwAAQPVhwAIAABPuiUxu9qjsau4wWHNuStWnjpp925FPhA4BAADVhQELAABMqBdPGeyRtEvoFgRRcPPO5t7s7aFDAABA9YhCBwAAgOpRzOQ+6u63ivGqljWZ288L7V2nhg4BAADVgyOwAADAVlvTkmuYOd2+4dI/h25BBTF9+7kN/rGWNdnh0CkAACDZGLAAAMBWefTQq2bWb264lutd4ZX5rRaP/n26/+inQpcAAIDkYsACAABbbF17bl4pjn4g871Dt6CiPRRH9r45qzoeCh0CAACSiQELAABskYG2XHtkdp2kWaFbkAjrzGxRurejL3QIAABIHgYsAAAwbsVMz9td8fWS3hC6BYmywaUPNOc7fxo6BAAAJAt3IQQAAONSzOTe44p/JMYrjN8Mk75fzOTeEzoEAAAkCwMWAAAYs0Kme5HLvidpWugWJNZ0l/1Psa17cegQAACQHAxYAABgTAbbch2SXytpaugWJF6Dm1/DiAUAAMaKa2ABAIDXVZzf9Tce6/uSpoRuQfUwaSQ2Hdnc23l96BYAAFDZGLAAAMBrGmzPvdPcfiCOvEJ5PO9R9L7mVYtvDh0CAAAqFwMWAAB4VYVM18GSfiJpRugWVDHTerfo3c2rFv8qdAoAAKhMDFgAAOAVPdZ6zZtTUep2STuFbkFNeFruhzT1ZR8IHQIAACoPF3EHAAB/pdj63R1TUeqHYrzC5NnBzW5Yd/C1s0KHAACAysOABQAA/sLAgtw0j+r/R9LuoVtQW0zaNR4pXVdsvW566BYAAFBZGLAAAMCfuNxSJbtc0sGhW1CbXGr3aNN3XM6lLgAAwJ8wYAEAgD8pZLpPc1dH6A7UvGyxvfuU0BEAAKBy8M0WAACQJBUyPYdL8Y8kpUK3AJJik78vnc/+KHQIAAAIjwELAACoeEDPm7wu7pO0Y+gW4CWeSZm3ze7Nrg0dAgAAwuIUQgAAatxDu90wxetK14rxCpVn+5Jbbk1LriF0CAAACIsBCwCAGjdt5oYLJDswdAfwKtq2mxGdGzoCAACExSmEAADUsEJb7t0y+7F4T4DKFrv0N835zp+GDgEAAGHwZhUAgBpVbP3ujorq73KpMXQLMAYFt9R+zb1HPh06BAAATD5OIQQAoEa51X2T8QoJ0iQfvSx0BAAACIMBCwCAGlRo6z5KZn8fugMYD5MtHmzv6gzdAQAAJh+nEAIAUGMGFuS2j0btXkk7h24BtsC60SnDb3nTL//p2dAhAABg8nAEFgAANSY1YheL8QrJNbtu05QLQ0cAAIDJxRFYAADUkBfvOviT0B3AVnI3P7y5N3tT6BAAADA5OAILAIAasaYl1yCLvhq6A5gAZm5f62u9rD50CAAAmBwMWAAA1IjtptsJku8RugOYIHulo5nHh44AAACTg1MIAQCoAUMH5HbyOnvIpTeGbgEm0LMWj+yR7j/6qdAhAACgvDgCCwCAGlCqi85lvEIVmulR/fLQEQAAoPw4AgsAgCo3lOluieW/lpQK3QKUwajFtk+6v+P+0CEAAKB8OAILAIAqV1J8lhivUL3qPPIzQ0cAAIDy4ggsAACq2EBrbp8osjvFl1aobrFb6sDm3iN/HToEAACUB29mAQCoYlGk88TPe1S/SF46I3QEAAAoH47AAgCgSg1lejKx4lXi5z1qg1sctaX7F98ROgQAAEw8vpEFAKBKxYo/I8Yr1A7zKD41dAQAACgP3tQCAFCFHs/07Dqq+EFx8XbUllIpLu25S/8HfxM6BAAATCyOwAIAoAqNKv6UGK9Qe1KpKHVC6AgAADDxOAILAIAqM7Agt300ao9JmhG6BQhgo1tql+beI58OHQIAACYOR2ABAFBlUqN2nBivULumRz76r6EjAADAxGLAAgCgirjcJPuX0B1ASC77qGs573MBAKgi/GAHAKCKDM3vfrfL3xy6AwhsXiHTcljoCAAAMHEYsAAAqCYuTp0CJJl0bOgGAAAwcbiIOwAAVaLY+t0dPaoflDQldAtQAYajUW9uXJ19MnQIAADYehyBBQBAlYit4UNivAL+qCGutw+GjgAAABODAQsAgCoRRf6PoRuACpMNHQAAACYGpxACAFAFCpmr50h1j4qf7cBLucU+N92ffSx0CAAA2DocgQUAQDXw1AfFeAW8nMUWLQ4dAQAAth4DFgAA1cCMU6WAV2AW89oAAKAK8E0tAAAJNzi/p9ni+DHxcx14JV4aHW3eZfVRxdAhAABgy3EEFgAACRfF/l4xXgGvxlJ1dX8bOgIAAGwdBiwAABIulr8ndANQ4XiNAACQcAxYAAAkmC+8uS6S3hW6A6hw7/aFN9eFjgAAAFuOAQsAgARbt+HJQ1x6Y+gOoMLNLG54qj10BAAA2HIMWAAAJFis6J2hG4AkcI5UBAAg0RiwAABIND80dAGQBCY/JHQDAADYcgxYAAAklHfmUjJxWhQwJrbAO3Op0BUAAGDLMGABAJBQQ79N7SfXNqE7gITYtvBo3VtDRwAAgC3DgAUAQEJ5KuaUKGAczEu8ZgAASCgGLAAAEsplmdANQJKYOOUWAICkYsACACChLPb9QjcASeLSvqEbAADAlmHAAgAggfpaL6uXaa/QHUDCvMUX3lwXOgIAAIwfAxYAAAm0s2buJakhdAeQMFOGNj2+e+gIAAAwfgxYAAAkUCoyToUCtoCXIl47AAAkEAMWAABJ5LZ36AQgmaK3hC4AAADjx4AFAEACuXzX0A1AErlpXugGAAAwfgxYAAAkkWlu6AQgiUzOgAUAQAIxYAEAkEAmBixgizivHQAAkogBCwCAhFm78DtTXZodugNIqPRDu90wJXQEAAAYHwYsAAASpn7jtF0kWegOIKGiqduunxM6AgAAjA8DFgAACRMptXPoBiDJopTNCt0AAADGhwELAIDEsR1CFwDJxmsIAICkYcACACBhXDEfvoGtwGsIAIDkYcACACBxbMfQBUCSGa8hAAAShwELAICkibV96AQg2TiFEACApGHAAgAgaUwzQicAiebOawgAgIRhwAIAIHmmhA4AkszNeA0BAJAwDFgAACSMuRpCNwBJZuI1BABA0jBgAQCQMG58+Aa2ijtHYAEAkDAMWAAAJA8fvoGt4OaMwAAAJAwDFgAAyZMKHQAkmZnVhW4AAADjw4AFAEDCmGk4dAOQZOa8hgAASBoGLAAAEsbd+PANbIVY2hy6AQAAjA8DFgAAieN8+Aa2grnxGgIAIGEYsAAASBjnFEJgq3AaLgAAycOABQBAwphz+hOwNWKOYgQAIHEYsAAASBx7LnQBkGQmfzZ0AwAAGB8GLAAAEsakp0M3AInmEa8hAAAShgELAICksfip0AlAovEaAgAgcRiwAABIHI4eAbZOitcQAAAJw4AFAEDy8OEb2BruvIYAAEgYBiwAABJmdGSkGLoBSLK61DCvIQAAEsZCBwAAgPFxuRUz3RslTQ3dAiTQ8+l8xwyTeegQAAAwdhyBBQBAwrzwwdseC90BJJLbI4xXAAAkDwMWAABJ5P5I6AQgiSyK14ZuAAAA48eABQBAAnkkPoQDW8DdeO0AAJBADFgAACSQuR4O3QAkkbv9JnQDAAAYPwYsAAASyMzuDt0AJJL5XaETAADA+DFgAQCQQMMl40M4sAXq6lOMvwAAJJCFDgAAAFumkOl6QtJOoTuABHm8Kd85O3QEAAAYP47AAgAguTiSBBgfjlwEACChGLAAAEgoc7szdAOQML8OHQAAALYMAxYAAAkVK749dAOQJGZ+W+gGAACwZRiwAABIqAbTL0M3AElS52L0BQAgoRiwAABIqFn57DpJa0N3AAnx0IuvGQAAkEAMWAAAJJhLt4ZuABKCIxYBAEgwBiwAAJLM+VAOjIk5Yy8AAAnGgAUAQIKl6kZ/HLoBSAIr6X9DNwAAgC3HgAUAQII1/uqoRyTdH7oDqGQuvyfdn30sdAcAANhyDFgAACTfT0IHAJXMLPph6AYAALB1GLAAAEiwQqbncEl/H7oDqGgev2tofu4toTMAAMCWs9ABAABg/AptuT0t0pfd7YjQLUASmDTi0qWbYj/jzf3Z34XuAQAA48OABQBAgjx66FUz6zY3nCrpREkNf/oXLn6qA2PztMnPaZyrr1pXthQ6BgAAjA1vdQEASADX8qjQ3rLEXBdKmhW6B0g+v8PMlqV7O38RugQAALw+BiwAACrc4Pyew6wUr5Bp39AtQBW6PkqNfuLFO3oCAIAKxYAFAECFKmSunuNWf565fyh0C1Dlnpd0Sf1GP3fWmuz60DEAAOCvMWABAFBh1u17+YzS1Gkny3WqpKmhe4AaUnDTZ5t6O64wmYeOAQAAf8aABQBAhXC5Fdq7O8x1kaRdQvcAtcqk3jiKljavWvyr0C0AAOAFDFgAAFSAoUxPJla8QtLBoVsASJLcza5s8PiUWfnsutAxAADUOgYsAAACeuyAq9NRXf2ZJj9WUhS6B8Bf2SDTRRufmfH53R8+YnPoGAAAahUDFgAAAaxpyTXMnK6PuewcSW8I3QPgdZgedumzzb2dXaFTAACoRQxYAABMskKme5HkKyXNC90CYNxuimNfNqc/e3foEAAAagkDFgAAk2Qwk9tfshUmvSN0C4CtMuqyb6dG49MbV2efDB0DAEAtYMACAKDMBhbkto9G7UxJH5eUCt0DYMI8a/KzGmfs9DW75bDR0DEAAFQzBiwAAMqkr/Wy+nQ083iXLZe0XegeAGVzf+T6ZGNf5w9DhwAAUK0YsAAAKINCpudwKV4hqSV0C4BJc30pLi3bpf+DvwkdAgBAtWHAAgBgAg22X7OHeepLkt4fugXA5DNpxKVLp0abP7fDqiW/D90DAEC1YMACAGACrN3/e9s11I9+WtIySVNC9wAIy6QhyZc3ztV/WFe2FLoHAICkY8ACAGAruJZHhfaWJea6UNKs0D0AKk6/xb4s3Z/9ZegQAACSjAELAIAtNJTJvSOWVkq2X+gWABXNTerWaHRyevXiR0PHAACQRAxYAACM0+D8nma5n2/uS8TPUgBjt1HSV+o3+rmz1mTXh44BACBJeNMNAMAYFVuvm+6pTafIdaqkqaF7ACTWoJtOa+rtuMJkHjoGAIAkYMACAOB1uNwK7d0dJl0o15tC9wCoDmZaVSrZ0jn9HatCtwAAUOkYsAAAeA3F+blWj7VSskNCtwCoSrGbXVVvwyfvvOrox0PHAABQqRiwAAB4BY+09jTWRb7c5MdKikL3AKhypvWSvrTxmRmf3/3hIzaHzgEAoNIwYAEA8BJrWnINM6frYy47W9K2oXsA1JyH3HRac29nV+gQAAAqCQMWAAAvKmS6F7l8hUm7hm4BUOv8xpTXnTi778h7QpcAAFAJGLAAADWv2Nq9l0d+saT3hG4BgJcYddm3o3j4tHT/0U+FjgEAICQGLABAzRpYkNs+GrUzJR0vqS50DwC8imdMfnbjXH3VurKl0DEAAITAgAUAqDm+8Oa6oQ1PfsRl50naMXQPAIyJ230W6cR0b8ePQ6cAADDZGLAAADVlMNP1LslXmOytoVsAYAtdX6do6c75xb8NHQIAwGRhwAIA1ISB+d27p2I/z6XO0C0AMAGGJX19arT5czusWvL70DEAAJQbAxYAoKqt2/fyGaWp006W69OSpoTuAYAJVjT5WY35e79lWh6HjgEAoFwYsAAAVcm1PCq0tywx1xcl7Ry6BwDKrE/S0qZ8522hQwAAKAcGLABA1Rloy7VHppWSHRS6BQAmkZvUrdhPSvdnHwsdAwDARGLAAgBUjcH5Pc1yP9/cl4ifcQBq10aZLhyevv6Cebd8eFPoGAAAJgJv7gEAiVdsvW66pzZ9QtLpcm0TugcAKoMNuPnpzb2dl4cuAQBgazFgAQASrZDpXiTpEsnnhm4BgEpk0i2xpZY19x7569AtAABsKQYsAEAiFVt7DvQoXiHpbaFbACABYje7qq4uOmn2bUc+EToGAIDxYsACACRKsfW7O3pU/zlJH5eUCt0DAAnznEwXPLfBL25Zkx0OHQMAwFgxYAEAEqGv9bL6dDTzeJedLWnb0D0AkGz2oFv8yebe7A9ClwAAMBYMWACAilfI9Bwu90tkvnfoFgCoLn5jpGhZY75jTegSAABeCwMWAKBiFdpye1qkL7vbEaFbAKBamTTi0qWbYj/jzf3Z34XuAQDglUShAwAAeLlHD71qZiHTtVJm9zBehWdS76iid0t+R+gWVBnXXYr0EUmPhU6pZS7VSzphamS/KWZyS70zx/UFAQAVhyOwAAAVwxfeXDe04cmPuOxcSTuF7oEKbvpsU2/HFSbzdQdfOyseKd3o0j6hw1AFXHdFJT+8cXX2yWLrddM9tekUuU6VNDV0GrTaFC1L5xf/PHQIAAB/xIAFAKgIg+25d1psF8u0b+gW6HlJl9Rv9HNnrcmuf+m/ePTQq2bWb274iUttgdpQBUx2j+Lhw9L9Rz/10n9eyFw9x63+PHP/UKg2/IXrU+YnzO7Nrg0dAgAAAxYAIKiBA3O7pVJ2vkudoVsgSbo+So1+ovFXRz3yar+gmOn6hkv/OolNqD7XN+U7F73avxyc33OYxaWLJdtvMqPwip6XdElDQ8N5O936gT+EjgEA1C4GLABAEOv2vXxGaeq0kzllqFL4HWa2LN3b+YvX+lVD83NviWP7taS6SQpDlTKz96R7O378av/etTwqtLcsMdeFkmZNYhpeWdFNn/njKcWhYwAAtYcBCwAwqVxuhfbuD5nrC5Jmh+6Bnjb5OY1z9VXrypZe7xcX2rp+LNPf/PG/u3gzgS12b3rGjvvZLYeNvtYvWrv/97ZrqB/9tKQTJTVMThpejcvzMi1t7s3eHroFAFBbeM8JAJg0Q5meTKx4paQFoVtqnUkjLl26KfYz3tyf/d1Yfk+xPfcP7nZtudtQQ9z+ramv42tj+aWD7dfsEcWpL7vpfeXOwutyN7uyweNTZuWz60LHAABqAwMWAKDsBhbkmqwUfd7cl4ifPRXAb4wiLW1clb13rL9jTUuuYbvpdo+k3csYhtrzrFtq9+beI58e628oZHoO1wtD+FvK2IWx2SDTRcPT118w75YPbwodAwCoblHoAABA9RpYkJtWaO86NRq1+168qxjjVVgPxG7va8pn3z2e8UqSZk63T4nxChNvpsWlM8fzG5ryi28cip/Z3+TLTBrT0YMomxlynTllwxvuGWzv4kYcAICy4oMEAKAsCpnuRZKvlDQvdAv0rExfeG6DX9yyJjs83t/8+Pzv7jwa1z8oadsytAGlOPYD5vRn7x7vbxxsv3YH89IZkj4uKTXxaRinm+LITpyzquOu0CEAgOrDgAUAmFCFtu4DZPEKyd4eugWK3eyqurropNm3HfnElj5IMdP1ny7980SGAS9zU1O+811b+pv5e6eixG52VWok/lTj6uyToWMAANWDAQsAMCE4EqKymPvNpVS0bGuPhCi29hzoUZwXlx1Aubl/oKkv+/2teQiO/KwoW3XkJwAAL8eABQDYKn2tl9Wno5nHS3aWS28M3QMbcPPTm3s7L9/aR3K5Fdu7fy7XoRNRBrwWk/1mw7PTW3Z/+IjNW/M4Awty06KSnSDXaZLeMEF52HIPxG6fnNPXcUPoEABAsjFgAQC22It3A1shqSV0Cyb+bmDFTPcSl18xEY8FjInp1Kbezi9OxENx99NK4zdaKj4h/asP3he6BACQTPwwBwCM22D7NXtEcerLbnpf6BbITepW7Cel+7OPTdSDFluvm+7Rpvsk7TJRjwmMwR9G4mjPuf2LhybqAYcyPZlY8UpJCybqMbFlTBpx6dJNsZ/x5v4sd5AEAIwLAxYAYMzW7v+97RrqRz8t6URJDaF7ap3L8yZb1pTvvG2iH7uY6TrHpdMn+nGB12X6dlNv579M5EO63Art3R8y1xckzZ7Ix8YWedrk5zTO1VetK1sKHQMASAYGLADA63ItjwrtLUvMdaGkWaF7oKLJz2rM3/st0/J4oh+8kLl6jlR3v6TpE/3YwBjEkaKDGvOL8xP9wOv2vXxGaeq0k+U6VdLUiX58jJffYWbL0r2dvwhdAgCofAxYAIDXNNDWtTAyXyHZfqFboGFJX29oaDh9p1s/8IdyPUkx05VzqbNcjw+Mwe3pfMchJvNyPPjAgbndUik7nz/nFeP6KDX6icZfHfVI6BAAQOViwAIAvKJC5uo5bvXnmfuHQrdAknR9yvyE2b3ZteV8kkJbzyGy+BfiPQJCczu6qa/j6nI+xWB77p0W28Uy7VvO58GYbJT0lfqNfu6sNdn1oWMAAJWHN6cAgL9QbL1uuqc2ncIpNhXjzki+rDGf/Vm5n8i1PCpmWnoltZb7uYAxGExtfn6v2Xcds6GcT+ILb64b2vDkR1x2rqSdyvlcGJOCmz7b1NtxRbmOwAMAJFMUOgAAUBlcboPtXZ0ebbpPrjPFeBXaMyZflp7rbZMxXklSoa3lX8V4hcrRXJo67eRyP4ndcthoOp/9xuiU4T0lXSJptNzPidfUZK7/Gsp0/2pwfs9BoWMAAJWDI7AAACq2d7e5+0pJB4duqXV/vM388EjdmfPu/IfnJut5n55/5bab4ikPiDu0obI8b6PR3unVix+drCcstOX2tEhfdrcjJus58apiN7uqweNTZuWz60LHAADCYsACgBr22AFXp6O6+jNNfqw4KrcC+I2RomWN+Y41k/3MxbbuL7n5Jyf7eYExuKYp33nUZD9pIdNzuNwvkfnek/3c+CsbZLpo4zMzPr/7w0dsDh0DAAiDAQsAatCallzDzOn6mMvOkfSG0D2wB938U829ndeHePaBA3O7RSm7R9KUEM8PvB5T9I50fvHPJ/t5+1ovq09HM4932dmStp3s58fLmB526bPNvZ1doVMAAJOPAQsAakwh073I5StM2jV0C/ScTBdsfGbGipBHFRTbcz/gdClUuNXpuZ6xrmwpxJMXW7+7o0f1n5P0cUmpEA34Cz+NYz9xTn/27tAhAIDJw4AFADWieNA1e3spuliyvw3dgheu61JXF500+7YjnwgZUmjLvVtmPwnZAIyJ+bFNvdn/CJlQbO050FPxSrkODdkBSdKoy74dxcOnpfuPfip0DACg/BiwAKDKDSzIbR+N2pniyIGK4NLPZKmlzb1H/jp4y8Kb64obnrpTUkvoFmAMntgU+x5v7s/+LnRIIdO9SNIlks8N3QI9Y/KzG2fs9DW75TDuIAkAVYwL9gJAleprvay+mMl9NBq1BySdIMar0Abd9M9N+Y7DKmG8kqTC+qc/oeofr2JJtfChdlSu4dARZTZraio6LXSEJDXlO66zeEqLTJ+WaX3onhq3vctWFDc8dXcxk3tP6BgAQPlwBBYAVKFCpudwV+lik701dAu0UaYLh6evv2DeLR/eFDrmj148Mu8hSduHbiknNz99ZLj+a/V1I4ebovco8nfItepzI2kAACAASURBVFvorgnykKSfmduPnvf4xqkWLZZ50FPsJsGwW2mf5t4PPhg65I8G5/c0y/18c18i3ltXguvrFC3dOb/4t6FDAAATix+yAFBFBuZ3756K/TyXOkO3QG5St0ajk9OrFz8aOublBtu7vm6u40J3lNljFk/dO92/aONL/+ETmdzsUdnBMh3q7gsk21/S1ECNY7VJ8jvNo9sUxb9M2ehtO686+vGX/gLX8mgo03K7S+2hIieHX9eUz/5d6IqXG2jLtUemlZIdFLoFGpb09anR5s/tsGrJ70PHAAAmBgMWAFSBJ1py24zMsJPk+rSkKaF7oH55tLSpb/GtoUNeyVCmuyWW3ympLnRLOZlbR7qvo+f1fp0vvLluaNPju8elun0i175uvo+kPSXN1eS/njZJelSm+811dyy7O4p1V+Ou8UNjuQPfYHtugbndqip/j2fy96bz2R+F7ng51/Ko0N6yxFxflLRz6J5aZ9KQ5Msb8/d+y7Q8Dt0DANg6Vf3mBgCqHR+WKktSPiwVM103u7QwdEdZmX6Z7u14u8l8Sx/C5TZwwDWNqVTDPDOfJ8XN8mgnme/g0g6SdpBsB5fXmbStpJRM9XJt82LDerlGJJVc+r1JI5KelvSMZE+Z/GnJn5JswD16pFQaXjtn9QeHtqZZkgptXd+V6aiteYyK53bfkD+9X1v/cSOhU14JXypUnH6LfVm6P/vL0CEAgC3HgAUACTWUyb0jlq2QtH/oFiTndJXBtlyHmXWF7iizkluqtVIulj/ZBuf3NFsc3y9pRuiWcjLZ0nS+45LQHa+F07orSkWf1g0AeH0MWACQMFwwuOIk5oLBaxd+Z2rDhm3ulTQvdEs5mevr6b7Oj4XuCKnQ1nWmTMtDd5TZsxaP7JHuP/qp0CGvZzDT9S7JV3BjjYqwUaYL45R/Yc7t2edDxwAAxi4KHQAAGJti63XTC+1dyy2OHzT3D4nxKrT7Tf7epnznoiSMV5JUv2Gbk1Tl45Wk56zkZ4SOCC2u9y9K9kjojjKb6VH9WaEjxqI53/nTphk7HWDy4yRV/OBW5abLdWY0ag8Otncd43J+lgJAQvAXNgBUOJdbob27w6QL5XpT6B7oGZOf3Thjp6/ZLYeNho4Zq4EFuaaoZPf/6fpMVcpcJ6b7OleE7qgEhUzuHyW7JnRHmZXiyA6cs6rjrtAhYzWwILd9NGpnSjpeVX4jhSRw6WeSL2vOZ+8M3QIAeG0MWABQwYrzc63utkKuQ0O3QKMu+3YUD5+WhFOWXm4w03WFSUtCd5TZ/UPxM/tW6oW9Qyhkcj+T7O2hO8rspqZ857tCR4xXsbV7L4/8YknvCd0CxW52Vb0Nn7zzqqMfDx0DAHhlDFgAUIEeae1prIt8ucmPFad7V4Kfpjy1bHbfkfeEDtkSg/N7DrI4vk1V/nM/ch3R2Nf5w9AdlaTQ1n2AzPOSUqFbysnMj0z3Zr8XumNLFDLdi1y+wqRdQ7dAz8l0wcZnZqzY/eEjNoeOAQD8pap+IwsASdPXell9Opp5vMvOlrRt6B7oITed1tzbmdi79rnchtq7b3fX/NAt5WSuH6T7Ot8fuqMSFTJd35R0bOiOcnLptyMz1rfMu+XDm0K3bIk1LbmGmdP1Mf7urxgPuemTzb2d14cOAQD8Gd/qA0CFKGS6F6WjHe5z2QrxASa0DTKdtfHZGfskebySpEJ7zzFVP15JIy7/VOiOSpWqT51m0u9Cd5STSbtO2bDNiaE7tlTLmuxwOp9dORJHe7nsG5Li0E01bndzXVfI5P53KNPdEjoGAPACjsACgMCKrd17xZF/2aT3hm5BdV0H5YmW3DYj0+0BSenQLeVk0pfS+c6TQndUskKm6yRJF4buKCvT+tLI6J67rD6qGDplaxXn51o91krJDgndUutMGoll30nq9Q8BoJpwBBYABDKwILd9IdO10iO/m/EqPJN6PYoOae7tOKYaxitJGp5un1WVj1eSntw8Undu6IhK99xGv0SyB0N3lJVrm7q6uvNDZ0yE9Kpsfzrf+TY3ZWV6NHRPLXOp3uQf9aj+gWImt9Q7c1V9PTkAqGQcgQUAk8wX3lw3tOHJj7jsXEk7he6BBt10WlNvxxUm89AxE2Vde25eye1eSVNDt5STyY9L57PfCN2RBIVM9yLJvx+6o8w8dj9oTl+2N3TIRCm2XjfdU5tOketUVfnrORHc7rNIJ6Z7O34cOgUAag1HYAHAJBrMdL1raMNTd7jsMjFehbZR0hfqN/rezb2dl1fTeCVJo24Xqfo/7N7ZOFf/EToiKZryHddJ+lHojjKzyLTS5VXzJW26f9HGpt7O5R5Fu7vZFZKq6u+qxDHf291/VMh0XbeuPTcvdA4A1JKq+eEOAJVs4MDcbqmUne9SZ+gWSJKuj1Kjn2j81VGPhA4ph8H5PYdZHN8UuqPcIvnCxnz2Z6E7kqR40DV7q5T6tUv1oVvKyWQfSuc7rgzdUQ4DbV0LI/MVku0XugUalvT1hoaG03e69QN/CB0DANWOAQsAymjdvpfPKE2ddrJcn5Y0JXQP/A4zW5bu7fxF6JJy8c5cqrjW7pBp39AtZZZrynf+Y+iIJBrMdK8w+dLQHWVWqN/oe81ak10fOqQcXMujQnvLEnNdKGlW6B6oaPKzGvP3fsu0nDtIAkCZcAohAJSBy22wveuY0pRpD8t1phivQnvK5MvSc9VezeOVJBUfseNqYLzaFKVGTw0dkVSlKZvPklTtd1NrGp1uVftnxLQ8bu7tvHx4pG5PSV+QtDl0U41Lu+yyYqZlVSHTdXDoGACoVhyBBQATbKAt1x6ZVkp2UOiWWmfSiEuXTo02f26HVUt+H7qn3B499KqZdZsbHpS0Y+iWcjLpnHS+84zQHUlWyHQdL+lroTvKbFOUGt27Wk8VfqnB9mv2ME99SdL7Q7dAblK3Yj8p3Z99LHQMAFQTBiwAmCADC3JNVoo+b+5LxN+vFcBvtFR8QvpXH7wvdMlkqZVTw1Kbn99z9l3HbAgdkmS1cqqpSV3pfGc2dMdkKWR6DpfiFZJaQrdAG2S6aHj6+gvm3fLhTaFjAKAa8AELALbSwILctKhkJ0g6Xa5tQvdAD8Run5zT13FD6JDJVDsX59aSdL7zqtAd1aBWLvYfuw6b09d5S+iOydLXell9Opp5vMuWS9oudA9swM1Pb+7tvDx0CQAkHQMWAGyFQqZ7kaRLJJ8bugV61uRnNc7Y6Wt2y2GjoWMmWyHT9UNJ7wndUWa3p/Mdh5jMQ4dUi8FMV49JR4buKC//dXquWq0rWwpdMpkGFuS2j0btTEkfl5QK3VPrzP3mUipaNmdVx12hWwAgqRiwAGALFFt7DvQoXiHpbaFboFGXfTs1Gp/euDr7ZOiYEF4YUv37oTvKzGP3g+b0ZXtDh1STde25eSW3eyVNDd1STiY/Lp3PfiN0RwiDmdz+kq0w6R2hW6DYza6qq4tOmn3bkU+EjgGApGHAAoBxGGy/dgfz0hniG+1KcVMc2Ym1/I32mpZcw3bTo7sl3yN0S3nZfzblOz4cuqIaDWa6zjfpM6E7yuzJ4ZG6Pebd+Q/PhQ4J5cWhe6WkeaFboGdl+sJzG/ziljXZ4dAxAJAUUegAAEiCvtbL6ouZ3NLIS7+RdIIYr8IyPeymbFO+8121PF5J0nbT7YSqH69M60ujI6eFzqhWDRv9fEnF0B1lttOUutLnQkeE1JTvuO65jb6XyZdJ+kPonho3U64Ltpse3T3Ynntf6BgASAqOwAKA1/HiXZ1WSnpL6BZwV6eXWnfwtbPikdKDLr0xdEs5mfwz6Xz2gtAd1Wywvfufzf0/Q3eUk0kj7r5PU1/2gdAtoT12wNXpqK7+TJMfK77QrgB+YxRpaeOq7L2hSwCgkjFgAcCrKLTl9rRIX3a3I0K3QO5mVzZ4fMqsfHZd6JhKUch0fVPSsaE7ysml347MWN/CYFleLreh9u7b3TU/dEuZ/W9TvvNvQkdUiqFMTyZWvELSwaFbap1JIy5duin2M97cn/1d6B4AqEQMWADwMo8eetXMus0Np0o6UVJD6J5a5/K8TEube7O3h26pJIW27gNknleVn85qZv+Q7u3479AdtWBwfs9BFse3qcrfH0auIxr7On8YuqNSuNwK7d0d5rpI0i6he6CnTX5O41x9tdbunAkAr6eq36AAwHi4lkeF9pYlL76J3yl0D1Rw02ebejuuMJmHjqk0hUzuZ5K9PXRHmd3UlO98V+iIWjKY6brCpCWhO8rK9PBzG7yFi2f/pXX7Xj6jNHXayXKdqiq/K2VCrDZFy9L5xT8PHQIAlYJz3gFA0uD8nsOKbS2rzfVfYrwK7XlJX2hoaNi7ubfzcsarv1bI5P6xBsarUhzZiaEjao3X+adlWh+6o6xcu71xWvTx0BmVZvZdx2xo6u1cLo3u4WZXhO6BDnDFPytkuq4bOujquaFjAKAScAQWgJpWyFw9x63+PHP/UOgWSJKuT5mfMLs3uzZ0SKUaWJCbFo1G90o+N3RLmX2tKd/5b6EjatFgput0k84J3VFmv6+X78k19V7d4Pyew6wUr5Bp39At0POSLmloaDhvp1s/wB0kAdQsjsACUJPW7Xv5jEJ713Kp7kHGq4qw2hS9oynfuYjx6rVFI3ZKDYxXz1o8sjx0RK0ambH+IknV/jrcdthseeiISta8avHN6b41B7jpnyU9Ebqnxk2TdOrw8PB9g+1dx7icgxAA1CT+8gNQU/58sVr7kuRzQveAi9WOx+D8nmaL4/slzQjdUlamE5p6O78SOqOWDbblOsysK3RHmcUWeXt6VbY/dEil4+YmlYWbmwCoVQxYAGrGi7cLXylpQeiWWsftwrdMoa3ruzIdFbqjrNzuG/Kn92vrP24kdEqtK2a6bnZpYeiOsjL9Mt3b8XautTc2hbbcnhbpy+52ROgWyN3sygaPT+FUWAC1ggELVeM3rbk31k0b+avTYnf55dHP8ca0tj12wNXpqL7+AnNfIv7eqwB+YxRpaeOq7L2hS5JksD23wNxuVZX/GTb5e9P57I9Cd0AaynS3xPI7JdWFbiknd+9s7st2h+5IkkKm53C98IXQW0K3QBtkumh4+voL5t3y4U2hYxCOa3n02KG7v/Hl/3ybES/tsGrJ70M0AROtqt8EI9meaMltMzIt2t0VvzmyKB3LZ5us0Sye5W6NLr3RpG1kmi7XNq/zcBslbXDpDyb9TtJT5hpys6JJQ7HHxSiltVM0/BB/wVePgQW5aVHJTpDrNElvCN0De9At/mRzb/YHoUuSxrU8Gsq03O5Se+iWMvt+U77zA6Ej8GeD7V1fN9dxoTvKywYsnrJXun/RxtAlSdLXell9Opp5vGRnufRXH5oxyUwPu/TZ5t7Oaj/1t6as3f97202tj3cvyedFihvdLe2RNZp7WtIOLm1r0rZ64dIC017n4f4gaaNLG0x6xlyPu+kJkwov/KcNlErxb9Sgh+fcnn2+7P/jgC3AgIXgnmjJbTMy3faV2wEy31/yPSTbQ9LsQEmPS3pQbg+axXfL7I66Db561ppsdd9WvMoUMt2LJF8paV7oFug5mS54boNf3LImOxw6JokKbd0fkfl/hO4os2G30j7NvR98MHQI/mxgQW77aNQekrR96JZyculzzfnOc0N3JNFg+7U7mJfOkPRxSanQPdBNcezL5vRn7w4dgrF7ev6V2w7HDQeUTK3m9taXfB7aKUCOSzZoHj8s2QMyX21Krd404/d3c5QfQmPAwqQrHnTN3ipFb3PZ2yW1StpDlX9HzFhuD7h5v0m3R5HfwulPlanQ1n2ALF6hF/58IazYza6qq4tOmn3bkdzBags9ecj/vGFkePgBlxpDt5SV2YVNvR2nhM7AXxts6z7RzL8cuqPMNlrse6f7s4+FDkmqYmvPgR7FKyS9LXQLNOqyb6dG49MbV2efDB2Dv+Rye7ztey0ljS6URQskb5W0uyr/89CoSfe5Ke+yn9cp/jl3jsZkY8BC2RUP6HlTXFc6IjJ7p7veJmnn0E0T5HFJP5P0szpFP9o5v/i3oYNqGd8AVxZzvzmO6k5s7j3y16Fbkq7Q1vUFmap92HliU+x7cEH/yuQLb64rbnjqTkktoVvKyc2uaO7tOCZ0R9K9cAS0LpF8bugW6FmTn9U4Y6ev2S2HjYaOqWUDB+Z2iyK9x00L7YUvWUMcWVUGNuDyn5l0U100csPOq45+PHQRqhsDFiacd+ZS6x7RobHbEW5+hMneGrppMrj8Hsmu89j+p7n/nrxpeRy6qRZwDY5KYwNufnpzb+floUuqweOZnl1HFd8raUrolrIyP7apN1vtp0gmWqEt926Z/SR0R5m5xf72dH/2l6FDku5P16CUTh/DdUpRfg9ErhMb+zp/GDqkVriWR4X2t8w3tw/I7e9kvnfopkkQu7zfzG6IPPrB7PyRfdxICxONAQsTwrU8GmpvOcRdH5TUqar5VmGLrZNZt5td1bxq8a9Cx1SrF++CtEJVflRAQmyU6ULugjSxCu1d/y1XtV/UfHU6v6aN0b/yFdtzP3C3I0J3lFl/Or+mnT+PE2NgQa7JStHnuQtwxbi+FJeW7dL/wd+EDqlGLrdipnuBpH+S1CFpVuCk0B6T2f9TrKub+jpWh45BdeAHCbbK0PzcWzy2j7gsK/mc0D0VyfSwpKviUb9yzh3Zh0PnVIPB9mv2ME99SdL7Q7dAblK3Yj+Ja8dMrMH23DvN7aehO8rNFL0jnV/889AdeH0DB+Z2i1J2j6r8iEA3+z/NvR3/Fbqjmgy05doj00rJDgrdUutMGnHp0qnR5s9x5+2J8cL70rp/cvkSk3YN3VOhHpDraitF/5levfjR0DFILgYsjNtDu90wZdr2G/7O3D8q2bvEn6Px6HfTJetKz1zd1n/cSOiYpFm7//e2a6gf/bSkZaryD1AJ0SdpaVO+87bQIdXGO3OpoUdstUv7hG4pK9fVTX2dR4fOwNgV27q/5OafDN1RZo9PjTbvwYf7ieVyK7R3f8hcX1C4O03jz54y+bmNc/VV68qWQsckjXfmUsVHoiOk+AQ+D41LLPlNbvaNdaVn/pvPQxgvXmgYs6GDrp7rcd0J7vo/kmaG7km4gkuXNci/OSufXRc6ptK9cB2BliXmulAcjl0JiiY/qzF/77c4zaY8Cu1dn5DrktAdZfa8jUZ7801ssjw9/8ptN8VTHlCVDxBuOr+5t/O00B3VaN2+l88oTZ12slyfFl9GVQC/w2It5dpvY/NIa09jvcUflemjktKhexKuINc3o5L/O3fLxFgxYOF1DbZfu58Uf8rcj5JUF7qnmpg0EptdE5V0frq/4/7QPZVooK1rYWS+QrL9QrdAw5K+3tDQcPpOt37gD6FjqtWjh141s25zw0OSdgjdUlams5p6O5eHzsD4DbZ1HWemr4fuKLPhOLK3zlnV8VDokGo1cGBut1TKzvcXrp2K8K630ejf+FLhlb14U5Wlkj4qaWroniqz2c1yFsfnNfVlHwgdg8rGgIVXNZTJvSOWTpfs8NAtNaAkqSuO7PNzVnXcFTqmEhQyV89xqz+PC79WjOvrFC3dOb/4t6FDql2hvfsrcv+30B1lNpja/Pxes+86ZkPoEIyfa3lUzLT0SmoN3VJOLl3bnO9cHLqj2g22594Zua2o+lOmk2GjpK/Ub/RzZ63Jrg8dUwkG26/dzzz+jOSdkqLQPVWuZNK1pcjO5fMQXg0fCvFXBuf3HGRx6RyGqyBc0nUpT502u+/Ie0LHhFBsvW66pzadItep4huu8Nzus0gnpns7fhw6pRa8eGOMO12qD91SVq6jmvo6rwmdgS1XaOs5RBb/QlX+XtIi/W16VedPQndUO194c93Qhic/4rJzxZ2sK8Ggm05r6u24wmQeOiaEgdbcPlFk50t6n6r877kKFEvWZbGWc4YKXo4XI/6k0NZ9gMzPFnd2qwQlSZd7FJ3RvGrxYOiYyfDixV07zHWRpF1C90DPmPxsLu46uQqZ3I8k+9vQHWV2WzrfcWitfiiqJsVMV64GTv+6Nz1jx/3slsNGQ4fUghdPoV4u6Xhx2YrgzLSqVLKlc/o7VoVumSyFzNVzpPqzJT9GHHEVWsmkKyPzs2b3ZteGjkFlYMCCHp//3Z1HSw3nyfzD4i/qSvO8XF8ZHq37/Lw7/+G50DHlUmzvbnOPV0h2SOiWWmfSSCz7ThQPn5buP/qp0D21pNje/ffu/r3QHWUWR4oOaswvzocOwdZ74YNe3f2SpoduKSeXH9+cz14auqOWFFu794oj/7JJ7w3dAsVudlW9DZ+886qjHw8dUy5r9//edg11o5+R6ROSpoXuwV/YLNnF9Rvj8zi1FQxYNayv9bL6dDTzeMnOcumNoXvwmp4x+Wca853frKajFh5p7Wmsi3y5yY8V42kF8BtTXndirZ6+GtKallzDdtPtHkm7h24pK7f/aOrrODZ0BiZOMdN1jkunh+4os2fcUns09x75dOiQWlPIdC8y6WKXvzl0S80zrZf0pY3PzPj87g8fsTl0zkQabO/qNNdXJO0cugWvzqQhyZdzF+zaxoBVowYzXe8y6VJV+4elKmPSLYrtY0k/H3xNS65h5nR9zGVnS9o2dA/0kJtOa+7t7AodUqsK7V2nynVB6I4y+8NIHO05t3/xUOgQTJxi63XTPdp0n6r81G+XrWzOdywL3VGL/viFK+8ZKkbVvGcoHnTN3iql/t2lhaFbMHZmWhUrdVxz75G/Dt2CyceAVWMePfSqmXXDDRfJ9WHx/39SDZvbhZu3+cO582758KbQMeNVyHQvcvkKk3YN3VLzqvjb1CR5fP53dy7F9Q9U/ZGw7qc09WUvDJ2BiVfMdC9x+RWhO8psNOWpAzhCNZyXHLX9L5JSoXugn6Y8tSyJr4m1C78ztX7DNmeY9ClJDaF7MH4mjcjti0n9PIQtx4BRQwqZ7kWS/7uk5tAtmBD3WuTHpFdl+0OHjEWxtXsvj/xiSe8J3fL/2bvz+Kjqe//j78+ZSQIEraAimZkoFKu1VCsmE4pai11uV/VqMqdiXa63/WlbN9x3jXVfAXttr9ra1r2TYGv12ttFoYtiZiZCVbRuRUkyARRwISHLzPn8/qC993ZRYZKTz5kz7+efPhRej4eZyTmf8z3fL1XGfhbloifZdgeA4607/CSQV/o2TpjJQWk4KVTyTe2/g+JA6xafPRrPpnhCs7H87HSDqiysgJ+3clBQyB3ltG9m1+z2fRzPuxOQj1m30CgQvKzinJDoaF5inUJjgwOsCvBKQ/oD4xz5TwBHWrfQ6Nqy4TYuj9fudHVQT0jqmpOe7BTkUvBEoUBQ4LeAzk9k3RXWLQTkGxbvp46XRej3gJND49mWh6wryD+V8rOsgkMSmdTD1h2V7n9OLgauh2I36x76y8nFtTvfEtTrUZ27JJrf9MaFIrhQgSrrHhpVngALNvbrBTNXukPWMeQvDrBCrqdx8QEQvRvQadYt5B8BMp4Uj0lkjnzRuuWvdO6SaG/f6/+ukCsB7GTdQ+hWwYXxTMtdYToIoJwpVPLJ9t8C+IR1i8+4aqVC5JNtP1LgOOsOP3E1YbDkGx6aoJGBc6A4Bzw5Lgj+JNDTY1n3v61D/q8tp1p6dwokad1CvlounhxV7nsF03sL9VOySqapdKSnqe1cEW8Jh1fhp0CTINLZ09gWiFV23cm2T/f0vb5cIbeCwytr/RBc5kV1j0QmdSeHV8HR29Q2D+EfXhU8T0+3jqCxEXGGzwXwtnWHnxQ6Y8KkvlOsO2iLWOch/fFMqlUdZw8VuQsAf8fZ+rBCftGTbHtobXJxIPY6zSfbjoCjT3J4VRFmqaNP5ZPp06xDyD9cgRVCa/Z/YIo3XPwJT9SoUCL/8Wafd6bFEtqu2e0finh6pQKpsf676R+oAO0oOGfHlje/Zh1Df6trTnq8U5TnK+DVl5vj2RQvJCtIPtl2vgJXWXf4jCdqBlRXQ/vsSEQXqWK2dQthCMB/jnMGL96x4+gxH2y/tPsjNbWT+hco9Jtj/XdTINwfGdz89alPH9tnHUKjiyuwQqY3uThZHPZyHF5VMNWTJ02Q3+dnLR6zG+N1M9MTe5raWh1Pn+HwKhA6xdODYtmUy+FVMDkF57wKGF5tUIl82zqCxtbGfr0RwEvWHT7brsrx+LMdQPWdLR11mZX7q+A4ADykxFY1gFMHvZo/5ZPpExStY3bfuaYpPX3CpL7HObyqaEd6NeOXrW64f4Z1CI0ursAKkXxj+hgVuRXcA4C2WO9Am+uy7m/9+gsUrU5P08yjRXEdgF38+nto6wjQC2hrXfa57wtaPese+ud6kvfVA9E/AZhg3eKzk+LZ1HetI2js5ZvSh6vKA9YdPvNEZHYs05KzDqF/bt3M9MThWjkLivMA1Fj3EHJQZ3481/y4n39JT7JtfwA/A7Czn38PlY23ReS4WKblZ9YhNDo4wAoBTaUj+dechVA92bqFAmdQIF+PZVvuHu0/mMv0g0OAYQW+Z7VMn7ZNT7LtJwBc6w6fPRer3eljQT2NivzX09j2Swj+xbrDZ0/Esi0Hcm/BYOP2BoGyZXsDT8+KdbqrR/sP725qP05Ub8OW1V9Ef+VB9bx4zr3eOoRGjgOsMrdq7g/H1fRNvJO/lOl93BzLrjx9NFbldM9enIDqVaJ6NPgdEgQPF73i/F07j3zFOoTe31+eDP8BIf/siIPPxTpSv7LuIDu9s9Mf8Tz5I4CodYu/9Mh41v2JdQW9v57k4s8oigsE8lHrFkI/BNcPTdh0zfSlxw+M9A9TqOSb2i+F4tLRiKOQUvlBbOKO3+DDtfIW6gvosOudld7Zi+LngHzcuoXKgOK+Xt1wXGPnicOl/Od/Oar6FAAXQTFxlOto2/3JUZxRl0v9wjqEto6i1cknZ3YAaLRu8dlP49nUEdYRZK8n2XYLgG9Zd/isOzK4+cPctjsNQgAAIABJREFUKLg85BpurYo5k45XyJXgKckBIF0qelE803JXqSsZV85MV+8wQe5C+Fc20+j4eWRw81H8zi5f3MS9TK1uuH+GVyVPcHhFW00wLxaZ9LN8w0PbvO9OT7L9EI0MPAfFNRxemdsg0Pmx2p325vCqvPQmP/o1hH94NeQ5cq51BAWDF9WLAay37vBZolg9/izrCNo6jZ0nDsey7m1eVPcEcDOAonVTZdN6Ufy4N9n+WHfTAx/b1v96zT531u4wAT8Hh1e09Q71asY/1jsrzT3SyhRXYJWhnsb0nhB5FEDcuoXK0u8HPD1kRqf71vv9i/mGxftpxFsExYFjEUbvqaCQOyIF76K65e7r1jG0bV4/4MHthoaGXgQw1brFX3JNPNtyvnUFBUc+2X6qQhdZd/hssxScvXjqa/nJf/z+vbToLADkc9YtBE9F7olGnbOmPnHEuvf7l1ft+9MdqquGHwbkgLGIo9D5U7FQ+PSuy+flrUNo23CAVWbWND7w0aIUf43Q3wSRv/Qpp4DPv9sgJN9w707qVF0M4CQAkbFto3/iUc/T0+s73WesQ6g0+WTbDQqcad3hs7XjnME9eJAA/V86d0m0p+/15eHfd0jujWdbvmpdQaXpSbYfotCFAnzQuoXwJgTX9G+oXfihl784+M/+hbWz792l4EV/Ccg2r9oi+l/yojry6URHc7d1CW09DrDKSHcyva9AfgUeC0ujQIBn4A1/KtZ51Bt//Wd/2RviWwr5NoDtDfMIAAQvK3BBIpNqs06h0q1uuH9GxImsRMiPcVfo8Yms+yPrDgqe7mTbpwX4jXWHz1QEn4xlUr+3DqHSrJyZrp40Ad9UyOUAtrPuIXlRRc9MZFIP/99/umUPYFkCYKZRGIWJ4LVisfhpHoZUPjjAKhNds9v3cTxdAmCydQuFiT41NFz16ekrDn+zJ9l+iAALFDrDuorQB8EN/Rtqr363p49UPnqSbQ8B+LJ1h7/0qVj2ueRonHRK4dSTTP8ckEOsO3y2PJZd2cjPQXlbPeu+mBOtulSgXwf3Cw4A/Y0DZ35dtmVl15z0ZKeAx7jyikbZavH0E7FOd7V1CL0/DrDKwOqG+2dEncjvFaizbqHwEZE/quo6AJ+1biGoitxdrd45U7LuGusYGrme5OLPAN6vrTt8puLpQbFO9w/WIRRclbISESpfi+da7rDOoJHLN7U3quoiAPtbt1Q6AYah+IGKNgGyn3UPhZDg5SrVT/D6O/g4wAq41bPui0Wi0T8AmG7dQkT+ESDjOc5piY7mJ61baHRUzt4/uCeeTR1tHUHB19PUfh1Uz7bu8Nm6AU/32JqDUij4FCo9Te0torgBwK7WPUTkqxVDw9GDp684/E3rEHp3XBYbYKv2/ekOkWjkEXB4RRRmPSo4ri7b8nEOr8Kld9MbJ1fA8GqzeHqBdQSVh+qqqssF6LXu8NmUcY7wJM6QEIgmMqk28cbtBcFlAAasm4jIN/tWVw3/Yt3M9ETrEHp3XIEVUC/t/kjNhEmbHuXRsEShtRnAzVX9esWUle4m6xgaXVv26ZAXAexo3eInBS5JZFOXW3dQ+cg3tX1dFbdbd/hsSKW4dyJz5IvWITS6epL31atUXSmqx1i3EJFvfh7Lrjyc+xkGE1dgBZBCZfzk/ts5vCIKrYedSOEj8WzqPA6vwilScK5AyIdXgHQ53rgbrSuovNRlVt6h0Kx1h8+qBZHrrCNo9MWz87oSmZZjPcXBgP7RuoeIfHFob3Imv8MDiiuwAqg72XaRAHyiTRQ6+pSIzOcx6+HWm2yf6UFXAIhat/hJBW4ik2qz7qDy05Ns2x/AHxDy61AR+Xws0/JL6w7yh6LV6WmaebQorgcwxbqHiEaXQE6IZVvCvmK47HAFVsDkG9ubBbjMuoOIRtV6gc6PTUMTh1fh50EXIOTDK0Afj2da2q0rqDzFs6knAPzEusNv6mFBruHWKusO8oeg1UtkUncODUf3BHAtgCHrJiIaTXrLltOkKUg4wAqQrob03ip6J/j/hSgUBBgGcPOApzNiWXeRtLlF6ybyV76xvRnAZ607fOaJOPMFotYhVL7Ucc4G0Gfd4SvRvepk0onWGeSv6SsOfzOeTZ2nUtxbFP9l3UNEo0OBKsD7SX7W4t2sW+h/hXrpdjlZNzM9cXi8k4HoXtYtRDQa9DeOg9PqOtznrEtobKycma7eoVZWQrG7dYufFHJbItvCm3IasZ6mtlYoLrXu8NlG8Yb3iHUe9YZ1CI2NLSs2vIUAZlq3ENHIKTS7eePET3zo5S8OWrcQV/oExvB4uY3DK6JQeMFT+VI8636Ww6vKMmm8nBX24RWAt6vhhX3gQGPEi+i1ELxm3eGzSRqp5memgsSzzb/p9TbMEuh8Ad6y7iGikRFIcsLk/husO2gLrsAKgO6m9m+I6vesO4hoRDZCcO2bfbpg5kqX+2BUmLWz792l4FW9CGB76xY/qeiZiYx7k3UHhUdPY/s8iN5r3eGzoufprPpO9xnrEBpb3U0P7ChavATASQAi1j1EVDqBHBPLttxt3VHpOMAy1tWQ3ttxJANgnHULEZXEU5F7IsPemXXL3detY8hGvrHtxyo41rrDV4KX+zfUfpRL6Gm09STTvwXkIOsOnz0Wz6Y+bR1BNnoa22dBvIUV8HNOFGbvROHsu0u2+c/WIZWMAyxDOndJNN/3xjIAjdYtRLTtRHVJMeLMr+9oedq6hezkZ6cb1JMMQv5avqfypfpcyyPWHRQ+W27uNYeQf4ag+Nd4LvWgdQbZ6Um2HwLoIgDTrVsCRcG7UioXT8Sm6UE8mMlOuC8UAq63741LwOEVlROeOfYX0qWC42I591McXlU2hYp6WITQ/z7V33B4RX6J51qWQ/Aj6w6/qeCml3Z/pMa6g+zEsy0PeVGdCcF5AN6x7gkMDq+ofOyfX4UzrCMqWcgvuIMr37B4PwDnWXcQbRNeYPRBcNlQ7Tt7JDKpO61jyF5vY9vRgBxg3eGzggNnvnUEhVskGjk/7BteC/DBCZP7+FmqcPXL3M3xTOpaL6p7qchd4ONBovIicnnX7PZ9rDMqFW9HDby0+yM1E3boX85TB4nKhgrQriicGc/O67KOoWDINzw0QZ2B5wHsat3iJxEsiGVSfNpIvutpajsHimutO3z2zrDn7Dmts7nXOoSCoTe5OOnBWwRgjnULEW215b3ehtmNnScOW4dUGq7AMjBh0qZzObwiKg8KzaroAbFsyuXwiv6GDF6AkA+vAGwoRvQK6wiqDG/26UJAXrTu8Nl2VY53pXUEBUddtjkby7YcoILjAKyx7iGirTKrTiZxRa0BrsAaY2uTiz9YgPcsgPHWLUT0nvIqOD+eablLIFzeT38j35DeVR15HsAE6xY/qeIbiVzqVusOqhw9jelDIRL2jc49T3VOfc7NWIdQsKzZ587a4rjxZ0NxLnhCOVHQ9UnBmRlb3vyadUgl4QqsMVbYskSYwyui4NoM4Nrq6uoPJzKpOzm8on/Gc3ATQj68ArAyPnGnH1hHUGWJ59yfA/pL6w6fOY7IQoXyQTL9jalPH9sXz6Rai17xowK0WfcQ0Xuq1SpvkXVEpeEvzjGUb0ofrioPWHcQ0bt6OCJ66tSMu8o6hIIr35A+UB35HcL+O1T1X+I599fWGVR58h+/fy8UI39UoMq6xU8i+tVYxr3XuoOCq7sp/SnxZAEE3DCaKKhUD9vy8IXGQrgvvgNk1dwfjqvu2+55QKdZtxDRP1gucObHss2/sw6hYFO0OvnkzAyABusWP4mgPZZJpaw7qHL1NLbdDMEp1h0+64kMbt5z6tPH9lmHUHApWp2epplHi+IGADtb9xDR35NXh2rf2Wv60uMHrEsqAV8hHCPVfRNP5vCKKHDWC3R+bJomObyirdHT9NETEPLhFYDBYkHPt46gylYYN3QpgDesO3wWL9ZMOMc6goJN0OolMqk7CzVDewK4FsCQdRMR/V86rapv4knWFZWCK7DGwGsH3jMpOlj9MoDJ1i1EBAgwrMD3Bjy9ZEan+5Z1D5WHVfv+dIfqqsKLCPkTcFG5MpZruci6g6insf0kiP6HdYfPNjuRwkfqnpz3qnUIlYeexvSe4uAmVfmidQsR/Y8NQ8PRGdNXHP6mdUjYcQXWGIgO1ZwPDq+IAkJ/I5BZ8WzqNA6vaFtUVRUuRciHVwDW1EQGrrOOIAKA2HTvPwV4xrrDZ+O9YtU11hFUPuI594VYxv0S4HwWKs9b9xARAGBydVXxXOuISsAVWD7rmpOOOwV5CTx5kMiYvKiiZyYyqYetS6j85BvaPwxHnw79ptKqx8Zy7l3WHUR/1d2U/pSoPGrd4TcHOrcu6/7WuoPKS67h1qqYM+lbgFymwAese4gq3ABQ2COenddlHRJmXIHlMynKxeDwiiqAWge8uzchOK9/44R9OLyiUnmO3hT24RWgT9blUndbVxD9X4mM+xhUf2bd4TcPslBT6Yh1B5WXxs4Th2NZd5EnkRkAbgZQtG4iqmDjgChXYfmMK7B8tHrWfbFINPpnADXWLUQVyFORe6JR56ypTxyxzjqGyld3U/pLohL24ad6nsyp72zpsA4h+ntrk4s/WIC3EsA46xY/CeSEWLbldusOKl/5hsX7qeMtBPAJ6xaiCjVQBZ0+JeuusQ4JK67A8lE0UnUmOLwiGnMCLFWJ7JfItBzL4RWNRK7h1ipRudG6w2+iuIvDKwqqXbLNfwZkoXWH3xR6xSsNab4GRiWLdTY/Fc+mDgLkUEBete4hqkDjhlVOt44IMw6wfNLd9MCO6ugJ1h1ElUW6VHBcLJs6OJE54o/WNVT+pjqTTwWwp3WHrwSbCsXC+dYZRO+lqt+7UoBe6w6fTRnnCE8ApRGLZ1seEq9mJgTnQbDJuoeooghOyjfcu5N1RlhxgOUTR4unQTHRuoOoQvRDcNlQ7Tt7JDKpO61jKBx6Z6V3FiD0N5Pi4epdl8/LW3cQvZcpK91NClxo3TEGTu1pTId7aE5jItZ5SH88k7rWi+iHVeQuBHq7UqJQqVWpOsk6Iqw4wPLBS7s/UqPAidYdRBVABWgTT/eKZ1Kt05ceP2AdROFRjDpXANjBusNnqwYnbrrJOoJoa8SyK38sQMa6w2fVELnBOoLCo36Z25PItBzrqX4c0Cete4gqguCkl3Z/hFsJ+YADLB+Mn9z3FQBTrDuIQi4HdT4Ry6bcWKe72jqGwqU7md5XoF+z7vCbAGdx8EvlQtDqeaLzEf6VJF/ubWz7gnUEhUt9zs3Ess8doILjAKy17iEKuZ1rJ29qto4IIw6wfOAouGSQyD95gZ4Yy66cHc81P24dQ2ElCwGE+kh7UV0Sy6YesO4g2haJjLsMwL3WHX7zBDflGm6tsu6gcBG0eolM6s7I4OYZEFwGYNC6iSisVIUzAR9wgDXK8g2L91OgybqDKISGANw8zhncK5Z1bxO0etZBFE7dyXZXgE9ad/is6DlRnpJDZcmL6rkA+qw7fPbhmDPpW9YRFE5Tnz62L55JtXpF/agAbdY9RCG1f75h8X7WEWHDAdYoU8c72bqBKIQejsLZK55NnbZjx9FvW8dQeK2a+8NxAlxr3eE3gdzGkzqpXNUvc3sAvc66w28KuZQnWZGf6p9yX45lU64CnxHgGeseorBRx/uGdUPYcIA1ivIND02AIGXdQRQaKs8L9AvxbOqQXbLNf7bOofCr6pt4NqDTrDt8thHe0CXWEUQj4UVxPSCvWnf4bBKc6m9bR1D4JbKpR+tqd9pPoCcCeMO6hyhEvtI1Jz3eOiJMOMAaTc7A4VBMtM4gCoENAp0fm+7tHcu6/20dQ5Wha046LsC51h1+E+hlsc6jeINCZa1+mbtZK+DzqtATupse+Jh1B4WfLD24EMu6t3lR3RPAzQAK1k1EIbC9FJxDrCPChAOsUeQBX7VuICpzBYXcJt7wnrGsu0ja3KJ1EFUOpyDXAqi17vDZn/Lexu9aRxCNhkS2Ja3Ab607fBZxvMIC6wiqHPXL3A3xbOo08WRvAHyISDRCAuWMYBSJdUBY9M5K76xR6VGAJ8YQlebRiEbmT80d8ax1CFWe7qb0HFF5HCH/vegovliXS/3CuoNotHQn0/sKJIewnxoKNPPUULLQk2w/RKELBfigdQtRORJgGN5wjKvfRwdXYI0SL4KvcHhFVJKXVODGs6nPcHhFFhQqjspChHx4BeBhDq8obBJZdwWAO6w7/KbADavm/nCcdQdVnni25aG3+nUvgc4HwIN0iLaRAlXqVLnWHWHBAdZoETncOoGorAg2QXBZ/8bavROZFI9wJjM9ybbjFGiy7vDZEFTPso4g8kOkKnIRgDetO3w2vWbTxDOsI6gyzVzpDsWy7qJhz/mwQm4D4Fk3EZUX5axglIT9afOYWLXvT3eoqSqs4wosoq3iqcg9VTJ09i4dR621jqHKtm5meuLwBHkBQMy6xWc3xLOps60jiPzSnWw7U4AbrDt8JdhUHC7suevyeXnrFKps+dnpBvWwCJADrFuIyoEAw4PD0SnTVxwe9octvuMKrFFQU1X4EodXRO9PBB2eJ/snMi3HcnhFQTA8wbkQ4R9erRvw9ArrCCI/rfE23AzgBesOXykmRiPRq60ziGIdbmcsm/qEClwIXrPuIQo6Baqqq4Y/Z90RBhxgjQIFDrVuIAoyAd5SwXF1mZY59Z0tHdY9RACwNrn4g9iyp0eoCeSiGZ3uW9YdRH5q7DxxWEXPtO7wmwqO6Wpon23dQSQQTWRSbVIc9xEILhNg2LqJKNjkEOuCMOAAa4RyDbdWCcBpKtF7UOjziUzqToGodQvRXxW0eCOAsG+KvKJumhf6Da6JACCRcf9LgbAfVCCO4y1UKLcBoUCIdR7SH8+kWgE8bd1CFHBf1FQ61CfmjgUOsEZoamRSowIfsO4gCjZJds1JT7auIPqr7qb0pyDyr9YdfnOg86XNLVp3EI0Vx5Mzwr8SRD7e29h2tHUF0V91Nz2wowL7WncQBdykNa9G9rOOKHccYI2QozLXuoGoDEScYfmEdQQRAGgqHRFPFlh3+E9+Upd1f2tdQTSWYp0tf/KAW6w7/KYi162ffff21h1EAOCgcBAAriwheh8evE9aN5Q7DrBGSKH8ISTaCiLgAIsCIb/K+QYE+1h3+GyzExk+zzqCyMLwcPQyAK9bd/hs6mBx3DnWEUQA4KkcZN1AVA5EMde6odxxgDUCOndJFJD9rTuIyoEH5cUNmXvtwHsmQbTVusN/cn3dk/Neta4gsjB9xeFvqsgl1h1+U9GzuvZL727dQSQAH+gTbQUVHLRlhkCl4gBrBHo2b2gEsJ11B1E5EMis1w94kJ8XMhUdqL4MwE7WHT7riQz2X2cdQWQpvpt3O6B/tO7wWU0kKldbR1Ble6Uh/QEg9KuaiUbLdmv6NsyyjihnHGCNgKiXtG4gKiPR4cLQHOsIqlz5j9+/lwi+Yd3hNxE9Z+rTx/ZZdxBZkja3qE7kdOsOv6mipacx/VnrDqpcE0T2B/e/ItpqHjhDGAkOsEZAPDRaNxCVFU958gaZ0WLkJgWqrDt8tqwuk7rPOoIoCBIdzUsUuti6w3ciC/hKClkpChqsG4jKCj8zI8IB1ggof/iItolCuGSWTPQ0pg8F8HnrDp95nup8gah1CFFQRAVnAxiw7vDZzJ7+9V+3jqCKxWs7om2hyhnCCHCAVaJ8w0MTAOxp3UFUZniRQ2Nu5cx0NcS53rpjDPy4PudmrCOIgmRqxl2lgpusO/wmqld2zUlPtu6gyiO8tiPaRjJz1dwfjrOuKFccYJXIiw7tA4DLtYm2zYz1s+/e3jqCKssO43EaoHtYd/jsnWHPudA6giiInOK4KwHpsu7w2eRIUS6yjqDKsmrfn+4AYJp1B1GZiY7r235v64hyxQFWicTz9rJuICpDzkBxPL+wacys2f+BKSIS/sGO4Mppnc291hlEQRTrPKRfRUM/3FHFKb3J9pnWHVQ5aqq8fQCIdQdRuSkKZwml4gCrRAp8yLqBqBypFPnZoTFTHPKuUuAD1h1+UuDP/RtqF1p3EAVZPNNyF6CPW3f4LOrB43cBjR3xwr66mcgXjnKWUCoOsEoW+tdRiHzhqLO7dQNVhp7G9lkQPd66w2+iOONDL39x0LqDKMgEouLgNACedYu/5DPdTekvWVdQZVCPN+FEpVCAs4QScYBVIlHhFzZRCVSUnx0aG+ItRPh/zz0Wz6UetI4gKgexDrdTFHdbd/hNIAtf2v2RGusOCj8V8KEkUWk4wCpR2C/sfaFQAb+wiUrFARb5rqexfR4gB1l3+KzoeTrfOoKonEQiw+cAeNu6w1eK3cdP3nSSdQaFn8NrOqJSfUih3D+uBBxglaCn6aeTAUyw7iAqRwJ80LqBwq1rTno8HL3ausN3It+r73Sfsc4gKie7dBy1VkWvs+7wm6hcui6ZnmrdQeGmvKYjKlVt95y2SdYR5YgDrBKoeHHrBqJypcAH8g0PcQBMvnGKci4Uu1l3+GyjFIcus44gKkebN0y8AYKXrTt8tv0QHH5HkG9eaUh/AECtdQdRuYoWnDrrhnLEAVYJIgr+sBGNQMQZ4lNh8kX37MUJKM6y7vCd6iWxzqPesM4gKkcfevmLg+LJedYdfhPo1/NN7Y3WHRRO4wS8liMaAQ/CmUIJOMAqgarGrBuIylmBQ2DyiXje9Qj7E2GV53t1463WGUTlLJZrWQzg19YdPnNUvYXcZ4X84HCARTQiokXeD5WAA6wSCHQX6waiciZQXvTQqOtJtu0P4CvWHX4TB6c3dp44bN1BVO4cyOkACtYd/pIDepraW6wrKHyKcHg/RDQC6nAFVik4wCqBqnDDNaIR8MSbYt1A4aJodRS6EEC4VxoIHoxlWn5pnUEUBnXZlpWi+L51h99E5UbuPUmjTZTXckQjoYodrBvKEQdYJRCR7awbiMoZP0M02vJNHzleIEnrDp8NKYrnWEcQhUmxSi8EsN66w19a7zkDZ1pXULgIZHvrBqJyJoqJ1g3liAOsEnhQ3nwTjYRKuPcoojH1+gEPbicql1t3jIEFicyRL1pHEIVJ/TJ3gyiusO7wmwDn5xvSu1p3UHh4Tsj3myTyGx/ol4QDrBKIKqelRCPAJw40moaGhy9WhP5ggHUDnl5tHUEURnUTd/oPhT5r3eGz8erIVdYRFB68liMaGYXHAVYJOMAqhfALm2gkVLiKkUbH6ob7Z0D1VOsO36mcP6PTfcs6gyiMZOnBBUHkdOuOMXBUviF9oHUEhQTvh4hGRJQrsErBAVYJFFJl3UBUzhQYb91A4RBxnAUAaqw7fLY8lnv2R9YRRGEWzzb/RhT/Zd3hM1EHixStvP6nkVPwYACikRBErRPKEX+BlUCg4T7lioioDHQn2z4NyCHWHT5TEZwmaPWsQ4jCrujpfACD1h3+kv16kh851rqCwkB4P0REY44DrJLwC5uIyJLOXRJ1gAXWHf6T+2KZ1O+tK4gqQf1T7ssC/Id1h98Ecs362XfzBDkiIio7HGAREVHZ6e1b/y0F9rbu8NlmKcgF1hFElaSquvoyAGusO3y2y4A37nzrCCp3qtYFRFR5OMAiIqKy0jUnPVmhl1h3+E5xbWx582vWGUSVZOfHD3tHIOH/foGe0TW7/UPWFURElUqU2xKVggOs0gxZBxCVNRE+taOSOQW5HMCO1h0+644Mbb7BOoKoEtVln/0BgJx1h8+qHU+vtY6gcibcm5FoBFQk5Hsu+oMDrFIINlknEJUzR/kZotL0zk5/BMAJ1h3+07OmPn1sn3UFUSUStHpQZz6AsD9sOTw/u+1frCOoXCl/RxGNgADvWDeUIw6wSsGbb6IRUVV+YVNJvKIsAEJ/7PATsWwqbR1BVMniuebHAbRZd/hNPSzQuUvC/p1KPhAVXssRjYCCM4VScIBVAuUKLKIRUeETB9p2+ab04RCEfbWAJyKnCfiaLZG9wlkA+q0rfPaRfN8bFbCqlUabOnwYSTQiXBRTEg6wSsDXn4hGxgEvemjbrJyZrlaVStiv5Y5YpiXse+8QlYV4dl6XADdad4yBy7ubHgj7voI02ng/RDQyInwNtwQcYJVmvXUAUTlTdTjAom0yaQLOABD2E7PeGfacCjj9jKh8FKN6NYDV1h0+myxa5HcPbROBvm3dQFTelDOFEnCAVQIF1lg3EJUzB9pr3UDlY+3se3dRyPnWHWPg29M6m/nZIAqQ+mXuZgEusO4YA9/qakjvbR1B5UOV90NEIyEAr/lKwAFWCRx+YRONSFE4wKKtV/CqrwGwvXWHnwTySv/G2u9YdxDRP6rLttwL4PfWHT6LOo4ssI6g8uFIhNdyRCPg8X6oJBxglcCDcIBFNAJVToFf2LRV8g2L9wP0WOsOv3mi8z/08hcHrTuI6B8JRMVz5gPwrFt89umeZPsh1hFUHgrRYt66gaicRYSLYkrBAVYJqsTjzTdR6QpTdo2+YR1BwadQ0Yi3COH/XfVoIpN62DqCiN5drLP5KQA/tu7wmwALXtr9kRrrDgq+RM3OaxH+oS6RbwoOB1ilCPtNgS92zj63DsCAdQdRmVorbW7ROoKCrzfZfhQUB1p3+KwQ0ch86wgien9RZ/h8AKHeuFqhMybssOlU6w4KPll6cEGAtdYdRGXqnfpl7gbriHLEAVYJBK0egD9bdxCVIwVetm6g4Ouakx6vwFXWHX5TyC1Tc0c8a91BRO9vl46j1gr0ausO34lc/GrD4jrrDAo+hfJ+iKgk+pJ1QbniAKt0vAknKoEAL1o3UPBFCnI+gF2tO3y2AeJcbh1BRFtvYz9uAhD2G4/tqkT53URbQXhNR1QS4SyhRBxglUjCf/FC5Bde7NB76kneV6/AmdYdflPoRYnMEeutO4ho681c6Q6JyDnWHb4TPb43uThpnUHBxvshotKICj87JeIAq0Se8gubqCSqHGBaNEcZAAAgAElEQVTRexJEbwQwwbrDZ8/Fa3e+3TqCiLZdLNPyM0B/ad3hM8eDt0ihYh1CgfaCdQBROfLE4wqsEnGAVSJHdaV1A1GZ4sUOvauexsUHKNBi3eE3cXC6LD24YN1BRKVxHJwBIOyf4Tn5xvavWEdQcDka4UNJohJEEOEsoUQcYJUoOoAV4NGxRNtGsCk2nfvH0T+naHUg3kIAoX7ir8ADsY7Ur6w7iKh0dR3ucwBute7wneD6NfvcWWudQcG0y8RJfwKw2bqDqMwUBmrffsY6olxxgFWiKSvdTdx8jWibrZA2t2gdQcHUm/zI1wE0Wnf4bEgdOc86gohGrlAzdDGAsO9jlyiOG3+2dQQFkyw9uCAAb8SJtoXiuelLjx+wzihXHGCNzHLrAKJyoiqd1g0UTOtn3729Qi6z7vCbCm6o72jhHopEIbDbH766EYLQf29BcU5+1uLdrDMoqHhtR7RNRJ6yTihnHGCNhCgHWETbQjj0pX9usDjuUgBTrTt8tna8DF5rHUFEoye2m363AlagjNeod411BAWTiscBFtE2EHgrrBvKGQdYI+CoPmndQFROIoqcdQMFT9d+6d1V9CTrDr+pyLk7dhz9tnUHEY0eaXOLnuh8644xcGQ+ufgg6wgKHkWU13ZE26CoWGbdUM44wBqBgdq+DgB8f5Vo62yYmn32eesICp5IFIsA1Fh3+Kwznnn2LusIIhp9iYz7GICfW3f4TeEtVLTy3oH+Rny3wrMA3rTuICoLgk1rdSPfSBkB/hIagb9svpa17iAqBwosFbTy5E76Gz3JxZ9RlS9ad/hMxdP5/PknCq+iVzwDwKB1h89m5Zs+crx1BAXLlsN59PfWHURlQfXxxs4Th60zyhkHWCMkKr+zbiAqByJYat1AwaJzl0QBb6F1h99U5O5Yp/sH6w4i8s+unUe+AsUi6w7fqVz1SkP6A9YZFCwK+a11A1E5UAGHvSPEAdYIKTx+YRNtBa+oS60bKFh6Nq0/BcBM6w6f9TtF7yLrCCLyX3VN9RUC9Fp3+GzKuIhzoXUEBYvjOUusG4jKgQMufhkpDrBGyKvCHwD0W3cQBdzric7Us9YRFBxdc9KTRTT0gx0Fro51uqutO4jIfzs/ftg7qhL67zWontbddP8e1hkUHHWdz6wAsNG6gyjg3swXN/AQuBHiAGuE6pe5m0XBpw5E70GARwSi1h0UHFKUqwBMtu7wl3Q53ribrCuIaOzEcs/+SKFh3x+1WjRyvXUEBceWPR7lF9YdRMEmv+T+VyPHAdYoUMEj1g1EgabykHUCBUdvsn2mKL5m3eE3Ve+MWOchXKFLVEEErR4EpwEI+0ObQ/PJ9OetIyhAVHmtR/QeRL3/sm4IAw6wRoF4+rB1A1GADVbVVP3KOoKCw4MuABC17vCV4A/xXGqxdQYRjb1Exl0Gxf3WHX5TdW7KNdxaZd1BwTCg+gsAQ9YdRAHlOdXRX1pHhAEHWKMg1umuFuAZ6w6igFqy8+OHvWMdQcHQ3ZhuAfBZ6w6feSI6n6/NElUujTjnAOiz7vCV6F51kcnfsM6gYJjR6b4FKDeoJvrnOqY+ccQ664gw4ABrlHhAm3UDURAp9OfWDRQML+3+SI04crV1h99UcHusw+207iAiO4mO5m4owr9PlOKyfMO9O1lnUEAoHrROIAoigf7EuiEsOMAaJZ5XvNe6gSiAClVO4QHrCAqG8ZM3nQXF7tYdPnu7WrXVOoKI7HlVeh0Er1l3+GySOlWt1hEUDJHqaBpAwbqDKGC8YhTt1hFhwQHWKNm188hXAPCJO9Hf0F/s0nHUWusKstc1Jx0XyHnWHX5TldYpWXeNdQcR2atf5m6Gh9B/7wH4Rtfs9n2sI8jeX16R+o11B1HALK1f5vZYR4QFB1ijK/QbdhJtC4Vzt3UDBYMUnauhmGjd4SvBy29t9m6xziCi4IjnUvdXwL5AEcfTBdYRFAwCuce6gShIBMIZwSjiAGsUqePcD6Bo3UEUEG9r1OORyoTu2Ys/LqpHW3f4zfFw6syVLk9gIqK/pc58hP/68FP5pvZ/tY4ge85g/08h2GTdQRQQA8Wox1OpRxEHWKMo0dHcDeAX1h1EgaDSVr/M3WydQbYUKo56CwGIdYvPfl2XS/H7n4j+QTzXshwqP7Lu8JuneuOquT8cZ91BtqY+fWyfeOD+p0QAFGivX+ZusO4IEw6wRpvq7dYJREEgDv7TuoHs9TS1H6OK2dYdfhJgGKqnWHcQUXBFqp0LBHjLusNPAnywpq92vnUH2fMc5TUgEQDH01utG8KGA6xRFpuO/wKw2rqDyJIIOmKZlpx1B9laNzM9URRXW3f4TuU78Zz7gnUGEQXX1CeOWKeqV1p3+E1FLlw9676YdQfZSmTcZQB4HUiVTeX5us7U49YZYcMB1iiTNrcIhH+ZONF78YDvWjeQvaFaOR9A2G9kXh8sRC63jiCi4HtzMxYB8qJ1h68UEyPRqtAP6mgrqHzPOoHIkoh3q0DUuiNsOMDyQbEwfCsAbuRLleqN4Qmb0tYRZGtNU3q6KM6w7vCbQC+avuLwN607iCj4/nLIw1nWHf7T47oa003WFWTLq/LuA7DeuoPIyNubPfzIOiKMOMDywa7L5+UB8AhZqlDy/elLjx+wriBbBZUbAIR8M1/9Y900/MC6gojKRzzb8hCA/7bu8Jk4IgsVGvbDO+g91C9zN0PkDusOIiO3zeh0Q73voRUOsHwinlwHwLPuIBpjA8Oe3GwdQba6Zy8+WIAjrDv85qnM3/LaOBHR1pNI8QwBhq07fDanN9l+lHUE2apS7yYAPJGaKsqW7/cC74d8wgGWT2KdLX8SBY9Up8oi8v1pnc291hlkR1PpiHjFBdYdfhOgrT6XWmrdQUTlJ/bkkc8rEPr9gRS4ds0+d9Zad5CdKVl3jSh+bN1BNMbujWfndVlHhBUHWH4S5zrrBKKxIsCwFL3rrTvIVs+rOAGQj1l3+GxAIoVzrCOIqHwVaoZaAbxh3eGzuFcz/lzrCLLlOHodgIJ1B9EY8RyN3GAdEWYcYPkolm3+HYDHrDuIxoICd8c63dXWHWTntQPvmSSQb1t3+E2A6+uenPeqdQcRla/d/vDVjQAute7wmwJn9378vmnWHWRnasZdpSL3WXcQjZH01NwRz1pHhBkHWD5T0YusG4j8JsCw58jV1h1kKzJYcymAnaw7fNbjDG6+1jqCiMpfbJreCsXT1h0+G+cVo/zOrHDieVeCq7Ao/ApQbbWOCDsOsHyWyLjLRPQR6w4iPylwW31Hy0vWHWQn39D+YQf6LesOvwnkvKlPH9tn3UFE5U/a3KJGnPnWHWPA7U2mP2kdQXbiOfcFFZ7aS6F3VzznvmAdEXYcYI2FYuRiAGqdQeQLwaYq6BXWGWTLc/QmBaqsO/ylT9Zlm++xriCi8Eh0NC8B8FPrDr95kIWaSkesO8hONBq5BMA71h1EfhBgOAqH90NjgAOsMRDrbH4KwE+sO4j8IIoFU7LuGusOstPd1PZlAb5g3eEz9RSnCYQPI4hoVEXhnAVgwLrDZ/v2voqvWUeQnalPHLFOgEXWHUQ+uXmXbPOfrSMqAQdYY0Qd52wAfO2Ewub1GmeQJ21UsJUz09WiqICfAflxfc7NWFcQUfjskm3+swILrDv8ppArVu370x2sO8hOtF+vBbDWuoNolK0bHI5y9dUY4QBrjCQ6mrsBvc66g2g0ieCCHTuOftu6g+zsMEFOBbCndYevBJuKheELrTOIKLyq+/UqAHnrDp/tXBMtXmwdQXamrHQ3CYQ/AxQqIrhw+orD37TuqBQcYI0hL4rrAXnVuoNoNAiQqcusvMO6g+ys2f+BKQKE/qRVUVy16/J5Yb+xJCJDU1a6m1TkAusO34me0tOYDvdDD3pPddlnfwBgmXUH0ShZXreb/tA6opJwgDWG6pe5m0VxlnUH0SgoeBI5QdDqWYeQneJw8UoFPmDd4ScF/jxYuyn0r/YQkb14pvlOAUL9qrICVQK50bqD7AhaPaicBKBo3UI0Qh7UOUXaXP4sjyEOsMZYLNeyGBVw2gyFmwi+k8gc8UfrDrLTnUzvC+B46w6/OaJnTV96fNg3VyaiABCIeo5zGkJ+crUKvtTb2Bb2gz/oPcRzLcsB3GLdQTRC34vnmh+3jqg0HGAZKBYKJwvwlnUHUYm6q6qqL7WOIGuyEEDYj0R/LJZx+cCBiMZMoqP5SQXuse7wmye4Kddwa5V1B9kZ5wxejPDv+0ahJV3V1dXnW1dUIg6wDGzZS0XPse4gKoE6ihN2fvywd6xDyE5PMv0VAT5p3eGzoufI6dYRRFR5NKrnQbDJusNnH47J5JOsI8jOjh1Hvw3Vf0PIVxxSSKl3Mu+HbHCAZaQum7pdVJdYdxBtC1HcWpdL/cK6g+x0zUmPB5xrrDvGwK31HS1PW0cQUeWpX+b2qOJa6w6/qeDS3lnpna07yE485/4awPetO4i20T3xnPtz64hKxQGWEYGoF4kcC2CDdQvRVlpVVVPNlYMVzingbECnWXf4bKN4w3xNlojMDNduuqECTq7eQSPybesIshUZ3Hw6BC9bdxBtpW4vqqdaR1QyDrAMJTqau0XlBOsOoq3gOdDjuVS2snXNSccBCf0QUyCtsc6j3rDuIKLKNX3p8QMq4d9uQgUn5GenG6w7yM7Up4/tg+f8GwCebE1B53mKY+qXuVyAYogDLGN/OZXwh9YdRO9FgCvrsu5vrTvIllNwrgNQa93hK5Xn897671lnEBElMqk2AZZad/jMUZWFChXrELITzzU/roJK2J6AypgAV9XnUkutOyodB1gBUNWvpwJ4ybqD6F08VjdNL7OOIFvdTek5gM6z7vCbiHdGY+eJw9YdREQA4ElkPoCidYevFAf2Ni4+wjqDbMV300sU4MNSCih9sq52J94PBQAHWAEwZaW7yfO0GUCfdQvR31k77DlHS5sb7otnek+KVsdRWQgg5E/I9aFY1v1v6woior9KZI74o0J+YN3hNxW9Kd/w0ATrDrIjbW6xyhn+igC91i1Ef2e9EynOk6UHF6xDiAOswKjvdJ8R4FjwKFkKjqICX53W2cwLiQqXT848ToEm6w6fDal4Z1lHEBH9vUjBuwjAm9YdPtvVi2w+3TqCbO3ScdTaouIohH3VIZWTgqdoqXty3qvWIbQFB1gBEsumHhDgJusOIgBQ0XMS2dSj1h1k6/UDHtxOgCutO3wnsiiROfJF6wwior9Xt9x9XUUvt+7wm6hckG9I72rdQbbqc6mlEFxg3UEEAAI9i/teBQsHWAFTV7vTeQAes+6givf9RMblMJUwNDR0oQJ11h0+WzdQ9MI/pCOisrWmuPE7AF6w7vDZBC/iXGEdQfbimdR1gPzIuoMqmwJ3x7LuIusO+lscYAWMLD24MODpEQI8Y91CFev3b/brSdYRZG9tcvEHAcy37vCd6AUzOt23rDOIiN5NY+eJw1A9xbrDb6J6dL4hfaB1B9nr9dafIKpLrDuoYv1+uHbT/7OOoH/EAVYAzeh035JI4VAAa6xbqOKscgraPHOlO2QdQvYK4t0EoMa6w2fLY7vhR9YRRETvJ55zf63AL6w7fCbqyEJFK+9RKlxj54nDnhNNgSe101gTvOwUtHn60uMHrFPoH/GXQ0DVPTnvVXH0yxBssm6hirFOpfj5uuXu69YhZK+7Kf0pKA6z7vCbwJnPUzaJqFxoUU8FEPaHTA09TTOPto4ge4nMEeuheggAXpvSWFkbgf4L74eCiwOsAIt1uJ2eJ18RYNi6hULvTYV+jptYEwBoKh1xVBZad4yB+2PZ5t9ZRxARba36p9yXRXCLdYffRHHd+tl3b2/dQfbiOfcF8ZzPC8BX/clfgk0i8uWpGXeVdQq9Ow6wAq4+1/IIVOYBKFi3UGhtFjiHJbLuCusQCob8KnxTgb2tO3y2WQrOedYRRETbqkYGWxH+bSZ22aw151pHUDDEOpuf8kS/AKDPuoVCa7OKc2gs05KzDqH3xgFWGYjlWhar4GsAPOsWChcBhj2VFq5Cob967cB7JkHkUusO3wmuiy1vfs06g4hoW+3YcfTbqmi17vCbKM7q2i+9u3UHBUMi4y6D6uEI/yu0NPaGPJWWREczDw0oAxxglYlEJnUngK+DQywaPUMQ/Up9ruUR6xAKjuhQzbcB7GTd4bPuyMDm660jiIhKFc+tvB1Ap3WHz6olgmusIyg44jn31ypoBjBo3UKhMQRIC++HygcHWGUknk39UKEng0MsGrkBR/GvsYz7U+sQCo78x+/fS1RPtO7wnco5U58+lq8hEFHZErR6UOc0AGrd4ieBNPc0pj9r3UHBkcikHlZBCzjEopEbhMKNZ1sesg6hrccBVplJZN3viegx3NidRqAfqofW5VJhP4qbtpEWnQUKVFl3+GxZLNd8v3UEEdFIxXPNj4tgsXWH70QW6NwlUesMCo5EJvWwp/g8T2unEegTB4fGc6kHrUNo23CAVYZiGfdehTQDGLBuofIiwFsC5wvxnPtr6xYKlp7GtsMA+Zx1h888B85pAgn1igUiqhyqhTMA9Ft3+GxmT9/r/886goKlPpdaquIcCuAd6xYqOxvVcT4T60j9yjqEth0HWGUqnm15SOB8DsDb1i1UNvIedC43bKe/t3Jmuhoi11l3+E7wo7psc9Y6g4hotMSz87oEuMm6w28CuaK76YEdrTsoWBIdzUsUehCAvHULlY01niNzEx3NT1qHUGk4wCpjsWzz71QiBwHSZd1CAad4Wh1ndiLrrrBOoeDZoVZOB3QP6w6fvTNcdC6yjiAiGnXeuKsBrLbO8NlkaJHf4fQPEll3RbFQSALgNS69J4U+60QKc+o7Wp62bqHScYBV5hKZI/4o3tB+EPzBuoUC67EB1YMSHc3d1iEUPGv2f2CKKM637vCd4Ippnc291hlERKMt1nlIv0AutO7wmwAnr2l84KPWHRQ8uy6fl6+urj4I0F9at1BAKX416OHAuifnvWqdQiPDAVYIxDqPeqN/Q+1nFLjbuoWCRSG3vdmvX5jR6b5l3ULBVCwUr1bgA9YdfhLIK/0bahdZdxAR+aUu23xPBTzMjBalsMA6goJp58cPeydWu/OXAVxr3ULBopDbYhN3+hLvh8JBrANo9ChUepLtFwrQCiBi3UOmBlTkG4lMy4+tQyi4ehrbZ0E0h7A/zFA9LJ5zf26dQUTkp/zsdIN6kkHIv9NVcEgik3rYuoOCq6ex/d8heguAcdYtZGpAoKfFsu5t1iE0ekL9C67SCEQT2dQVnuIzAvBVmcrV7al+ksMrei8KFYguQvh/DzzK4RURVYJYh9spwF3WHX5zVBa+tPsjNdYdFFzxXMsdUNkfkFetW8jMas+TuRxehU/Yb1wqUn0utXTIcxoU+K11C425h52C7lefczPWIRRsvU1t8wB8wrrDZ0XP09OtI4iIxkrEGT4XIT+hWqEzxk/qO9m6g4ItnmtZHqlyZovoI9YtNOZ+XqgZ2re+s6XDOoRGH18hDDFNpSO9r0qrAueDrxSG3WaonB3LNX9XIGodQ8HWNSc93inK81DsZt3iK8V34rnUqdYZRERjKZ9sO1+Bq6w7fPZOFXSPKVl3jXUIBZtCpTe5+BSFXgu+Uhh2gwAuimVbbuT9UHhxBVaISZtbjGVTF3ueHADgBese8s1zKpE58VzLLfyypq3hFJzzQj+8AjaqE7nMOoKIaKxt7NcbAbxk3eGz7YYh37aOoOATiMayLTc7jjYA+kfrHvKHQp+Fypx4NnUD74fCjQOsClDf2dIh3rj9oPgOAH6gw6OgwNVDtZsaEpkj+AuZtkr37MUJQM+07vCdysWJzBHrrTOIiMbazJXukADnWXeMga/lm9obrSOoPNR1uM95UcyB4joABeseGjVFQK55qx8N8VzLcusY8h9fIaww3U3pTznq3KbQGdYtNBL6lAJfS2TdFdYlVF56ku33A/oV6w6fPRer3eljsvRgXqASUcXqaWz7JQT/Yt3hsydi2ZYDueKCtsVfTuz8PoB9rVtoRP4E4GvxbOoJ6xAaO1yBVWESGfexYtTbG1uWXQ9a99A22wzBubHanWdzeEXbqifZtj+grnWH38TB6RxeEVGlcyJ6OsK/0mT/nuTilHUElZdYh9vZ621oEsWFAAase2ibbVbg4jf79WMcXlUersCqYKsb7p/hOJHvCPAF6xbaKg9HRE+dmnFXWYdQ+VG0OvnkzA4A4X7dQvVn8Zx7uHUGEVEQ5JPt31XoN607/CVd4tV8ONZ5SL91CZWfnuR99SpVV4rqMdYt9P5EdYkC34znXO7vXKE4wCJ0N6ZbHHGu4WuFgbXCgc6vy7q/tQ6h8pVvavu6Km637vDZkOfIR+s7WsK+eTER0VbpmpOe7BTkRQA7Wrf4Sy+NZ11u6k4l27LNiixUYG/rFvpHAnnFU++8RM5tt24hW3yFkJDIue0b+72PQPUUAOuse+h/dAv0xNg0beTwikbi9QMe3A6KCriwl5s4vCIi+l/1y9wNAr3cusN/cl5+1uKwn65LPkpk3MfqanfaT0W+CSBv3UP/Yx1UT8l76/fi8IoArsCiv/P6AQ9uNzQ0fBZEz4BionVPhVqnKtcMT3zne9OXHs/38mnEepJt1wM4y7rDZ2vHOYN77Nhx9NvWIUREQaJzl0R7+l5fLpCPWrf4S+6NZ1u+al1B5a9rTnq8FORbApwLYGfrnook2ATgxqo+vWHKSneTdQ4FBwdY9E/lG+7dCU7VaQqcDGAH654KsV4UN0U36838oqbRsrrh/hkRJ7ISQI11i58Uenwi6/7IuoOIKIi6k22fFuA31h0+UxF8MpZJ/d46hMLh9QMe3G5waOg0AU4HMNm6p0JsFOA/4A3fHOs86g3rGAoeDrDoPa2bmZ5YmICvKeQcADHrnpBaJdBFzuDA96c+fWyfdQyFS0+y7SEAX7bu8Jc+Fcs+lxS0etYlRERBxd8HRKVZs8+dtV7NuK8qnDMB3cO6J6Reh+C7Q0PRhdNXHP6mdQwFFwdYtFXyDQ9N8CKDxzqq3+LmhqNDoVnAuSE+zVssbW7RuofCh0/ciYjoryplRS6Af49nUz+0jqDw0blLovlNb7RAcCbCfqrzWFE8LaK3FKO4q36Zu9k6h4KPAyzaZvnZ6QZPndMc1SMVqLLuKTMDAjykcG6LZ5vDPlggQ5Wz5wnuiWdTR1tHEBGVg0rZE3HA0z1ndLpvWYdQeOVnpxs8zzlBRI/ivsHbbEiABxXObbHsEY8KRK2DqHxwgEUle7VhcV1VxDtGVY+pgJvkEVFoFuLcUVNVdc/Ojx/2jnUPhV8+mT5NIQutO3y2WTz9cKzTXW0dQkRUDl4/4MHthoeGXlCgzrrFZ9fGs6nzrCMo/NbPvnv7zV71VwXy7+CqrPemeBrQu6ORwp27dBy11jqHyhMHWDQqepPtMz3RFFSOA3SadU9APAdBGzy9L55zX7COocrRNSc92SnIiwB2tG7xkwKXJLKpCjgenoho9OSb2r6uitutO3w25Dny0fqOlpesQ6hy5Gct3g3R4r/q/2fvzgPsquu7j3++585MyALKImSWsCjYlrjhLBHBFuxOS1GSuQWhWlotrUtJwr4Ig+wYYXBrsfWhpQh4Z4IPUqlWK9gHDZkFrBpsFWXJLAHZRLJN5p7v84e1rZUly/zme++579d//BPe/8y953zOuefI3iXpsOieGjEhadAyv7FtbXk0Ogb1jwELM8p7K6XJH+pwNztWpj+Q9MvRTbPIJY3K9IW86qsXjZa/HR2ExjTRPfhJl/9FdEdatt7yOb/cNnrspugSAKgnrr5svPvQe03WHd2SlPv/bR8pvz06A41prOe215vnx0v+e5LeqEY673b7rsw/L8/uaBv59hpeqoCZ1Dh/SAixfsngIVnux8n1mzIdIWl+dNMMe9rlXzXP7my2/M59h8sbooPQ2CaXVA7Nc/s3SU3RLSm57A87hpdVojsAoB6Ndw+8WdI9Kvi5gJn9TtvQsi9Fd6Cx/fSxK9Vj3O0Yk46WtGd004wyPSfXPW7+ZZ/W5xfdV34wOgnFVegvLdSWkc7rm1uzvbolXSLprdE9u8ztA20j3/kkVxVQS8a7Br4k029Fd6TlX28b7n0LD/0EgJ033j14q+R/GN2R2AOT+VNv6Bo9dVt0CCD99A7IiZ7Xvk+efzS6ZQb8i5t/sH3eK4bt7qOno2PQGLLoADSOrtFTt7UP935DpmK87t70COMVaslE98DxxR+vlJtlyxmvAGDXeGZnSNoY3ZHYoa2256nREcDPmPpyuT8c3TEjTPd0DJXXMF5hNjFgAUABrFtcaXHpyuiOWfDptqFlI9ERAFDvOtYuHZNpVXRHcmYfGuu5rdAvNQGARsGABQAFsOdcO0PSIdEdif2kWX5hdAQAFEVe8qtkeiS6I7E9La9eFB0BANh1DFgAUOceW3Lzfm46O7ojNZcu5kUJADBzFq0pb1Zu50Z3JGd67/rOymujMwAAu4YBCwDqXDVvvkrSHtEdSZke3Pz0/I9HZwBA0bSNLL1VKsjzSV9YKcusPzoCALBrGLAAoI5NLKl0uvRH0R2puXz5IQ8eszW6AwCKxmQut9MkFf3FNG8d7xo4LjoCALDzGLAAoE653NytX4X/LPevdAyVvxBdAQBF1T6y7H6Z/i66IzU3XfP9g++cE90BANg5BT/pAYDimuwaOFmuI6M7EpsuedOK6AgAKLpSU+lck34c3ZGSSa+ct9fG06I7AAA7hwELAOrQROcd89zs0uiO1Fz6+MKR478T3QEARbfwG8c/7qbLozuSc13wcOfq1ugMAMCOY8ACgHqUbTlX0v7RGYk9JSsVfqQDgFrxzEbvl+x70R2J7d5cyvluAYA6xIAFAHVmvPuWRS6tjO5Izc3O7xg6/snoDgBoFIvXlafkflZ0R3KuP17fVQfzoYEAACAASURBVOmJzgAA7BgGLACoM2ZN10iaF92R2Lr2eXv/bXQEADSa9pHe2yX/UnRHYllm1u9yiw4BAGw/BiwAqCMTnZUj3bU0uiM59xV299HT0RkA0IislK8waVt0R2KHT3StPiE6AgCw/RiwAKBOuPoyz6xfUqGvGLt8dftI+cvRHQDQqNruPeG7bnZ9dEdy5ldveN2N86MzAADbhwELAOrEeNfi90jqjO5IbKtXdU50BAA0uumWrRdKeiK6I7GO6m5zz4yOAABsHwYsAKgDTy65aQ8z9UV3pGZuqxbdV34wugMAGt0B95z0tNwvju5IznXW5JtuOTA6AwDw0hiwAKAObPU5fZIWRncktmFOacvV0REAgJ9qO0h/ZdK3ozsSm5tXm6+MjgAAvDQGLACocevfWDnYXe+L7kjN3M/ae+3Jz0Z3AAB+ygbK1dx8eXRHev6HE92rfzW6AgDw4hiwAKDGWck+KqkluiOx0daRBz4THQEA+HkdQ+WvynR7dEdqrrzfeyul6A4AwAtjwAKAGra+a/AYk343uiMxt9yXm/ry6BAAwC9q8mylpK3RHYkdNvmInRIdAQB4YQxYAFCjRjqvb87Mr4nuSM1c/9A2Wr4nugMA8Pz2G176Q0n90R2pueuyH3RWXhbdAQB4fgxYAFCjFpb2/ICkX4ruSGyT2/QF0REAgBfX0tJymUmT0R2J7btbZnwnAUCNYsACgBo0eVjlFeb2weiO1Mx1WfvwieujOwAAL+4VXz/uJy6dH90xC/5yrOfWV0dHAAB+EQMWANSgalN2qaSXR3ck9tDWBc8V/ieSAFAUbcPr/t6koeiOxFrMs1XREQCAX8SABQA1Zqzntteb/E+jO1IztzMPuvuULdEdAIDtY+rLc/Plkjy6JS07dqK78jvRFQCAn8eABQA1JvNqv6RCv8rb3O9qG1m2OroDALBjOobKayS7JbojNffsmpHO65ujOwAA/40BCwBqyFjPQK9LR0V3JFbNs6YV0REAgJ2TN+VnSdoY3ZGU+a+0ZXu+NzoDAPDfGLAAoEY8dNQNu5nb1dEdqZnrbzqGjv+36A4AwM5ZtKY8Lnnhv69cdtFE5837RHcAAH6KAQsAakTzxgVnSn5gdEdiz1jVL4yOAADsmrxJH5bs4eiOxPb0rPni6AgAwE8xYAFADVh/eKXdpLOjO1Iz18Wt95d/FN0BANg1i9aUN3sDfG9JOnX9ksHXRUcAABiwAKAm2LRdKWl+dEdi/z7hT30iOgIAMDM6hpdVXPpadEdipVI174+OAAAwYAFAuLElq99k0knRHallrpVdo6dui+4AAMwkXy6pGl2RkpsdPdE9cHx0BwA0OgYsAAjkcsvy/DpJFt2Skrm+0DrS+0/RHQCAmdUxXP6mpP8T3ZGaS6seOuqG3aI7AKCRMWABQKDx7oF3udQT3ZGSSdtcfnp0BwAgjVJz6QJJz0R3JHbQnI0LVkRHAEAjY8ACgCCPL64sMNll0R2z4KPtI+X/iI4AAKSx8BvHP+7SpdEdqbnpvEcPu6UtugMAGhUDFgAEmZpn50kq+oHw41u3NRX+pAYAGt2PN/nHJBX7YoVrQVNT0+XRGQDQqBiwACDAY92rX2lS4X+KYLILDvrm24v+sxIAaHiL15Wn3HRGdEdqLr1zfefgkugOAGhEDFgAEGBa+SpJRX8Y7DdbD8wL/2BfAMBPdQz1/qNLRX9hh2VZ3u/yQr98BQBqEQMWAMyysZ7KWyW9PbojtUy+3AbKhX61OgDg52W5rTRpW3RHWvamye7VJ0VXAECjYcACgFnkvZWS5XZtdMcsqLQOl78WHQEAmF1to8v+PZd9MrojNZdf+fjiyoLoDgBoJAxYADCLJh62U2V6XXRHYpuz0vTZ0REAgBjVOVsvlvREdEdi7dPzjO86AJhFDFgAMEseOfIze0q6OLojPftw670nPhxdAQCIccA9Jz3t8gujO1Jz6YwNPZWDojsAoFEwYAHALGna2tInaZ/ojsTGS1s3XR0dAQCI1X6gPiX5v0V3JLZbLuM7DwBmCQMWAMyCiTfd+ism/UV0R2omnb3wW+/cGN0BAIhlA+WqZ6UV0R2puWvZ+q6Bo6I7AKARMGABwCzwaukal5qjOxJb0zq87OboCABAbehYu/Qul26L7kgtM+/33kopugMAio4BCwASG+8ePFbS70R3JJbn7stN5tEhAIDa0WR+hqQt0R1p2evHH7J3R1cAQNExYAFAQusWV1okrYrumAV/v2ikPBQdAQCoLQuHyg+56ZrojtTMdPn6wyt7RXcAQJExYAFAQi+fq9Mkf3V0R1Km57bl2fnRGQCA2tSy0a+QNBHdkdhepapdEB0BAEXGgAUAiWx48237mlnhhx1zv+zA0aWT0R0AgNq077ryc246N7ojNXd9YLJ7cHF0BwAUFQMWACRSncovd+ll0R0pufTDrfM39kd3AABqW/vQsn8w09rojsSacvm10REAUFQMWACQwHjX4GEyPyW6I7XM7PSD7j6l4A/nBQDsKpO5zN8nKY9uSew313cNHhMdAQBFxIAFAClY3q/if8Z+tW1o2f+NjgAA1Ie2teVRN/tMdEdqWebXff/gO+dEdwBA0RT95AoAZt1418AJkv1qdEdi1Tz35dERAID60uL5WZKeje5IynXw3Jdvem90BgAUDQMWAMyg9YdX5irTldEds+CvF42Wvx0dAQCoL/sOlze4+dXRHamZed/j3ZWF0R0AUCQMWAAwg7KqnS3XAdEdiT1t+ba+6AgAQH3a/NSCVTI9GN2R2B5TZn3REQBQJAxYADBDxpas7pDrjOiO5EwXtY2+44noDABAfTrkwWO2eu7nRnekZq73TCypdEZ3AEBRMGABwAyxan61pPnRHUm5fXey+tRfR2cAAOpbx0h5UNKXozsSyzzXdS636BAAKAIGLACYAWM9lcNlOiG6IzXLtKJr9NRt0R0AgPqXyVZImo7uSMuOGO8ZXBZdAQBFwIAFALvI1ZfJdZ2kol9h/Xzb0LIvRUcAAIqhdXjZOnP9bXRHaub2kYnOO+ZFdwBAvWPAAoBdNNFz6Ckm647uSGzKrXpmdAQAoFiqzX6+pCejO9LyRXm2ZWV0BQDUOwYsANgFPzri9t3N7ZLojuRc/R1DJ3wvOgMAUCyL1pSfMtel0R2pmXTuRGdl/+gOAKhnDFgAsAumtk5d4FJrdEdij29xvzw6AgBQTK0L9vm4pHXRHYnNyzO7LDoCAOoZAxYA7KRHO299lUynRXck53buq0bLP47OAAAUk9199LSULY/uSM2kkyY6K0dGdwBAvWLAAoCdVMpK10iaE92R2P1tI9/5u+gIAECxtQ8v/Yq5vhDdkZh5putcfZyDAcBO4MMTAHbCWPfAr0v6g+iO1EzZclNfHt0BACi+au7LJW2N7kjL3jje85o/iq4AgHrEgAUAO8h7K6VMuja6IznXLW3DS/81OgMA0BgW3Vd+0Nw+Ed2Rmrlf9eSSm/aI7gCAesOABQA7aOIRe69Lr43uSGyzVbNzoyMAAI1lTmnLxZI2RHcktt/mfM450REAUG8YsABgBzxy5Gf2lOui6I7kXFe13b/0kegMAEBj2Xvtyc+avPDfsyadvn7J4CHRHQBQTxiwAGAHNG1tuUTS3tEdiY2Vpjavio4AADSm1uEH/lbSSHRHYi1Z7ldFRwBAPWHAAoDtNLmkcqikU6M7knOdufBb79wYnQEAaEymvlyeLZfk0S2JvX1iycBvRUcAQL1gwAKA7ZRX7VpJTdEdiX2jbWTZZ6MjAACNrX1k6ddNGozuSM1zXetH3VX0YwsAmBEMWACwHSZ6Bt8mU9GvkuaZsuUmK/oVbwBAHXBNny5pU3RHYodObHziz6IjAKAeMGABwEtYt7jS4u5XR3fMgv/TOrx0ODoCAABJah8+cb1JH4numAWXjPXcVvTnawLALmPAAoCXsOc8rZRU9DcF/WRbnl0YHQEAwP9UbfIrJD0a3ZHYXuZVvoMB4CUwYAHAi3hsyc37uezc6I7k3C85cHTpZHQGAAD/06I15c0mnRfdMQveu6HrttdERwBALWPAAoAXMZ23XClpj+iOlEz2g03PLPhodAcAAM+ndXjZzTLdE92RWFPVqv3REQBQyxiwAOAFTHSufqPk74zuSM2lFYc8eMzW6A4AAJ6Pydyq2WmS8uiWxH59vHvw2OgIAKhVDFgA8Dxcbp7l/Sr+5+S/tA8vuyM6AgCAF9M2uvQ+yW6M7kjNpGu/f/Cdc6I7AKAWFf3EDAB2ymT34DskvSW6I7HpkpeWR0cAALA9mrKpcyQ9G92RkstfNW/PjR+I7gCAWsSABQD/y/rDK3Ndujy6YxZ8cuHI8d+JjgAAYHvst/Ydj5n8iuiOWXDhw52rW6MjAKDWMGABwP9SmrZzJe0f3ZHYU26lD0VHAACwI57epGskfT+6I7Hdm7Oc72gA+F8YsADgfxjvvmWRS6dHd8yCD3YMHf9kdAQAADti8brylJmfHd0xC/5ksnt1d3QEANQSBiwA+DlNqyTNi65I7IG2+ft8KjoCAICd0TZU/pxc/xzdkViWK+93uUWHAECtYMACgP803rX6CEm90R2pWaYVdvfR09EdAADsrKzkKyQV/bvszRPdA+XoCACoFQxYACDJ1ZfJ8n5JRb/S+bm2tb1Fv2oNACi41rXlByRdH92Rnq3a8Lob50dXAEAtYMACAEmT3Ye+W1JXdEdiU3lmjfDcEABAA5ieM/VBSUV/nmNHtWXuGdERAFALGLAANLwfHXH77i67OLojNZc+smjtsqK/uQkA0CAOuOekp01W/Lf1mc6eOGz1AdEZABCNAQtAw9s2NXWRpIXRHYk9NjfbemV0BAAAM6l1/t6fNOnb0R2JzfVSfkV0BABEY8AC0NDWv7FysEvvj+5Izc3O3nvtyc9GdwAAMJPs7qOnc2lFdEdyphMnegbeEp0BAJEYsAA0tFJm/ZLmRHek5fe1D33nH6IrAABIoWO4918kfT66IzV3Xefq4/wNQMPiAxBAwxrvXv0bbvq96I7E3HKdZurLo0MAAEilmldXStoa3ZHYYRNdr/nj6AgAiMKABaAh+VF3NUl5f3RHai59pm20fE90BwAAKe0/esIPZPbR6I7kzK/4QWflZdEZABCBAQtAQ5p87on3S1oc3ZHYpiz386MjAACYDS3NzZeYNBndkdi+u5mdFx0BABEYsAA0nPWHV/Zy0wXRHam5dEXbaPnR6A4AAGbDK75+3E/c/IPRHcmZlo/13Prq6AwAmG0MWAAaTmmbXSZp7+iOtGx9lu92TXQFAACzqW3ogRtcPhzdkViLeenD0REAMNsYsAA0lMnuwcVuend0R2pufnrb6LGbojsAAJhNpr5cptMkeXRLYn8w0TP429ERADCbGLAANJRcfq2kpuiOtPzr7UPLBqMrAACI0DFUXiPps9EdqXmua0c6r2+O7gCA2cKABaBhTHQNLpX0m9EdieWW6TSTFf3KMwAAL8iz7ExJG6M7kjL/ldbSXn8enQEAs4UBC0BD+P7Bd87xzK+M7kjNTX/TtrY8Gt0BAECkjrVLx2RaFd2RnOviic6b94nOAIDZwIAFoCHM3eu5M+Q6OLojsWdb3PuiIwAAqAV5ya+S6ZHojsT29Ky5LzoCAGYDAxaAwnu8u7LQ3M6K7kjNzS/ed7i8IboDAIBasGhNebNynRPdMQv+fH1n5bXREQCQGgMWgMKbsuxqSXtEdyRlenDzUws+EZ0BAEAtaR/pvVXyf43uSKyUZdYfHQEAqTFgASi0iSWVTnM/KbojtTy30w558Jit0R0AANQcz5ZLyqMzEnvrRM/g26IjACAlBiwAheVy81zXqfifdV9eNLLszugIAABqUfvIsvvldkN0R2q5+0ceOuqG3aI7ACCVop/UAWhg4z2DfyTZEdEdiU1nshXREQAA1LJSS3aeST+O7kjJpFe2bFpwWnQHAKTCgAWgkB5fXFlgriuiO1Iz08dah5eti+4AAKCWLfzG8Y+7+2XRHcm5zn+4c3VrdAYApMCABaCQpubbuZLaojsSe6pa8kujIwAAqAfPbNZ1kn0vuiOx3ZuzvPhDHYCGxIAFoHA29FQOMtfK6I7U3HXeojXlp6I7AACoB4vXlafk+ZnRHbPgXeu7Kj3REQAw0xiwABTOtOvDkor+ENN17Qv2+XR0BAAA9aR9pPx5SV+M7kgsy8z6XW7RIQAwkxiwABTK2JLVR5tsaXRHarnr/Xb30dPRHQAA1BsrVVeatC26I7HDJ3sGToyOAICZxIAFoDC8t1KyvHptdEdqZhpcNNJ7d3QHAAD1qO3eE77r0l9Fd6TmbldveN2N86M7AGCmMGABKIzxh/Vnkr0+uiOxLZn8rOgIAADq2fScqT5JT0R3JNZenTOPYwYAhcGABaAQHnrD515usg9Fd6Rm0qqFQ+WHojsAAKhnB9xz0tNy64vuSM/PnHzTLQdGVwDATGDAAlAIzc3TF0naJ7ojsfGmTX5VdAQAAEXQdlD+13J9K7ojsbl5tYljBwCFwIAFoO5NdA7+cia9L7ojNZOds++68nPRHQAAFIENlKue+YrojllQnuyu/Fp0BADsKgYsAHUvz/wal5qjO9Lye1uHl34mugIAgCLpGCp/VdLnojtSy2X93lspRXcAwK5gwAJQ18Z6Bn7fpN+N7kjM8zxbbjKPDgEAoGialJ0haUt0R2JvmHw4+5PoCADYFQxYAOrWSOf1zeZaFd2Rmkk3Lhpdtja6AwCAItpveOkPJeuP7kjN5Zc+9IbPvTy6AwB2FgMWgLq1MNvrLyX9UnRHUqbnpqenz4vOAACgyJo35ZdJmojuSGzfOc3TF0RHAMDOYsACUJc2vPm2fU0q/EGYuS7f//4Ti35ADQBAqH3XlZ9z+fnRHbPgL8e7KsW++AegsBiwANSl6rbqpZKKfhv8Q1vnP3dtdAQAAI2gfbj3700aiu5IyaVmmRX+8QsAiokBC0DdGeuuvEFS4R9EatIZB919StEfKgsAQE0wmedZdpqkor805fcnuwaK/gIcAAXEgAWgDlm/pEK/Ctrc72ob7r0tugMAgEbSsXbpvZJuju5ILTddM9J5fXN0BwDsCAYsAHVlrHuwbNKvRXckVq2WsuXREQAANKK8yc+WtDG6I7FfbrO93hcdAQA7ggELQN1Yf3hlrklXRXfMgusXrV32regIAAAa0aI15XFvgOMNN1000XnzPtEdALC9GLAA1I1sWmdKfmB0R2JPW77tougIAAAa2bb5z31YsoejOxJ7ubKWD0VHAMD2YsACUBfWH15pl+ys6I7UTH5x2+g7nojuAACgkR109ylb3Lzwxx0u/7OxntteH90BANuDAQtAXcims6slzY/uSMrtuxP505+MzgAAAFLHUO+AS1+L7kislOXT10ZHAMD2YMACUPPGeiqHS35idEdqZvnKrtFTt0V3AACAn/HlkqrRFSm52dETXYNLozsA4KUwYAGoaa6+LHPrl2TRLWn5HW3D5S9GVwAAgP/WMVz+pss+Hd2Rmpt/+KGjbtgtugMAXgwDFoCaNtG9+F0u9UR3JDbllp8RHQEAAH5RaTq/QNIz0R2JHTTnuQUroyMA4MUwYAGoWT864vbdTbosumMWfLRj6ITvRUcAAIBf1Hp/+Udufkl0R2qe6dxHD7ulLboDAF4IAxaAmjU1NXW+S63RHYk9viX3S6MjAADAC9tQffpjkv4juiMp14KmUtMV0RkA8EIYsADUpMe6V79S0mnRHamZ6fxXjZZ/HN0BAABeWNfoqdvc/PTojtTc9EcTnZUjozsA4PkwYAGoSdNe/Yikoj9M9P7WA/yG6AgAAPDSOobKX3Dpn6I7EjPPrN/Vx3kigJrDBxOAmjPWU3mrzN4W3ZGaKVtuA+VCv5obAIAiyXJbadK26I7EOie7Dj0pOgIA/jcGLAA1xXsrpcytP7ojPfts2/DSf42uAAAA269tdNm/y/Tx6I7U3OzqJ5fctEd0BwD8TwxYAGrKxEPZn7v02uiOxDZnpW3nREcAAIAdN8e29kl6LLojsYVbq7udFR0BAP8TAxaAmvHIkZ/ZU+Z90R3Jma5uvffEh6MzAADAjtt77cnPullfdEdqbn7G+jdWDo7uAICfYcACUDOatrRcLGmf6I7ExkpbNn84OgIAAOy89qHvfErSaHRHYnOspCujIwDgZxiwANSEiTfd+itm+vPojuTczlr4rXdujM4AAAA7z9SXW+7LJXl0S0omWzreVfnN6A4AkBiwANQIr2bXutQc3ZHYmraRpbdGRwAAgF3XNlq+x0yrozuSM7vWj7qrKToDABiwAIQb7xo4TrLfju5ILM/dl5us0FdqAQBoJO7TKyVtiu5IbPH4piffHR0BAAxYAEKtW1xpkdnV0R3Jmf5u0Uh5KDoDAADMnPbhE9eb27XRHamZ+2VjPbftHd0BoLExYAEI9fL5tlzyV0d3JPaTbdXsgugIAACQgM+5XNKj0RmJ7SWvciwDIBQDFoAwG958277mOi+6IznTpQeOLp2MzgAAADOvbfTYTeZe+HHHpPdPdg8uju4A0LgYsACEqU5Xr3DpZdEdKbn0w01Pzb8uugMAAKTTOtJ7k0z3RHck1pQr74+OANC4GLAAhBjvGjxMrj+O7kjNXCsPefCYrdEdAAAgHZO5mS+XlEe3pGW/MdZT+b3oCgCNiQELQAzz61T8z6Cvto/03h4dAQAA0mtbWx41103RHamZrP/7B985J7oDQOMp+skjgBo03jV4oqS3RHckVs1zXx4dAQAAZk+ptO0sSc9GdyTlOnjunhvfH50BoPEwYAGYVesPr8xV5ldEdyRn9leLRsvfjs4AAACzZ7+173jMXFdFd6Rm0kWPd1cWRncAaCwMWABmVVa1s+U6ILojsaetOnVxdAQAAJh9T2/2VZK+H92R2O5TyjjWATCrGLAAzJqxJas75DojuiM59wvbRt/xRHQGAACYfYvXladMOie6IzWTv3uiZ7ArugNA42DAAjBrLPdVkuZHdyT2wKQ/fX10BAAAiNM23HubpC9HdySWuef9LrfoEACNgQELwKwY7x54s+Tl6I7UzGxl1+ip26I7AABArEy2QtJ0dEdadsR49+re6AoAjYEBC0Byrr7M5f2Sin2FznR729CyL0VnAACAeK3Dy9aZ7G+iO1IzadVE5x3zojsAFB8DFoDkJnsW/4nJuqM7EptyVc+KjgAAALWj2pRfIOnJ6I60fFGebTk9ugJA8TFgAUjqR0fcvrtcH4rumAXXdgyd8L3oCAAAUDsWrSk/ZfJLojtSM+ncic7K/tEdAIqNAQtAUlNTUxe61BrdkdhjW3K/IjoCAADUntb5r/iEy78T3ZHYXM/s8ugIAMXGgAUgmUc7b32VpA9Ed8yCc181Wv5xdAQAAKg9dvfR06bSiuiOWfCOiZ6Bt0RHACguBiwAyZSy7FpJc6I70vL72obX/X10BQAAqF3tw0u/IukfozsSM3fvd/VxjgkgCT5cACQx1j3w65IdG92RmJvZclNfHh0CAABqWzWvLpe0NbojLXvjePeh74yuAFBMDFgAZpwfdVeT5P3RHenZLW1Dvf8vugIAANS+/UdP+IGkj0V3pGayK59cctMe0R0AiocBC8CMm9z45HtN9projsQ227SdFx0BAADqR0tLy4ckbYjuSGy/Lflu50ZHACgeBiwAM2r94ZW9XH5hdEd6fmXb/Usfia4AAAD14xVfP+4nJmuE46SV65cMHhJdAaBYGLAAzKhs2i6RtHd0R1q23vK5q6IrAABA/Wkd/s6nJY1EdyTWklXzq6MjABQLAxaAGTO5pHKopD+L7kjNpTPaRo/dFN0BAADqz3++/OU0SR7dkpTZ2yaWDPxWdAaA4mDAAjBj8qpdK6kpuiOxb7QPLx2IjgAAAPWrfbj3G5JVojtS81zX/vTlPgCw6xiwAMyIiZ7K22Uq+lW23MxOM1mxr5gCAIDkPLMzJBX9ju5DJ5578tToCADFwIAFYJetW1xpcberojtmwafbhpYV/ZkVAABgFnSsXTomWfGfqWl+yVjPbQV/PiqA2cCABWCX7TnPTpdU9DfN/KS5Id6uCAAAZkvelF8pU9Hfaryn5dWLoiMA1D8GLAC75LElN+/n0jnRHam5dPG+w+UN0R0AAKA4Fq0pbzb5edEdyZneu76z8troDAD1jQELwC6p5s1XSdojuiMlk/1g89PzPx7dAQAAiqd1qPcWSf8vuiOxUpbZtdERAOobAxaAnTaxpNLp0h9Fd6SWmy8/5MFjtkZ3AACA4jGZy+00SXl0S2K/Pt5V+YPoCAD1iwELwE5xublbvwr/OeJf6Rjq/cfoCgAAUFztI8vul/T30R2pmWXXfP/gO+dEdwCoTwU/8QSQymT36pPkOjK6I7HpkjetiI4AAADF15RtO9ekH0d3pOTyV83ba+Np0R0A6hMDFoAdNtF5xzyXXxbdkZrLPrFw5PjvRHcAAIDi22/tOx5z0xXRHcm5Lni4c3VrdAaA+sOABWDHZVvOlbR/dEZiT8myS6IjAABA43hmo18r2feiOxLbvdmcYywAO4wBC8AOGe++ZZFLK6M7UnP5BR1Dxz8Z3QEAABrH4nXlKbmfFd2RnPkpk92ru6MzANQXBiwAO8Ss6RpJ86I7ElvXPv8VfxMdAQAAGk/7SO/tkn8puiOxLFd+ncstOgRA/WDAArDdxrtWH+GupdEdybmvsLuPno7OAAAAjSnLtNKkbdEdiR0+0bX6hOgIAPWDAQvAdnH1ZbL8OkmFvlLm0m3tI+UvR3cAAIDG1bq2/ICbXR/dkZz51Rted+P86AwA9YEBC8B2Ge9a/B5JndEdiU15ZudERwAAAEy3bL1Q0hPRHYl1VHebe2Z0BID6wIAF4CU9ueSmPczUF92RmptWLVq77PvRHQAAAAfcc9LTcr84uiM511kTQ9eGBgAAIABJREFUh60+IDoDQO1jwALwkrb6nD5JC6M7Entsrm29KjoCAADgZ9oO0l+Z9O3ojsTmelN+ZXQEgNrHgAXgRa1/Y+Vgd703uiM1N52199qTn43uAAAA+BkbKFdz8+XRHbPghInu1b8aHQGgtjFgAXhRpSZdJ2lOdEdio+1D626KjgAAAPjfOobKX5Xp9uiO1Fx5v6uP81MAL4gPCAAvaLyr8pvudkx0R2JuuS839eXRIQAAAM+nybOVkrZGdyR22ETPoadERwCoXQxYAJ6XH3VXk8yuje5Izc1uahst3xPdAQAA8EL2G176Q0n90R3JuV3+g87Ky6IzANQmBiwAz2v8uSc/IGlxdEdim7JqfkF0BAAAwEtpaWm5zKTJ6I7E9t2tlJ0fHQGgNjFgAfgF6w+v7GXmhR923PzyttHyo9EdAAAAL+UVXz/uJ+5W+OMzuZ821nPrq6MzANQeBiwAv8CqdrmkvaI70rL1WXVu4X8iCQAAiqNt5Dt/Z9JQdEdiLebZqugIALWHAQvAzxnrue315np3dEdq7vnKttFjN0V3AAAAbC9TX56bL5fk0S1p2bET3ZXfia4AUFsYsAD8nMyr/ZJK0R1Jme5pH+ldHZ0BAACwozqGymskuyW6IzX37JqRzuubozsA1A4GLAD/Zayrssylo6I7EsvNfLnJCn7lEgAAFFXelJ8laWN0R1Lmv9KW7f0X0RkAagcDFgBJ0kNH3bCbmV0d3ZGauT7VtrY8Gt0BAACwsxatKY/L9eHojtRc3jfRefM+0R0AagMDFgBJUvPGBWdIOii6I7FnrOoXRkcAAADsqrzZr5bs4eiOxPb0rPni6AgAtYEBC4DWH15pN9PZ0R2pmevi1vvLP4ruAAAA2FWL1pQ3S/k50R2z4NT1SwZfFx0BIB4DFgDZtF0p14LojsT+fcKf+kR0BAAAwExpHy5/1qWvRXckVspyvzY6AkA8BiygwY0tWf0mk06K7kgtc63sGj11W3QHAADAzPLlkqrRFYm9daKn8vboCACxGLCABuZyyzzvl2TRLSmZ6wutI73/FN0BAAAw0zqGy9+UdEN0R2q526qHjrpht+gOAHEYsIAGNt6z+p3uWhLdkZJJ21x+enQHAABAKqXm0vkm/Ti6IyWTXjln44IV0R0A4jBgAQ3q8cWVBeZ+eXRHcm4fax8p/0d0BgAAQCoLv3H84y5dGt2RmpvOe/SwW9qiOwDEYMACGtTUPDtPUtEPAH60dbp0SXQEAABAas9s8o9KKvZFO9eCUlPzZdEZAGIwYAENaENP5SCTCn8LtskvOOibb38mugMAACC1xevKU246I7ojPX/X+q5KT3QFgNnHgAU0oGm3VZKK/hDMb7YeqE9HRwAAAMyWjqHef5T0xeiOxCwzXefyQr+ECMAvYsACGszYktVHm3R8dEdqmXy5DZSL/kppAACAn2Ol6kqTtkV3pGVvmuxefVJ0BYDZxYAFNBDvrZSsmvdHd6Rm0kDrcPlr0R0AAACzre3eE76byz4Z3ZGay6/c8Lob50d3AJg9DFhAA5l42E6V6XXRHYltsdL0WdERAAAAUapztl4s6YnojsTa8zlzz46OADB7GLCABvHIkZ/ZU9LF0R2pmfTh1ntPfDi6AwAAIMoB95z0tMsvjO5IzaUzJ990y4HRHQBmBwMW0CCatrb0SdonuiOx8Wzr5quiIwAAAKK1H6hPyfWt6I7EdvNq09XREQBmBwMW0AAm3nTrr5j0F9EdqZl09sJvvXNjdAcAAEA0GyhXvZQtj+5IzaXe9V0DR0V3AEiPAQtoAF4tXeNSc3RHWn5v6/Cym6MrAAAAakXH2qV3uXRbdEdqmXm/91ZK0R0A0mLAAgpuvHvwWEm/E92RmOeu00zm0SEAAAC1pMn8DElbojvSstdPPqw/ja4AkBYDFlBg6xZXWiStiu5Iz/5+0Uh5KLoCAACg1iwcKj/kpmuiO1Jz2aUPveFzL4/uAJAOAxZQYC+fZ38p+aujO5IyPVed3nZ+dAYAAECtatnoV0iaiO5I7BVzmqofjI4AkA4DFlBQG958274mXRDdkZq5X7b//ScW/YAMAABgp+27rvycm50X3ZGc+QfGuyq/FJ0BIA0GLKCgqtuql7n0suiOlFz64db5G/ujOwAAAGpd+9DSG820NrojJZeaLSv+zyWBRsWABRTQeNfgYZJOie5ILTM/46C7Tyn4Q0kBAAB2nck8t2y5pEK/9MbdjpnsGvjd6A4AM48BCygiy/slFf1Vwl9tGyp/LjoCAACgXnSsXXqvm90U3ZFanumj//kyIwAFwoAFFMx4d+UPJfvV6I7EqnlmK6IjAAAA6o2X8nNlei66IynXwS+bm70vOgPAzGLAAgpk/eGVuVJ2ZXTHLPjrRWuXfSs6AgAAoN4sWlMed9dV0R2pmXnf492VhdEdAGYOAxZQINk2O0vyA6M7Enva8m190REAAAD1atv851ZJeii6I7E9psz6oiMAzBwGLKAgxpas7pDpzOiO1EzW1zb6jieiOwAAAOrVQXefssXdz4ruSM1c75lYUumM7gAwMxiwgIKwan61pPnRHUm5fXcif/KvojMAAADqXcdIeVDSl6M7Esvcrd/lFh0CYNcxYAEFMNZTOVymE6I7UjPLV3aNnrotugMAAKAIMtkKSdPRHUm5jhzvGlganQFg1zFgAXXO1Zdlbv2Sin5l6fNtw+UvRkcAAAAURevwsnVu+nR0R2pm2TUTnXfMi+4AsGsYsIA6N9H1mj92qSe6I7Ept2rhn+8FAAAw27zk50l6KrojLV+UlzaviK4AsGsYsIA69qMjbt/dzC+N7kjO7LqOoRO+F50BAABQNIvWlJ9yt8IfT5rbeROdlf2jOwDsPAYsoI5NbZ26wKXW6I7EHt9SzS+LjgAAACiq9gV7f0zSuuiOxOblpazwQx1QZAxYQJ16rHv1K2U6LbojOfPzXjVa/nF0BgAAQFHZ3UdPS9ny6I7UzP3kic7KkdEdAHYOAxZQp6Ytv0bSnOiOxO5vG3rghugIAACAomsfXvoVM78zuiMx88z6XX2cBwN1iD9coA6N9VTeKtdx0R2pmbLlpr48ugMAAKARVKd1mqSt0R2JdY73LD45OgLAjmPAAuqM91ZKmVt/dMcsuLVteOm/RkcAAAA0ikX3lR80t09Ed6RmrqufXHLTHtEdAHYMAxZQZyYesfe69NrojsQ223R2TnQEAABAo5lT2nKxpA3RHYntt9nnnB0dAWDHMGABdeSRIz+zp1wXRXckZ7q67f6lj0RnAAAANJq91578rMkLf7xprjPWLxk8JLoDwPZjwALqSNPUnA9J2ju6I7Gx0pbNH46OAAAAaFStww/8raTR6I7EWiz3K6MjAGw/BiygTkwuqRxq7qdGdyTnOnPht965MToDAACgUZn6cnl2miSPbknJpOMnlgz8VnQHgO3DgAXUiTzXNS41R3cktqZtZNlnoyMAAAAaXfvI0q+bNBjdkZrnutaPuqspugPAS2PAAurARM/g2yT77eiOxPJM2WkmK/SVPgAAgHrhmj5d0qbojsQOHd/4o/dERwB4aQxYQI1bt7jS4u5XR3ck53ZD6/DS4egMAAAA/FT78InrTfpIdEdqJrt0rOe2oj9nFqh7DFhAjXv5fFshqehvSPnJNrcPRkcAAADg51Wb/ApJj0Z3JLaXPOdYFKhxDFhADXtsyc37mevc6I7k3C85cHTpZHQGAAAAft6iNeXNJjs/uiM1k79vQ9dtr4nuAPDCGLCAGjadN1/h0suiO1Iy2Q82PbPgo9EdAAAAeH6tw0s/I9M90R2JNVWt2h8dAeCFMWABNWqic/UbJb0ruiM193zlIQ8eszW6AwAAAM/PZG7V7DRJeXRLYr8+1jPw+9ERAJ4fAxZQg1xunuX9Kv7f6L+0j5Q/Hx0BAACAF9c2uvQ+yW6M7kgtc+v//sF3zonuAPCLin5yDNSlyZ6BEyW9Jbojsek89xXREQAAANg+TdnUOZKeje5IyeWvmrfnxg9EdwD4RQxYQI1Zf3hlrssuj+6YBZ9cNFr+dnQEAAAAts9+a9/xmElXRnfMggsf7lzdGh0B4OcxYAE1JpvOzpHrgOiOxJ52K30oOgIAAAA75ulN/hFJ34/uSGz35iznWBWoMQxYQA0Z775lkeRnRHck5/bBjqHjn4zOAAAAwI5ZvK48ZeZnR3fMgj+Z6Bnsio4A8N8YsICa0rRK0rzoisQeaFuw9/XREQAAANg5bUPlz8n1z9EdiWXufp3LLToEwE8xYAE1Yrx74M2SeqM7UrNMK+zuo6ejOwAAALDzspKvkFT0Y7o3T3QPlKMjAPwUAxZQA1x9maTrJBX9Cs/n2tb2Fv1qHQAAQOG1ri0/IOlT0R3p2aoNr7txfnQFAAYsoCZMdr/mTyUV/Tf2U3lmjfC8BAAAgIaQN/kHJRX9uaYd1Tm7nR4dAYABCwj3oyNu393lDfCWE7tm0dplRX9jDQAAQMNYtKb8lMka4Tj2nInDVhf9LeFAzWPAAoJtm5q6SNLC6I7EHtst23JFdAQAAABmVuv8vT9p0rejOxKb601+eXQE0OgYsIBAj3be+iqX3h/dkZrLz9l77cnPRncAAABgZtndR0/n0orojvT8xImegbdEVwCNjAELCFTKSv2S5kR3pOX3tQ8/cGN0BQAAANLoGO79F8nviO5IzNx13X++fAlAAP74gCDj3at/Q9LvR3ck5pbrNFNfHh0CAACAdKp5vkLS1uiOxA6b6F78rugIoFExYAEB/Ki7mlzVa6M7ZsHNbaPle6IjAAAAkNb+oyf8QGYfje6YBVf8oLPysugIoBExYAEBJp974v0me010R2KbLffzoiMAAAAwO1qamy8xaTK6I7H9dsvs3OgIoBExYAGzbP3hlb3cdEF0R2ouXdE2Wn40ugMAAACz4xVfP+4nbv7B6I5ZsGKs59ZXR0cAjYYBC5hlpensUkl7R3ekZeuzfLePRFcAAABgdrUNPXCDy4ejOxJrMZWujo4AGg0DFjCLJrsHF7v8PdEdqbn56W2jx26K7gAAAMDsMvXlJlsuyaNbknIdN9Ez+NvRGUAjYcACZlEuv1ZSU3RHWv719qFlg9EVAAAAiNE+3PsNSZ+N7kjN3a8Z6by+OboDaBQMWMAsmegaXCrpN6M7EsvNsuUmK/YVNwAAALwoz7IzJW2M7kjs0Fbb89ToCKBRMGABs2Dd4kqLZ35ldEdqLvvbtqFlI9EdAAAAiNWxdumYTKuiO5Iz+9BE5837RGcAjYABC5gFe861M+Q6OLojsWdblF8UHQEAAIDakJf8Kpkeie5IbE8vtXAMDMwCBiwgsceW3Lyfm86O7kjNzS/ed7i8IboDAAAAtWHRmvJm5XZudEdy7n+xvrPy2ugMoOgYsIDEqtXmqyXtEd2RlOnBzU8t+ER0BgAAAGpL+8iyWyT/1+iOxEpZZv3REUDRMWABCU0sqXS66eTojtRcvvyQB4/ZGt0BAACAGuTZckl5dEZibx3vGjguOgIoMgYsIBGXm+e6ToX/O/OvdAyVvxBdAQAAgNrUPrLsfrndEN2Rmpuu+f7Bd86J7gCKquAn1kCcya6BkyU7IrojselM2fLoCAAAANS2Ukt2nkk/ju5IyaRXzttrI8fGQCIMWEACE513zHOzS6M7UjPTx1qHl62L7gAAAEBtW/iN4x930+XRHcm5zn+4c3VrdAZQRAxYQAq29TxJ+0dnJPZUteSFH+kAAAAwM57Z6P2SfS+6I7Hdm0s5x8hAAgxYwAyb6Kzs7+YrojtSc7PzF60pPxXdAQAAgPqweF15Sp6fGd2RnOuP13dVeqIzgKJhwAJmWJ7pGknzojsSW9c+b++/jY4AAABAfWkfKX9e0hejOxLLMrN+l9uM/Gs+I/8KUPcYsIAZNNFZOdJkx0d3JOe+wu4+ejo6AwAAAPXHStWVJm2L7kjs8MmegRNn5F+amRkMqHsMWJg1LrcNXbe9xlzFuJ0290PXLa60/Ow/vbdS8kwfV8G/Ysw02D5S/nJ0BwAAAOpT270nfNddfx3dkZq7Xb3hdTfO/9l/T3TeMc/lr49smiku755cUjk0ugONpdAn2oi34c237Vudyn/fMv9dd/2apFdEN82wzZK+4eZ3mmULlPvF0UGJbc2r/ppF95UfjA4BAABA/XrkyM/s2bS15XuS9oluSclln8rcH3HzY0zW41JzdNMMe0zS19zszqw69YW20Xc8ER2E4mLAwoyb6Bz8ZS/5cXL9gaQ3iTv9CsPcLmsbWXZBdAcAAADq33jX4Ptk/vHoDsyYqkxrlPvnPctv7xg6oehvnMQsY8DCjHj0sFvamppKvS71SnZEdA+S2LBbtvWX9l578rPRIQAAAKh/3lspTTxk98n0uugWJPGATANZNv13rfee+HB0DOofAxZ22kTnHfPybHPZZCdLOlrcaVVo5v7OtpHyP0R3AAAAoDjGeipvNbd/ie5AUlVJX3XTTV7ygUVrypujg1CfGLCwwx7tvPVVpaz0HknvlrR3dA9mxWjb8LoeU18eHQIAAIBiGe+qfE5mb4vuQHom/TiXfTYrTfe33XvCd6N7UF8YsLBdXG5jXat/18zfb9Jvi7utGonnuR2+aHTZ2ugQAAAAFM9j3atfOa18naTdolswa3Iz/6JcH2sd7v2SyTw6CLWPAQsvytWXTXS/5vckv1BSV3QPZp+5bmwb6X1XdAcAAACKa7x78ArJz4nuwOwz6du5aVX7Af4ZGyhXo3tQuxiw8LzWLa60vHxudrLMz5F0SHQPgpieq26b/qX97z9xIjoFAAAAxfX44sqCbfPsPyS1Rbf8FxdnzLPrPyRdNZk/dVPX6KnbomNQe/hzxM9xuY33DC7L3K5w+auiexDLXOe3jfReHt0BAACA4hvrrvyxyW6I7kC4R01+WeuB+jR3ZOF/YsDCfxnvXv0bUvUqyd4Y3YKa8NDU/OcOPejuU7ZEhwAAAKD4XH3ZZPfiNS71RLegFvh9Uuns9uGlX4kuQW1gwII2dN32mqqqH5Hpt6JbUDtMWto23HtbdAcAAAAax1hP5XBz+7o4V8XPuP65pNLpC0eO/050CmLxodDAJjrvmOelLWfJda6kluge1A5zv6ttpPzW6A4AAAA0nvHugZsknRTdgZoyLemTLS0tF7zi68f9JDoGMbLoAMSY6Bl8m2dbvivXRWK8qiuz8H7Zap41rUj/vwEAAAB+Ud7kZ0vaGN2BmtIk6S+npratm+geOD46BjG4A6vBPHrYLW2lptJfS3ZsdAtqk8n+qm142XujOwAAANC4xroHPmjSh6I7UJvM9YW8lP15x9qlY9EtmD3cgdVAxrsGTig1NX2b8Qov4mnlUxdGRwAAAKCxeZOvkuzh6A7UJjf9nuX5tye6B0+ObsHs4Q6sBvDQGz738uaW6kfN/Y+iW1DbTL68bbh8XXQHAAAAMNY9WDb5Z6M7UNvM/M6paundB44unYxuQVrcgVVw492rf2NO8/QDjFfYDv8+kT/9yegIAAAAQJI6hpdVXPpadAdqm7sd05zl31zfNXhMdAvSYsAqKFdfNt5duVDKv+hSa3QPal/mWtk1euq26A4AAADgv/lySdXoCtS8fTPzfxzvHrzCj7qrKToGafATwgKa6Lx5H8+a/0HS70S3oG78Y/twL89GAwAAQM0Z6x683uR/Ft2BeuH/Wp2unrj//SdORJdgZnEHVsGMLVn9Js+a7xfjFbbflNzPiI4AAAAAnk9pOr9A0jPRHagX9qulpqb7xpasPjq6BDOLAatAxnoGei3PvyqpI7oF9cOkj7WPlP8jugMAAAB4Pq33l3/k0qXRHagr+1me//N41+D7okMwcxiwCsDlNt4zcLa5bpU0N7oHdeXxrduaOBgAAABATduQP/VR/X/27jy8zrrO///rfZ8k3VAoCDRLoQiIEkRKclIKCFVxHFHGkTZHQXC++nMZYaSFYQeh7CAKLYOjqCPfKasnCYyCqN9hBJWtSQuMWhSBYUlOUnbUtpQ2537//gDHBQptek7eZ3k+rmuua66hzXkqmSyvc9/3R+JNV2yKBplfPpTtvYLnYtUGnoFV5R7a5ZYJk7Ze8y1OGcRYmOxzLQPzvhXdAQAAALyRoa78h8zt5ugOVCP/8dpUH9t5ee530SUYO67AqmLPzrr6zZOmrv4x4xXG6P7mGel3oiMAAACAjdHWn/uBSz+M7kA1sg9MTOy2J2ddu310CcaOAatKjczMb7s2nfATkw6MbkF1SuQLrCfHkcQAAACoGklqx5m0ProDVWnmaNr0s+GZfTtGh2BsGLCq0GMdfc3FBv1EUkd0C6qV3988kPtpdAUAAACwKZqXz31Qsl9Gd6Ba+dvUkN492JF/Z3QJNh0DVpUZ3Du/S2Mmvdtke0S3oJrZXsPZ/MnRFQAAAMDGcrkNZ3svd/ne0S2oXi41J4n9ZLijj8+jKsND3KtIIXvddKnxZ5LPiG5BzbiodaCbIQsAAAAV7Y/jlaSjoltQM16wNHlfy/K590aHYONwBVaVGJydbzU13sZ4hRI7aSjbc3p0BAAAAPB6Ctm+S8V4hdLaypP0RyPZ3vboEGwcBqwqsHLfG7ZLRu3/uXzn6BbUHpPOGersPTa6AwAAAHgtQ9me800+P7oDNWnbVP6TkVn53aND8Ma4hbDCPbrXjVtNaBz9mUs8ZA7llJrsH1oG5l0dHQIAAAD8USHbc7yki6M7UPOGLPX9WpbnnogOwYZxBVYFW9Geb5rQsP4GxiuMg8TlVxayvYdEhwAAAACSVOjs/bSkL0d3oC60eWK3PLrXjVtFh2DDGLAqlMtt6iT7lpu9J7oFdaNB8u8Odua7okMAAABQ30ay+QNl/nVx1xDGT3tT4/rvPbTLLROiQ/DaGLAqVCHbe56bPhndgbozKWP2Hy+feAkAAACMv+GO3renshslNUW3oN7YAZOnrl7iWshWUoH4l1KBhrp6/8GkU6I7UJ9capYy/7FyzyVTolsAAABQX4a6bthGiW6WNDW6BXUrN5JtXxgdgVdjwKoww7PyHeb+jegO1Dvbu9g08WreeQAAAMB4WdGebzIfvYHT1xHNpdOHu3r/ProDf4lfTivI4Oz81p5aj6SJ0S2AzP6+0LU7VwICAABgXGw5OfmyZAdEdwCSzOVXjWR726ND8CcMWBXCu/OZZFTXStopugX4I3M7u9CZf390BwAAAGpbIdt7iMmPie4A/pdri1S6gZMJKwcDVoUYeTQ5S7IPRHcAfyWR2ZLHOvqao0MAAABQm57ouH5nk18lThxExfG3NTau/3Z0BV7GgFUBhrt63u3mJ0d3ABswrSFJr/M5tzVEhwAAAKC2PLTLLRMySea7Lm0Z3QK8FpPNHc72fja6AwxY4R7d68atXLpKUia6BdgQkw4cXv30qdEdAAAAqC1TtlpzvqSO6A7g9bh80fA+178juqPeMWAFa2osfkOuHaM7gDdmXxrJ9mWjKwAAAFAbCp19+7n5/OgOYCNMTotJ/tE5V3LgWiAGrEBD2fz/kfxj0R3ARmpIlV7JF20AAABsrqfa81u4pUvEnSioEibbo2nNm86O7qhnDFhBnsrmp5nskugOYBO1T1i9xbnREQAAAKhu66bYV0x6a3QHsEnc/3moKz87OqNeMWAFGTX7F0lTozuATeXSsYXOvv2iOwAAAFCdhrI97zPX56I7gDFIErcrlnVc0RgdUo8YsAIUsr2HuGtedAcwRoks5Ys2AAAANtmK9nyTSZdLsugWYCxcemdzMvWU6I56xIA1zh7pyG9p8iuiO4DN1N5sUxdERwAAAKC6bDlFJ0h6e3QHsHnsVE4lHH8MWONskiVnuNQc3QFsNrOFK7vyO0VnAAAAoDoMd+R3MDeuXEEtmODFzL9ER9QbBqxxNLh3fhc3Pzq6AyiRyUXZpdERAAAAqA6e6HJJU6I7gBJ5X6Gz5yPREfWEAWscZRq0WNKE6A6gZFwfKXTm3x+dAQAAgMo2PKvnbyQ7JLoDKCU3XfLonCsnRnfUCwascTLS2fNBdzs4ugMoOdOFroV8LQEAAMBrci1MPNWF0R1AqZn01gmrp/Bs4HHCL53jwLUwSc0viO4AysP2Huna/ePRFQAAAKhMI9k9Dpc0M7oDKAc3O21kZn7b6I56wIA1DoY79/iYZO+K7gDKxT0576FdbuH2WAAAAPyFFe35plR+VnQHUDauLdKMHR+dUQ8YsMrMu/MZmZ8Z3QGUl8+YMnXN56MrAAAAUFm2nJQcbdJbozuAsjL902Mdfc3RGbWOAavMhh+zT0raLboDKDeXn8IDDAEAAPBHj865cmJifkJ0BzAOJjdaekp0RK1jwCojn3Nbg0unR3cA42Ra46ot/iE6AgAAAJWhafUWn3aJq1JQH0yfG5rV1xadUcsYsMpoZM3TOS6XRV0xnehzbmuIzgAAAECsZR1XNErG1VeoJxOSNOVEwjJiwCojd/1zdAMwnkx668jqZzmREAAAoM5NS6Z+QvIZ0R3AeHLpc4/udeNW0R21igGrTArZvoMk2zu6AxhvLj/Z5RbdAQAAgBguN/PkxOgOIMCbmppGOdyqTBiwyiblCzbqVXuhq+c90REAAACIMTKr9/0yf0d0BxDCdSyHW5UHA1YZDHf0vl3SQdEdQBi3o6MTAAAAEMNT8bMg6tn2E9ZMOTQ6ohYxYJVDxj8niVuoULdM+jtO4AAAAKg/wx35HSR9KLoDiOQubiMsAwasEntol1smuOuI6A4gWEOSpnzRBgAAqDOe2FGSMtEdQCw7YCTb2x5dUWsYsEpsytTV8yRtG90BRHPpMz7ntoboDgAAAIyPZR1XNEr6dHQHUAmK0mejG2oNA1aJpXySAn80beWqZ94fHQEAAIDxMS2z9QfEm/mAJMnkR/Iw99JiwCqhQva66SYdEN0BVIrU9InoBgAAAIwPc+NRKsDskQQHAAAgAElEQVSfbD1h9RYHR0fUEgasUrKGw8TD24E/99Gn2vNbREcAAACgvJ6ddfWbJT8kugOoKKbDohNqCQNWKbk+Hp0AVJjJo5P00egIAAAAlNfadMJcSZOjO4BK4q4PP9KR3zK6o1YwYJVIoTO/m6SZ0R1ApUnNeNcBAACg5vnHoguACjRxkunvoiNqBQNWibhZLroBqEQmvffp/b73pugOAAAAlMfLtw/ae6I7gMpkjLslwoBVMtzvDWzAhJdeeukD0REAAAAoj7Vp0wclNUV3AJXITe8d7riJ22tLgAGrBEZm5rc1WUd0B1CpEhkDLwAAQM1KuEUK2LBJaWbte6MjagEDVgkUG5ODxX+XwAa56cM+57aG6A4AAACU1ss/4/kHozuASpak+lB0Qy1gdCkBcz84ugGocFsPr36mKzoCAAAApTWy+rl9JU2N7gAqmZsxYJUAA9Zmci1MJL0/ugOodG7Ogz0BAABqjKs4J7oBqHw+fWRWfvfoimrHgLWZhjv3eJd4xwF4Q+Z2YHQDAAAASstcc6IbgGpQ9OSA6IZqxzNpNpNZeoDLojOAanBgIXv9UaZkNDoEAAAAm89Ta0jN9+e3IeCNmevdkr4R3VHNGLA2Uyo7gC/YwEZpkjJf8+gKAAAAlEYiGW/mAxvJuSNlM3EL4WZwuZn07ugOAAAAAABQ0VqfzPa9NTqimjFgbYZC13d3lbRtdAcAAAAAAKhsRfm+0Q3VjAFrM1ia2Tu6AQAAAAAAVAHXzOiEasaAtXn45AMAAAAAABshZUPYDAxYm8MYsAAAAAAAwBtzs5ku5+SDMWLA2jx7RQcAAAAAAICqsNWTXT0zoiOqFQPWGD0569rtxQPcAQAAAADARip6skd0Q7ViwBqj4mjDrtENAAAAAACgerhrl+iGasWANUaeGAMWAAAAAADYaGbOgDVGDFhj5BIDFgAAAAAA2HhcgTVmDFhjlIhPOgAAAAAAsAmMi2HGigFr7HaMDgAAAAAAAFVlumshW8wY8F/aGLmsOboBAAAAAABUlYYn993zLdER1YgBawxcbpJvH90BAAAAAACqy/piOi26oRoxYI3BSMd120hqiu4AAAAAAADVJePijq4xYMAaA0uauPoKAAAAAABsslTiCqwxYMAaA5dtE90AAAAAAACqUKqtoxOqEQPWGKRWfFN0AwAAAAAAqELmW0QnVCMGrDEwF59sAAAAAABgk5k0JbqhGjFgjYUxYAEAAAAAgDEwY8AaAwasMTBP+GQDAAAAAACbjru6xoQBawzc0wnRDQAAAAAAoAq5symMAQPWWCRm0QkAAAAAAKAKmXl0QjViwBqL1PlkAwAAAAAAY8CmMBYMWAAAAAAAAOPEJQasMWDAGgsu9wMAAAAAABg3DFhjYPL10Q0AAAAAAKD6mMSmMAYMWGPgplXRDQAAAAAAoPq47PfRDdWIAWssnAELAAAAAABsukT+h+iGasSANQapJ3yyAQAAAACATeYmNoUxYMAag0zCWgoAAAAAADadO5vCWDBgjUGx6C9ENwAAAAAAgOpjbs9HN1QjBqwxsEzDcHQDAAAAAACoPmYJm8IYMGCNQWv/R5+TtDa6AwAAAAAAVJdisciANQYMWGNgMpfpyegOAAAAAABQXRpH145EN1QjBqyxcrGYAgAAAACATfH7ab/45OroiGrEgDVGJg1FNwAAAAAAgKoyGB1QrRiwxig1PRTdAAAAAAAAqodLD0Y3VCsGrLFyZ8ACAAAAAACbggFrjBiwxsg8w4AFAAAAAAA2gf82uqBaMWCNUVIs8kkHAAAAAAA2nnEF1lgxYI1R8325pyU9E90BVB2PDgAAAACAEF5sWv+b6IhqxYC1OVz3RicAVceiAwAAAAAggOmRHe/4xPPRGdWKAWszuGl5dAMAAAAAAKgCrmXRCdWMAWszJG4MWAAAAAAAYGOwIWwGBqzNkCQptxACAAAAAIA35EnCgLUZGLA2w/b93Y9Jejq6AwAAAAAAVLTiJL3IgLUZGLA2g8nc5T+L7gAAAAAAAJXL5fdus/SI30d3VLOG6IBqZ67bZZob3QFUOpOelPyM6A4AAACUjssukLR1dAdQ6Uz2k+iGaseAtZkyari9qGJ0BlDxXLqpdSD3zegOAAAAlE4h23OApE9EdwCVzsxui26odtxCuJm2X/bRFeI5WMAbMtlPoxsAAABQWvyMB7wxk9Y3rE7vjO6odgxYm8lkLi4FBN5IUem6H0VHAAAAoLTSxH4oyaM7gErm0j3brcitiu6odgxYJWDym6IbgEpm0qpiQ1NLdAcAAABKq23p3CG5fhndAVS470cH1AIGrBJ4aX3DD0xaH90BVCqXtkxSv2+oq3fJyn1v2C66BwAAAKXjph9ENwCVzK3IgFUCDFglsNP9H31B7ndEdwAVLjH3I4vri78pdPWctKI93xQdBAAAgM1nnjBgARvi9uu2/o//NjqjFjBglYyxqAIbZ6pcF2412X4x2Nl7cHQMAAAAxm5ZxxWNlox2yXkOFvCazNkKSoQBq0SSxL8nHl4IbIrdEvMfFLL5/xyZld89OgYAAACbppDtO6g52fo+9+QSmSy6B6hEqfsN0Q21gi8yJVTI5u+QbL/oDqDamLTepa+vTf2MnZfnfhfdAwAAgA0b6rr+beaZr0r6cHQLUOEeahmYt5vJuNilBLgCq4Rcuia6AahGLjVKOmZiYo8MZ/PzvTufiW4CAADAX3p0rxu3KmR7LjTP/EKMV8AbcvN/Z7wqHQasEvIGfVfSS9EdQBXbxmWLhh9T/3BXz7ujYwAAACC5FiZDXT2fbGocfVDSSZImRDcBVcAbpGujI2oJtxCWWKGr5z/k+kh0B1Ajbk4yo19svuewx6JDAAAA6tFINn9gKi2W7F3RLUA1cemnbQPdc6I7aglXYJWYyf5vdANQQz6cFhseKGR7LnyqPb9FdAwAAEC9GJrV1zbU1bskld3GeAWMgdmV0Qm1hgGrxJp3TG+S7LHoDqCGTJJ00vrJ9puhrp5PupwrRwEAAMpkuOOmyYWunoWWpg+Z+5Hirh1gLJ5ZP/kP342OqDUMWCVmPbmiuX8rugOoQa3m+veRbO89Q7P69omOAQAAqCUut6Gunm7PrH1ArjMlTYxuAqqVS9/a6fZPrY3uqDWs6WWwct8btiuuLz4hHm4IlIu72dVNnp643UBuZXQMAABANRuele/wVIsl2y+6BagBRRtNdm65b+7j0SG1hgGrTArZnqslfSK6A6hxq2X6yprnplyw68MHcwIoAADAJniso6+5IfGFJv+MuDsHKJUbWwe6D42OqEV8kSoTM1sU3QDUgSlynTl569W/Gurq6Y6OAQAAqAYr2vNNw9n8/MYk/Y3JPyd+LwRKxpSwBZQJV2CVUaGz58cy/U10B1BHfpKmvmD68twvo0MAAAAqUSHbe4jLF5n01ugWoAbd1TrQza24ZcLSXkaJ+fnRDUCdeW+S2L1D2d4rRmbmt42OAQAAqBTDHb1vL2R7fij59xmvgPKwRGdFN9QyrsAqs0I2fwcPQwRCPG/ys5qnbPs1u/09o9ExAAAAEQZn57dORu1MSUdJaojuAWqVywfaBnJd0R21jCuwyiz1hKuwgBhTXbZoePUzvxzp7PlgdAwAAMB48jm3NQxn859LRu1BSceI8QooK3OdG91Q67gCaxxwFRZQEW4upsUFOyz/+CPRIQAAAOU0lO15n+SLTLZHdAtQD0zqbx6Yt4/JPLqllnEF1jjwJHO8JD6RgVgfbkgyvy5kexY/O+vqN0fHAAAAlNrgrN5dh7M9eZNuZbwCxk+aJCczXpUfV2CNk0JXz3/I9ZHoDgCSSSOSL2yeoX+znlwxugcAAGBzrNxzyZTixEknyHWypAnRPUB98ZtaB3J/F11RD7gCa7ykfpIkHiQNVACXml12xfBjtnS4I79/dA8AAMBYuBYmQ109nyxOmPSIXGeK8QoYb8VEySnREfWCK7DGUSHb801Jn43uAPAX3KRejSYntNw39/HoGAAAgI0x2JnvSkyLJdsnugWoY99qHej+XHREvWDAGkdDXTdsY178jaS3RLcAeJU1Ml2cZvyi6XfnXoyOAQAAeC1Ds/ra5H6+uR8hfp8DIj2XjPrbm+/LPR0dUi/4gjfOhrp6/9Hcvx7dAWCDhtx0Wmv/vKt4ECMAAKgUwx03TfbM2i9KOl2uLaJ7gHpnss+1DMz7VnRHPWHAGmeuhclItv1ul7qiWwBsmJmWFos2f/ryeUujWwAAQH0rZHsPkXSZ5DOiWwBIkt/TMvDAfqaFaXRJPWHACjDc0be3J2m/pEx0C4DXlbrZNY227oTtlx7+ZHQMAACoL6/83rBI0rujWwD8r6Lcsq3L5t0XHVJvGLCCDGV7LjVpQXQHgI1gWiXpq2uem3LBrg8f/FJ0DgAAqG3DHde+xZPGL0k6WrzpDVQUk77aMtB9fHRHPUqiA+rV+imrTpG0IroDwEZwbSHXmZOnrv7lUFdPd3QOAACoTcs6rmgczubne9L4iKRjxHgFVBa3Xxcb/EvRGfWKK7ACDXb0zkoSv0NSQ3QLgE3ht2a84dhpyw79VXQJAACoDYVs30Fyv0zm74huAfCaRs1sdkv/vGXRIfWKASvYcGfvuW5+WnQHgE1j0vpUdmWSrjutZfnhz0T3AACA6lTozO9miS5xt4OjWwC8DtNZrf3dC6Mz6hkDVrAV7fmmrSbbUkl7RbcAGJPnTH528wxdbj25YnQMAACoDo/vf83UhpeaTpJ0rKSm6B4Ar8fvHUmf36dz+efXR5fUMwasCjC4d36XJGPLJb05ugXAGLn92hId29I/78fRKQAAoHL5nNsaRlY//WmXnStp2+geAG/oD3LPti7LPRgdUu8YsCpEIZv/mGTXR3cA2Gw3NyiZv/3A3P+JDgEAAJVlqCv/XkvtUpn2jG4BsFHc3Lpbls3riw4BA1ZFKWR7LtfLR+UCqG7rJH2jqanp9G3v/MgfomMAAECswb3zu2Qydr5LnGYMVBGXFrUNdB8b3YGXMWBVkId2uWXC5Kmr75DUGd0CoCSGTX5W88AD3zYtTKNjAADA+Fq555IpxYmTTpDrJEkTo3sAbAq/54U1OrB9RW5ddAlexoBVYZ6YeV1LpqGhX1JrdAuAklkmaX7rQPdd0SEAAKD8XG6Frt4jzXWRpGnRPQA2jUkjaZJ0tS2dOxTdgj9hwKpAg535rsTsdkmToltQn1x8cSgDN6lXqR/fsjz3RHQMAAAoj5FsXzZVuljS7OgWAGOyxhI/oGVpbnl0CP4Sv6NWqKHO/Dwzy4t/R0CtWSPTxesmr7pwp9s/tTY6BgAAlMbg7HyrFZMLzP0I8TM8UK1c8sNaB3LfjQ7Bq/GFtYIVOnvOlGlhdAeAcrBBNz+9rb97SXQJAAAYu8HZ+UlJ0Y6R6zRJb4ruqSluLnN+Z8W4MddpLcu6z4/uwGvji0EFc7kVsn3fMPnnolsAlIdJt6eWWdDWf+h/R7cAAIBNU8j2HiL5Ykk7RbfUoJuVSRermHxX0tbRMagL/9o60H10dAQ2jAGrwnl3PjPymF3HkbtATUvd7JqGhuT4aXcd+lR0DAAAeH2Fzt6ZsnSRZAdEt9Sg+0zJgpaBuT+TpOGunne760eSJgd3obZd0zKw4pOcHF7ZGLCqwLKOKxqnJVt/z6QPRregJq1x+Qsma4kOgV6Q6cIXVvulHNcLAEDlGeq6YRvz4hmSjpaUie6pMc+a/JzmGbrcenLFP/8HhWzfQVJ6k6SJQW2oaX7TSPr83M7ln18fXYLXx4BVJVbuuWRKccLEH0u2X3QLasrvU/f3//5F3T91sr7gsnPEsxsqgP3WLT2urT/3g+gSAADw8hvKLcnUoyQ7y6Uto3tqiUnrXfr62tTP2Hl57ncb+nNDXfkPmdsNkprGMQ81ztxvKzbqQ9Pvzr0Y3YI3xoBVRV4esSZ9X9J7o1tQE9aYkg/+8fJsSXpi5nUtSUPjmSb/jKQksA2SJL81UbKgeWDeiugSAADq1StX/yyS1B7dUnv81iTR/OaluQc25k8Pd/X+vdzzLjWWuwy1z6WfNq3xD2+3IrcqugUbhwGryjBioRRM+p1S/3DL8twdr/XPR7J92fTlH9T2Hec0/JWNfVcSAACU1lDX9W9L0swlbvpQdEvtGfvV5sPZnkNdulbShDKEoU649MP1U1YdutPtn1ob3YKNx4BVhR7a5ZYJk6euzkv6u+gWVKXnUvcPTl+W63+9P+RyK3T1zjPXVyTtME5t2LANPhcCAACUzqN73bhVU+PoyZKOFberldrzMl20uc/7HJrV9x5L0++JR19gDMz1g5e2WDWP8ar6MGBVqYd2uWXClK1XX+2uedEtqCY2KE/f37os9+DG/o2Vey6ZUpw46QS5ThIPzqwEf3EyDwAAKA3XwqTQ1X6EuS6WtF10T40p+YnLQ7P69rE0/YGkrUvx8VAfXLp6Zfrcp3lge3ViwKpiroVJIdv+VZMWRLegKvzGUv9Ay/LcE2P5y4XsddPdGs8z9yNLHYYxuTljfsy0/tyj0SEAAFS7wc6eOYn5IsneFd1Sa8z9tmImWTB96bxflPpjr+y8YY+iFX8sidO08YbcdH5r/7zTTebRLRgbBqwaMJzNz3fZJeKh29gQ0x1WXP/RluWHP7O5H2poVt97rJgukmnPUqRhs7wo6bKmpqbztr3zI3+IjgEAoNrwBl052aCbn97W372knK/yxMzrWjINDd+T1FnO10FVK7r8i20Dua9Hh2DzMGDViKHO/DwzWyJpUnQLKovLvrkyffafSnmZLJfYV5yCm05t7Z93Fe8oAQDwxoY7bprsmbUn8oiEslgt01fWTV514Xg9Y+iVg66ukvTR8Xg9VJU/uPlhYzkwAJWHAauGDHXd8C7z4o2SdopuQUUoynRaa3/3ReV6gcf3v2Zqw0tNJ4mHnFYElw/INL+tP3d3dAsAAJWIQ2rKyk3qVerHj/WRFZv14nIb7uo9U64zx/u1UaFMD2fSzEenLTv0V9EpKA0GrBoz1HXDNubF6yS9P7oFoZ4x+ZEtA7kfjceLFTrzu1miS9zt4PF4Pbwud7Ormzw9cbuB3MroGAAAKsVwV2+nuy+WtG90Sw1aJml+60D3XdEhhc6ej8v0TXFCYb27ed36hiN3uv+jL0SHoHQYsGqQz7mtYWT1Mxe6dJz4d1yP7vIk+Vjb0rlD4/3ChWzfQVK6WNLu4/3aeJVxv3wfAIBK9MTM61qShsYzTf4Z8czYUhs2+VnNAw9827QwjY75o0Jnfjcz63HpndEtGHdu0rnNAysWVtLnJEqDcaOGDc/q+RtP9e+SpkW3YHy47Ju/W5N+sX1Fbl1Uw7KOKxpbkqlHSXaWS1tGdeBlJnskNT+lrb+7J7oFAIDxtKI93zR1sr7gsnPE1Tiltk7SN5qamk6v1INkHp1z5cSm1VtcJOmY6BaMmycT16eal3X/MDoE5cGAVeMe6+hrbkyKSyQ7KLoFZfWUXJ9rXdb9veiQP3rldtYzJB0tKRPdA/0kTezYchxhDQBApSlkew9x+SKT3hrdUoNuzpgfM60/92h0yMYY7swf6WaXSdoqugVlZPqeFdd/phSnrqNyMWDVAdfCZDjbfpyk88SDtmvRjZnGzD9Ou+vQp6JDXstwR9/enqSLJL07ugVK3eyazPr0n5vvyz0dHQMAQKkN73P9O7yYXCrZB6Jbao7bry3RsS39834cnbKpCtnrpksN/yaeE1yL1rjZP7f1z/tGdAjKjwGrjgzO6t3VUv+WSQdGt6Akfm/yE1oGct+MDtkYhWzvIZIuk3xGdAv0vEwXvbDaL4283RQAgFIZnJ3fOhm1M8WV3+XwnMnPbp6hy60nV4yOGSuX20i257Nu9lW5tojuQUn8XO6fbV2WezA6BOODAavOuBYmI9ndv+iy8yRNie7BmH1fGv2n1oHDBqNDNsXg7PykpGjHSDqdHxwqwoOp23HTl827JToEAICxeOXZm5965Wfbt0T31BKT1qeyK5N03Wm1dFvWEx3X75xJkq9xlV5Ve0Hmx7f0d3/HZB4dg/HDgFWnVnbldxp1+5pJH4xuwSZ5Qq5jKulZV2MxODvfasXkAnM/QnwdqgB+q2XSY1ru+fivo0sAANhYhWzfQa7ipSbbI7ql9vitiZIFzQPzVkSXlMtQV0+3uS6V1Brdgo1nUs+6NJk/Y/nckegWjD9+caxzhWzfQVK6WNLu0S14XaOS/rWST3oZi8HOfFdiWizZPtEt9c6k9S59fW3qZ+y8PPe76B4AADZkcFbvrpnUz3OpO7qlBj3kpuPa+rtvjg4ZD8MdN032zNoT5TpFPCu4slXxM9hQOgxY0Ir2fNNWkzRfZqdLenN0D17l+0nipzQvzT0QHVIOLrdCV++R5rpI0rToHuhZk59T7c+5AADUnqfa81usn2LHy3WypAnRPTXmBZkuXPPclEW7PnzwS9Ex420k29ueKr1AskOiW/Aqz7jZl1p3TL/Fz6ZgwML/enLWtduPpo2nSvq8+KEgnukOpcnJrcvm3hmdMh5W7rlkSnHipBP4obRS+L1mtqClv/vn0SUAgPrmWpgUutqPMNeXJW0f3VNjUje7ptHWnbD90sOfjI6JNtzV825/+U3V2dEtdc+0yqXL1q9ruHin+z/6QnQOKgMDFl7llWNmv2TS/3GpMbqn/vh/S8mXWgfm3RRdEmFw7/wumYydz20BFePmJDP6xeZ7DnssOgQAUH9GsvkDU9kiSXtFt9Qal34q+YK2gdz90S2V5OXTCns/6tLZktqje+rQWjN9PWnIXDjtrkOfio5BZWHAwgYN7p3fJWmwU+Q6QtwTPg78Tjdd0NrffQunaUhDXfn3Jm6LXHpndAu0RtK/NK7xc7dbkVsVHQMAqH1Ds/ra5H4+B76UxZCbTmvtn3cVP3NumGthMtK1+0dS1ykmy0b31IHVMrvSzS5qWzp3KDoGlYlvBnhDT8y8riXT0HCMSf/o0pbRPbXHf5xIFzQP5H4aXVJpfM5tDSOrn/60y86VtG10D1Rw06n8wAsAKJc/e6j2iZImRffUmDUyXZxm/KLpd+dejI6pJsOzev4mTXWqSQdGt9Sgp1y6XJb517b+Q5+NjkFlY8DCRnt6v++96aX1L33WZF+Qa5fonir3B0lXJbJ/reXjiUvl8f2vmdrwUtNCSUdJagjOqXsm9adJMr9t6dx7olsAALXhlUNd5pl0sVw7RvfUGDepV6PJCS33zX08OqaaDXf07e3mR8n8MEmTo3uqmusXZv61l6asXrLT7Z9aG52D6sCAhTEZnpXvSD2Zb+4fE7cXbooHZbpytGndN3e84xPPR8dUm+GO3reniV9i0gejW8BDXwEApTE8K9/hbovk2j+6pQYtlyfz6+VQoPHySEd+y0mJPuay+ZJ2j+6pIi+Z9H1X8s3Wgbm3Rseg+jBgYbM8Oeva7UeLDZ+U2eHi4Zob8pSk61P3a6Yvy/VHx9SCQrb3EJMudfnO0S3Qapm+sua5KRfU47HbAICxe6yjr7kh8YUm/4ykJLqnlpg0IvnC5oEHvm1amEb31CqX20hX7/6p2xEm75Y0NbqpArmku+V27brRzDWcKIjNwYCFkhnu6H27Z/zjcjtM8rdF9wT7vWQ3p65r2rbY5v/Z7e8ZjQ6qNcs6rmhsSaYe5bKzJb05uqfumR526dS2/u6e6BQAQGXje3hZrZP0jYnJS1/aZukRv4+OqScP7XLLhClbrzr45TFLfytuMbxPputtffJdbl1FqTBgoSwGO/LvzCT6kJt9SK7ZkjLRTeVnj8l0s9L0+y+8qJ+2r8itiy6qB3/27u3/p7r4PKt4/5XxzIJpyw79VXQIAKDycBV1Wd3coGT+9gNz/yc6pN4Nzs5PSkaTgyT/O0kfljQtumkcvCTpZyb/QbGoH0y/N/dwdBBqDwMWym5wdn7rZH3yAZm/X6Z319AD4F+Q/Oduut0tuXX60nm/iA6qZzw/o6KMuuw7SbrutJblhz8THQMAiMdzLMvqNyY/tmUg96PoELyaa2Ey1Ll7Z0Z2kJvmSNpX0pTgrFJwSQ+Y7Gey9D8bVus/t1uRWxUdhdrGgIVx98TM61oymcYDZb6/pFmS9pA0ITjrDZnsEcnvTc3vSUw/bd5B91tPrhjdhT/hBKOK85zJz26esu3XuI0WAOrT4Oz81smonSlOEi4Hvs9WoWUdVzQ221u6TOmBnqhLrg5JbdFdb8i06uWTA7VUsp+puO4O3qjEeGPAQrhlHVc0Tstsu7t8dKaU7GXu73DTLibtqJhbwp6V9FvJHpSnD3ii5evXNd7LAwerx3DHTZM9s/ZEuU6UNCm6B7wzDAD1xufc1jCy+ulPu+xcSdtG99QYrnSuMU/Ounb7tNi4dzHxvS21dpl2lfQ2xTwjbp2kRyU9JNcDkt1vrvual//qtxwIgGgMWKhYK9rzTVtN0k6eaBcpmW7yaS5NM1ez5NtJydaST9bLl+Bupdf/fF4jaZVLq0z+gqTn3JIRk1Za6sMue9Iz9qjcHmrrP/TZ8fjPh/IbmtXXJvfzzf0I8fWuEvBsDgCoA0Nd+fcmbotcemd0Sw36rzT1Y6cvz/0yOgTl9+Ssa7cvphN2k3yHVL59Ymp1t+2ltE3Sli57k0lb6uXfhya+zocalfSHV/5njaTnJD0ps4K7P2Xmw2Y2mEmTh7ebUXycu0xQqfiFDjXj0TlXTkxGm151tc0Odxz+gsk8ogmVYbCjd1Ym44vdNSu6BZyOBAC1anDv/C6ZjJ3vUnd0S83htF+8AZ9zW8MTo8Nv+uv/+6rnG1dzuBRqBQMWgLrgWpgUutqPMNeXJW0f3VPvTBqRfGHzwAPf5nJ0AKhuK/dcMqU4cdIJcp2sKniuaZVZLdNX1jw35YJdHz74pegYAIjEgAWgrjzVnt9i/RQ7nh+yK8ZyeTK/ddncO5SPDzkAACAASURBVKNDAACb5pXDU44010WSpkX31JjUza5ptHUnbL/08CejYwCgEjBgAahLg7N6d82kfh63OVQEN6lXo8kJLffNfTw6BgDwxgY7812JabFk+0S31BqT+tMkmd+2dO490S0AUEkYsADUtUK27yBX8VKT7RHdAq2R6eI04xdNvzv3YnQMAODVBmfnW62YXMABKWVRcNOprf3zruL5rQDwanzTAVD3/uyo7/MkvSW6Bxpy02n8AA8AlWNwdn5SUrRjJJ0u1xbRPTVmjaR/aVzj5263IrcqOgYAKhUDFgC8YnB2futk1M6UdLSkTHRPvXPpp5IvaBvI3R/dAgD1rJDtPUTSZZLPiG6pQTcnmdEvNt9z2GPRIQBQ6RiwAOCvDO9z/Tu8mFwq2QeiW8BDbAEgynBH396epIskvTu6pfb4vWa2oKW/++fRJQBQLRiwAGADCtneQ1y+yKS3RrdAL8h04ZrnpiziGHEAKK+hrhu2MS+eIa5ILodnTX5O8wxdbj25YnQMAFQTBiwAeB0r2vNNUyfrCy47R9Kbonugh9x0XFt/983RIQBQa5Z1XNHYkkw9SrKzXNoyuqeWmLTepa+vTf2MnZfnfhfdAwDViAELADbCEzOva0kaGs80+WckJdE98FsTJQuaB+atiC4BgFpQyPYdJKWLJe0e3VJ7/FbLpMe03PPxX0eXAEA1Y8ACgE0w3NXb6e6LJe0b3VLvTFqfyq5M0nWntSw//JnoHgCoRoXO/G6W6BJ3Ozi6pQY9mLodN33ZvFuiQwCgFjBgAcAmcrkVunrnmesrknaI7oGeM/nZPE8EADbe4/tfM7XhpaaTJB0rqSm6p8Y8L9NFL6z2S9tX5NZFxwBArWDAAoAxGu64abJn1p4o10mSJkb31D23X1uiY1v65/04OgUAKpVrYVLoaj/CXBdL2i66p8akbnZNZn36z8335Z6OjgGAWsOABQCbqZC9brpb43nmfmR0CyRJN2fMj5nWn3s0OgQAKsnQrL73WDFdJNOe0S016CdpYsdOXzrvF9EhAFCrGLAAoEQGO3vmJOaLJHtXdAu0TtI3mpqaTt/2zo/8IToGACLxRkv5mOyR1PyUtv7unugWAKh1DFgAUELcmlFxhk1+VvPAA982LUyjYwBgPK3cc8mU4sRJJ3Cre1mslukr6yavunCn2z+1NjoGAOoBAxYAlMGje924VVPj6Mni4biVYpmk+a0D3XdFhwBAuf3psBH7quTTo3tqjLvZ1U2enrjdQG5ldAwA1BMGLAAoo6Gu69+WpJlL3PSh6BbITepV6se3LM89ER0DAOUwku3LpkoXSdo3uqXWuHxApvlt/bm7o1sAoB4xYAHAOChk+w7Sy79QtEe3gNs+ANSeJ2Ze15I0NJ5p8s9ISqJ7akzBTae29s+7ymQeHQMA9YoBCwDGybKOKxpbkqlHSXaWS1tG98AG3fz0tv7uJdElADBWg7Pzk5KiHSPXaZLeFN1TY16UdFlTU9N5HAgCAPEYsABgnA113bCNefEMSUdLykT31Dtzv62YSRZw9DmAalPI9h4i+WJJO0W31KCbM+bHTOvPPRodAgB4GQMWAAQpdPbOlKWLJDsgugVK3eyahobk+Gl3HfpUdAwAvJ6hbH4vkxbz/aMs7jMlC1oG5v4sOgQA8JcYsAAgGO+gV5TnZbrohdV+afuK3LroGAD4c1zBW1bPmvyc5hm63HpyxegYAMCrMWABQAXgGSaVxn7rlh7X1p/7QXQJAPAMxfIxab1LX1+b+hk7L8/9LroHALBhDFgAUEEGZ+dbrZhcYO5HiK/RFcBvTRLNb16aeyC6BEB94hTbcvJbEyULmgfmrYguAQC8MX45AoAKNJLty6ZKF0uaHd1S73h3HkCEoa7r32ae+aqkD0e31B6usgWAasSABQAVyuVW6Oo90lwXSZoW3QOejwKg/B7d68atmhpHT5a0QNKE6J4a84JMF/KcQwCoTgxYAFDhVu65ZEpx4qQT5DpJ0sToHug+M81v6e/+eXQIgNrhWpgUutqPMNfFkraL7qkxnDQLADWAAQsAqsQTHdfv3JBkLnCpO7oFkqSbk8zoF5vvOeyx6BAA1W2ws2dOYr5IsndFt9Qak25PLbOgrf/Q/45uAQBsHgYsAKgyQ13591pql8q0Z3QL9KKkyxrX+Lnbrcitio4BUF2GZvW1yf18Du4oBxt089Pb+ruXRJcAAEqDb5QAUIX+7FaTr0jaNroHKrjp1Nb+eVeZzKNjAFS24Y6bJntm7YncGl4Wa2S6eN3kVRfudPun1kbHAABKhwELAKrY4/tfM7XhpaaTJB0rqSm6p965fECm+W39ubujW7D5XAuT4exurWYNM1JpJ8mnJ7JtlGobSdu4+TaSbSOpQdJWr/y1JklTXvnfV0v644OiX5A0Kvmz5vaspGeV6NlU/myS6gm5Hk0bMo+1Lv3lsGlhOp7/OTF+XjmcY94rbz7sEN1TY9ykXqV+fMvy3BPRMQCA0mPAAoAaUOjM72aJLnG3g6NbIHezq5s8PXG7gdzK6Bi8MZ9zW8PK1c/ulrq/U2bvMvd3eqLd5NpB4z8Mr5PpCbl+49IvzfWLxOyX06Zs86Dd/p7RcW5BCQ3Pynd4qsWS7RfdUoOWSZrfOtB9V3QIAKB8GLAAoIYUsn0Hyf0ymb8jugVaLdNXuI2l8gzOzrda0faV236JfLZLe6nyr2BcZ9L9qXSX3O9Mi8W7drjvsOHoKLyxxzr6mhsSX2jyz0hKontqzLDJz2oeeODbXLkIALWPAQsAasyyjisaW5KpR0l2lktbRvfUPdPDLp3a1t/dE51Sr4a6btjG0uL7zfS3bpoj147RTSXyqGQ/ldIfpQ36z+l3556LDsKfrGjPN02drC+47GxJb47uqTHrJH2jqanp9G3v/MgfomMAAOODAQsAatRQ1w3bmBfPkHS0pEx0D/STNPUF05fnfhkdUg8Knb0zZekhkj4oWVa1//8DRUn9Lv1Q8pvaBnL3RwfVs0K29xCXLzLprdEtNejmBiXztx+Y+z/RIQCA8cWABQA1brijb29P0kWS3h3dAo267DuZ0fT05vtyT0fH1JqRbG97at4t18cl7RbdE8sek/z7lnpPy/LcHdE19WK4o/ftnvilkv42uqXmuP3aEh3b0j/vx9EpAIAYDFgAUCcK2d5DJF0m+YzoFuh5k5/VPGXbr/Fg7s3zxMzrWpLGzKfM7QhJb4/uqUhuvzbzq9alyf+dsXzuSHROLRqcnd86GbUzJR2ll0+lROk8Z/Kzm2focuvJFaNjAABxGLAAoI4Md9w02TNrvyjpdLm2iO6BfpO4jmte1v3D6JBq4lqYDGff+V5T+jlJf+9SY3RTlShKfpubfbN18ltuZDzdfD7ntoaR1U9/2mXnSXpLdE+NGXXZd5J03Wktyw9/JjoGABCPAQsA6tDLp7AlF5j7EeJ7QSW4uZgWF+yw/OOPRIdUskf3unGrpqbRz8vtaMmnR/dUuSdk+traol+x8/Lc76JjqtFQtud9ki8y2R7RLbXHb814w7HTlh36q+gSAEDl4JcWAKhjg535rsS0WLJ9olvqnUnrXfr6xOSlL22z9IjfR/dUkpF9rpuRFhv+UdLnJW0V3VNTTKvc7VrZ6Ffb+j/+2+icajA4q3fXTOrnudQd3VKDHnLTaZzaCgB4LQxYAFDnXAuTQlf7Eeb6sqTto3vqnUkjki9snqF/q/fnvQzvc/07vJg5Qy8PBbV+imC0Ucny8vTs1mW5B6NjKtFT7fkt1k+x4+U6WdKE6J6aYlol6atrnptywa4PH/xSdA4AoDIxYAEAJEkr91wypThx0gn8clYp/F5LNb8eT5Ab2ee6GcVi4ykm/7R4IPZ4S03qKyZ22vSl8x6KjqkEjPxllbrZNY227oTtlx7+ZHQMAKCyMWABAP7C4N75XTIZO5/bYyrGzTaa/FPLfXMfjw4pt6FZfW3m6VlyfVIMV6FeuaX139MGXzj97lwhuifKYEfvrCRJF3GbdemZaWmxaPOnL5+3NLoFAFAdGLAAAK9pKNvzvkS61KV3RrdAayT9S+MaP3e7FblV0TGlNjg7Pykp2jFynSbpTdE9+AtrZLo4zfhF0+/OvRgdM16GZvW1yf18DrooiyE3ndbaP+8qk3l0DACgevANGQCwQRwRX3Fq7he/Qrb3EEmXST4jugWvq+Y+917LcMdNkz2z9ouSTpdri+ieGlOXYygAoHQYsAAAb2hwdn7rZNTOlHSUuLUrXC3celPozO8m0zclOyC6BZvkJ2nRPz/93tzD0SGlxphaNm5Sr0aTE+rhVmgAQPkwYAEANtpwR+/bPfFLJf1tdAuq8+HHr1zVd/QrV/VNie7BmLwo05dfWO3nt6/IrYuO2VzDHX17eyZdLNf+0S01aLmlvqAeD6MAAJQeAxYAYJMVsr2HuHyRSW+Nbql7VXT8/HBXb6d7+m3J3hXdgpK43xL/TMvS3PLokLEY7rj2LZ40fknS0ZIy0T21xKQRyRc2z9C/WU+uGN0DAKgNDFgAgDFZ0Z5vmjpZX3DZ2ZLeHN0DPeSm09r6u3uiQ/6ad+czw4/b8eY6x6XG6B6U1KhM57Xs6OdUy1CxrOOKxpZk6lF87Sq9V06v/PrE5KUvbbP0iN9H9wAAagsDFgBgszzW0dfckPhCk39GUhLdA/1XxjMLpi079FfRIZI0PLNvR28oLuFZV7XO7ymm6RE7LP/4I9Elr6eQ7TtI7pfJ/B3RLTXo5mJaXFDpnwMAgOrFgAUAKInhWfkOT7VYsv2iW6BRl30nSded1rL88GeiIoazPZ9w6V/FVS51waTfuesfW5d1Xx/d8tcKnfndLNEl7nZwdEsN+k3iOq55WfcPo0MAALWNAQsAUDIut0JX7zyTLpZrx+ge6DmTn908Q5eP5+1dPue2huHVz5wr6aTxek1UDpd983dr0i9WwgPeH9//mqkNLzUtFCeolsPzJj+recq2X7Pb3zMaHQMAqH0MWACAkhvuuGmyZ9aeKNeJkiZF99Q9t1+bpce1DOR+VO6XGpydb01GrUfS7HK/FiqZ31kcLeZ2uO+w4ZBXf/m0y0+77FxJ20Y01LBRl30nM5qe3nxf7unoGABA/WDAAgCUzdCsvja5n2/uR4jvOZXg5gYl87cfmPs/5fjgw9m+A1xpXtL25fj4qDorzZRr6e/++Xi+6FBX/r2J2yKX3jmer1snfpKmvmD68twvo0MAAPWHXyYAAGU3ks0fmMoWSdorugVaJ+kbpT4lbKir9x/M/ZuSmkr1MVET1rnps2393UvK/UKDe+d3yWTsfJe6y/1adcf0sEunVuIppwCA+sGABQAYF66FSaGr/QhzfVlcoRPOpBHJFzYPPPBt08J0rB/H5Tbc1XumXGeInyvw2lyms1v6551lMi/1B1+555IpxYmTTpDrJEkTS/3x69xqmb6y5rkpF+z68MEvRccAAOobP2gCAMbVo3vduFVT4+jJkhZImhDdAy2TJwtal829c1P/4or2fNOWU5Jvm/uR5QhDbTHXkudf9M+W6uHurxwacaS5LpI0rRQfE//L3ezqJk9P3G4gtzI6BgAAiQELABBkcFbvrknql0j6cHQL5Cb1KvXjW5bnntiYv7ByzyVTihMmfU/S+8rchlri+n/mEz/asvyQNZvzYUayfdlU6WJxWEDJmdSfJsn8tqVz74luAQDgzzFgAQBCFbJ9B0npIknt0S3QGpkuXjd51YU73f6ptRv6Q4905LecmOgHku03nnGoEaY71hb9wzsvz/1uU//q4Ox8qxWTCzgYoiwKbjq1tX/eVeW41RMAgM3FN34AQLhlHVc0tiRTP+Wy8yS9JboHNujmp7/Wg7cf3/+aqY3rmn7orlkRZagVfq+lox9oWX74Mxvzpwdn5yclRTtGrtMkvanMcfXmRUmXNa7xc7dbkVsVHQMAwIYwYAEAKsbg7PzWyaidKeloSZnonnpn0u2pZRa09R/635K0ct8bthtdP/pfJtsjug3Vz6RfJo2Zg6bddehTr/fnCtneQyRfLGmncUqrJzcnmdEvNt9z2GPRIQAAvBEGLABAxRne5/p3eDG5VLIPRLdAqZtd46ZzkjS9XrK9o4NQQ1y/SBv9PdPvzj331/+o0Nk7U5YukuyAiLTa5vea2YKW/u6fR5cAALCxGLAAABWLKy8qh5mK7lwVh9Iz09LGxqb3b3vnR/4gSUNdN2xjXjxDXIlZDs+a/JzmGbrcenLF6BgAADYFAxYAoKKtaM83TZ2sL7jsHPHsG6BG+Z3r1q/+8ITGKf8g2VkubRldVEtMWu/S19emfsZYHp4PAEAlYMACAFSFJ2Ze15I0NJ5p8s9ISqJ7AJSYa5VMW0Rn1B6/NUk0v3lp7oHoEgAANgcDFgCgqgx39Xa6+2JJ+0a3AEAFezB1O276snm3RIcAAFAKDFgAgKrjcit09c77/9u792C/6/rO4+/P75xcIKIiRJKTRJIK29UIrYYkotCWrbWKso65/FYptUsv0xFXxS4szMC20VHRegNZd3W1W1eLl5PE3Yqz6+x6wRkI5JwTQCCUKkuU3JBLoJCEXM7v+9k/7LTumiLn+vl9fufxmMnf55mZfOb8fq98ft9fyvHRiHhR6R6ALvJ4pPjwEwfyJ5Zvbx8pHQMAk8WABUC1HjrzC/M6c4+7PHJcERFzS/cAFNTklG7o729dtmDLmodLxwDAZDNgAVC93Su/vCSnWR9IOf9u6RaA6ZZy/m6nr3Xpkq3r7irdAgBTxYAFQM/YtXrzeanTXBspzizdAjD10s6c8tWLh9Z/oXQJAEw1AxYAPSXHhtbuVcsvSjk+EhEvLN0DMAUORIqPHjl+/4eW3XTxodIxADAdDFgA9KQfn3PDif2HZ18REe+JiNmlewAmQU4Rm6LJlw1saz9YOgYAppMBC4CetvuswV9OkT6WU7yhdAvAeOXIwynSpYuG128p3QIAJRiwAJgRdq/c/JqI5rqIeGnpFoAx2JMiv3fh8L2fS7GhKR0DAKUYsACYMUZWfGbWQOvESyLSe3PE80r3ADyDIxHx6dmzZ189/5Y3PVU6BgBKM2ABMOPsWvW1k1Lu/GlEvCMi+kr3lJLDCwHoUt/oS/ldC4baO0qHAEC38LoVgBlr91mbXh4pXxcR55ZuAYiIO1uRL1043P5e6RAA6DYGLABmvN0rN10QEZ+MyEtLtwAz0r4U+X0Ll8Z/SBvbndIxANCNDFgAEBE7zx48rtVJ74qIqyPHc0r3AL0vRRzNEf/pyNH+P1t255ufKN0DAN3MgAUAP2Pn2YOLUqd1Tcr5ovB7Epgy+VutaF26cHjd9tIlAFADL8wB4Bj2rty8sonmuog4u3QL0EvSD3LK/3bx0PpvlC4BgJoYsADgn5Ajp92rNv1uyvHhiFhQugeo2hOR4kMH98279vT7zz9cOgYAamPAAoBf4KEzvzCvM/e4yyPHFRExt3QPUJUmp3RDf3/rsgVb1jxcOgYAamXAAoBnaecrBk/r60sfzBHrS7cAfy9H176iTRE3Nanv0sVDa75fugUAatelv+4BoHvtWjX4L1o5XZsjzijdAnSlXTnFVYuG1n0xRcqlYwCgFxiwAGAc8m98t3/vgUd+P0d6f0TML90DdIWDkeIjR47f/6FlN118qHQMAPQSAxYATMCPz7nhxP7DszdExCUR0V84Bygjp4hNMdq6fOCOtT8uHQMAvciABQCTYM+KTf+8aeWPp4jXl24BptW2yK13LxpZe0vpEADoZQYsAJhEu1duuiBFfCJHfnHpFmDqpIi9EXnDwuF7P5diQ1O6BwB6nQELACbZyIrPzBponXhJjvS+iHhu6R5gUh2JiE/PbR3+9ydtvejJ0jEAMFMYsABgivxoxeaF/a28IUX+g4joK90DTNg3+qP17lOG1z5QOgQAZhoDFgBMsT0rNr8i9zXXRY5zputn5vBLHibRfSnyewaG298sHQIAM5XXtgAwTXav3HRBpHx95Di1dAvwrOxLkd+3cN78T6WbzhstHQMAM5kBCwCm0Z4VNx6f+w69MyKujhzPKd0DHNNojvRfWs2Rqwa2Xfho6RgAwIAFAEXsWr15ceT8wZTzReH3MXSTb/flvksXjKy5p3QIAPCPvGAGgIJ2rti0uq8vX5dzrC7dAjPcD3OKqxYPrd9YOgQA+HkGLAAoLMeG1u5Vyy9KOf48Ik4p3QMzSor9EfGxg/vmXXP6/ecfLp0DABybAQsAusTDywefc3ReuixyXBkRc0r3QI9rcko3zEpHLj9l64U/KR0DADwzAxYAdJmdqzed3tfkD+SI9aVboBeliKGm1Xr34q1rbyvdAgA8OwYsAOhSu1Zu/M2IfG2K9LLSLdAjduUUVy0aWvfFFCmXjgEAnj0DFgB0sfwb3+3fe+CR38+RPhARJ5fugUodjIjrZx3M73/h9vb+0jEAwNgZsACgAjvPHnxBazT9WUS8IyL6SvdALVLk4dTXaS+87a0/Kt0CAIyfAQsAKrLnlV95Se70fTwiXle6BSpxw6Lh9ReVjgAAJsaABQAV2r1y0wU58rUp4pdKt0CXe+rg4/Pmn37/+YdLhwAA49cqHQAAjN2i4XU3/t3B/JIU+dL46fN9gGM74bgTD5xTOgIAmBgDFgBUavn29pGB4fZ1EfGl0i3QzZKP3AJA9QxYAFC99GulC6DLvb50AAAwMZ6BBQAVe2jV4LJOTg+U7oBul5p86sC29oOlOwCA8XEDCwAqNhqt3y7dAFXoS68tnQAAjJ8BCwAqlnKcW7oBqtA4KwBQMwMWANQs5VeXToAqpOSsAEDFDFgAUKkHX/7lgchxaukOqEGO/OIfrdi8sHQHADA+BiwAqFSrf9Y5pRugJrNbzdmlGwCA8TFgAUClWim/snQDVOZVpQMAgPExYAFArZr8q6UToCY58q+UbgAAxseABQCVyimdUboB6pIMWABQKQMWAFRo59mDiyLi5NIdUJn5P1n9pVNKRwAAY2fAAoAK9R9NZ5ZugBqNdvqdHQCokAELACrUpFheugFqlKP1stINAMDYGbAAoEI50umlG6BGKeXTSjcAAGNnwAKACqWcl5ZugBql5OwAQI0MWABQo5SWlk6AGuWmtax0AwAwdgYsAKhMjpwi8otKd0CVUl760zMEANTEgAUAldl19saBiJhbugMqddwjKzeeUjoCABgbAxYAVKZ/tG+gdAPUbLRxhgCgNgYsAKhMjs5JpRugZjk5QwBQGwMWAFSndXLpAqibMwQAtTFgAUB1GrdHYEKcIQCojQELAKqTvPmGCXGGAKA2BiwAqEyOeF7pBqhZTvH80g0AwNgYsACgMjnFnNINULNWJGcIACpjwAKAyqTszTdMRE7ZGQKAyhiwAKA+s0sHQM1ydoYAoDYGLACoTErZm2+YgFb4GC4A1MaABQCVcXsEJiYnZwgAamPAAoD6dEoHQM1yzqOlGwCAsTFgAUB9DpcOgJqlnI6UbgAAxsaABQCVSTm8+YaJSMkIDACVMWABQGVyMmDBROSUDVgAUBkDFgDUx5tvmIDUGIEBoDYGLACoz/7SAVCznJwhAKiNAQsAapPzY6UToGopP1o6AQAYGwMWAFSnZcCCCUkGLACojAELAKrjBhZMjDMEALUxYAFAdVpuj8AE5I4zBAC1MWABQGVy6+gjpRugZjlGDVgAUBkDFgBU5ujxTz8YEbl0B1Sq89Sh1s7SEQDA2BiwAKAyy266+FCKeKh0B1Rq9/Lt7SOlIwCAsTFgAUCFcsSPSjdAjXLEjtINAMDYGbAAoErJm3AYh+TsAECVDFgAUKGU3SKB8WmcHQCokAELACqUI7aXboAapUj3lG4AAMbOgAUAFWqluKt0A9So08nODgBUyIAFABVaMO+kv42Iw6U7oDIHFt9+7wOlIwCAsTNgAUCF0k3njUbE35TugJqkFPek2NCU7gAAxs6ABQCVyindXboBapIbz78CgFoZsACgUqmJraUboCqt5tbSCQDA+BiwAKBSOTW3lG6AmqROy5kBgEoZsACgUouWxt0R8WTpDqjEowu3rf3b0hEAwPgYsACgUmljuxORh0p3QBVS3JIi5dIZAMD4GLAAoGYp+UgUPDtbSgcAAONnwAKAiqWIb5dugCo06X+XTgAAxs+ABQAVW3j8ybdGxBOlO6DLPTQwsvbO0hEAwPgZsACgYumm80ZzZLew4Bmlb3r+FQDUzYAFAJVrpfTN0g3Q3RpnBAAqZ8ACgMp1+vL/jAi3S+DYOk1/eP4VAFTOgAUAlVtya3t3ihgu3QHdKX93ya3tfaUrAICJMWABQA9oIgZLN0A3Sil9tXQDADBxBiwA6AEpRgfDxwjh/zeajua/Lh0BAEycAQsAesCi4bfujIjbSndAl/nWwjvaj5SOAAAmzoAFAD0iRfZRKfgZ2ZkAgJ5hwAKAHtGk/r+KiMOlO6ArpNg/Z/aczaUzAIDJYcACgB6xeGjNYxHheT8QETmnL82/5U1Ple4AACaHAQsAekrrs6ULoBv0Rfpc6QYAYPKk0gEAwOTJkdOeVZt+EDlOK90CxeS4a9HI+l8pnQEATB43sACgh6RIOeX8F6U7oKSc8qdLNwAAk8uABQA95uico5+JFPtLd0Ah+/oPH/pC6QgAYHIZsACgx5x68+88Hk38ZekOKCLF9QvuetuB0hkAwOQyYAFAD+pr5U9ERKd0B0yzQ7Oyjw8CQC8yYAFAD1ow1N6RI//30h0wnVKOz79wuP1Q6Q4AYPIZsACgR7VacU1E5NIdMB1SxNG+1PpI6Q4AYGoYsACgRw1sbW+LFF8v3QHTIUd8/pThtQ+U7gAApoYBCwB6WF/Td3VENKU7YIod6Uv5mtIRAMDUMWABQA9bMLLmnhSxuXQHTLHPLhhq7ygdAQBMHQMWAPS41MobwjcS0rsOdkZHP1g6AgCYWgYsAOhxC7e2702R/nPpvgCMYgAACCNJREFUDpgKOeJDL7rjrXtKdwAAU8uABQAzQKe/uToiHivdAZNsV6uZ+7HSEQDA1DNgAcAMsOTW9r6U4/2lO2By5csGtl1wsHQFADD1DFgAMEPsyfs+FRH3le6ASZHi5oHh9YOlMwCA6WHAAoAZ4qxtf3y0yfH2iMilW2CCRnPO70yR/FsGgBnCgAUAM8iSkfU3RYq/LN0BE5Eirlk83L6zdAcAMH0MWAAwwxzq5D+JCN/aRqXSDw7P2//B0hUAwPQyYAHADPPibe2/i8h/UroDxiHn1Lx92U0XHyodAgBMLwMWAMxAi4bbX80RXyvdAWN0/eKh9ndKRwAA08+ABQAzVGfOkT+MSDtLd8CzdG/Tn68sHQEAlJFKBwAA5exdOfjrTaTvhP/Uorsdzqlv9eKhNd8vHQIAlOHFKgDMYAuH299LEZ8o3QHPJEW+wngFADObAQsAZrgDj8+7KiJGSnfAseUbFw6v/2TpCgCgLAMWAMxwp99//uGI0TUR8UjpFvh/pLj/yNFZb0uRcukUAKAsAxYAEIuG37ozp/yWiOiUboG/93Q0qb3szjc/UToEACjPgAUARETE4qH2d1Lkq0t3QERETunti0bW3VG6AwDoDr6FEAD4Bzly2rNy01ciol26hRnto4uG119eOgIA6B5uYAEA/yBFykfm7f+9iNhSuoWZKUfePDC8/YrSHQBAd3EDCwD4ObtWfe2klJstEfmflW5hRhlJzdxfH9h2wcHSIQBAd3EDCwD4OYuH1jzWaUbPD99MyPTZ0d86+kbjFQBwLAYsAOCYXrTtLf8nt1r/MlLsL91Cb0sRe5tOfu0pWy/8SekWAKA7GbAAgH/S4q1rb4um9bqIOFC6hZ71RBP5/CW3t+8vHQIAdC8DFgDwjBaNrL0ltWJNRBwu3ULPeTKl9FuLh9t3lg4BALqbAQsA+IUGtq7/Xymn34mI0dIt9IgU+1OT3zAwtG6kdAoA0P0MWADAszIwsm5zTvHmiDhUuoXqPRE5fntgW/vm0iEAQB1S6QAAoC67Vm8+L+Xm65HjOaVbqNK+JufXLxlpD5UOAQDqYcACAMZsz6qN5+Yc34iI55ZuoSoPNU1+7ZJt7btLhwAAdTFgAQDjsmfVprNyzjdGxILSLVThvv5oveGU4bUPlA4BAOrjGVgAwLgMDK0bafrzWRH5+6Vb6HpbUnP0XOMVADBeBiwAYNyW3NrePXv2nHMj4pulW+hOKWLjkXn7f3Ng24WPlm4BAOrlI4QAwIRtXz44+/nHtf5jpPwHpVvoGjlSvG9gaN17U6RcOgYAqJsBCwCYNLtWbXxbyvHpiDiudAtFPZlS/tcDQ+3/VjoEAOgNBiwAYFLtWbH5FbmVN0fkpaVbKOK+1NdZM3DbW/6mdAgA0Ds8AwsAmFQD29be3jertToivl26hemVI/6q7/DTZxmvAIDJ5gYWADAlcuS0d+XGd+VIH46IOaV7mFJPppz/zcBI+4ulQwCA3mTAAgCm1ENnfe1lTep8KUecUbqFyZdSbO2M5ouW3N6+v3QLANC7fIQQAJhSC0bW3BPN3FdGxKcioindw6Q5nCP+dOHxJ59jvAIAppobWADAtNm9cuOrIuKzEfHS0i1MyJZWK//Rwq3te0uHAAAzgxtYAMC0WTS8fsveZt+vRoorI+Jw6R7G7GCkuHJgaf414xUAMJ3cwAIAiti7evClTZOujYjfKt3CL5Qjx1dyX+vfLd66dlfpGABg5jFgAQBF7V65+TURzbURsbx0C8eSb09NvHtgW/vm0iUAwMxlwAIAitu+fHD2845P70wRV0XEiaV7iIiIPRFx9cDw9v+aYoOH7wMARRmwAICu8cir//qEI0ePXBI5royI55fumaEejRQfbfryJ5fc2n66dAwAQIQBCwDoQjvPHnxBq5PeFTneExHPLd0zQ+yLFNfPTYc/ftLWi54sHQMA8LMMWABA19r78sH5TV+6JFK8IyLml+7pUQ/mnK6dM2fW5+bf8qanSscAAByLAQsA6Ho/PO1/zDnuBQf+VWrSlZHyS0r39Ib8/ZzSxx/q7PvyWdv++GjpGgCAZ2LAAgCqkWNDa9dZL3tdK5o/ipTeGBH9pZsqcygiNrcif3bhcPt7pWMAAJ4tAxYAUKWHVw4uOJrS70XEH0aO00r3dLn7IsXnU+foXwxsu/DR0jEAAGNlwAIAqpYjpz0rN52dI7VT5HURsah0U5fYERGDkdNXF42su6N0DADARBiwAICekWNDa+/KM87J0bQjxRsjx6mlm6bZD1PE1zs5Dy4ZaQ+VjgEAmCwGLACgZ/1k5eZf6kTnNTnSBRHxmoiYW7ppkj0dkW+JlL7VSvnGhVvb95YOAgCYCgYsAGBG2LPixuObvqdfGTm9OkW8Kn7657mlu8bo8Yi4JUVsiRQ3Hz5+//Cymy4+VDoKAGCqGbAAgBkprx/s2/Vga3mryStSijNyjjMj4syImF+6LSIiRezNOe6OFHflFHf35bRtwfDae1OkXLoNAGC6GbAAAH7GwysHF3QifrmTWktT5GWpiWU55aURaUlEnBwRJ0zSj3oyRXqkibwrRdoR0exIOXZEjh0Ro/f5tkAAgH9kwAIAGIPtywdnz5vbd9LclE7KafSkJvpmpdQ5oYnUn5rUn1JzQkREzq2nciuPtiKP5tz3VCs6R1Puf+xQzo8dONR5bPn29pHSfxcAAAAAAAAAAAAAAAAAAAAAAAAAAAAAAAAAAAAAAAAAAAAAAAAAAAAAAAAAAAAAAAAAAAAAAAAAAABgZvq/Q6GXFOoc23MAAAAASUVORK5CYII=;" vertex="1" parent="1">
          <mxGeometry x="355.75" y="378.86" width="97" height="97" as="geometry" />
        </mxCell>
        <mxCell id="ZuG04GfCBI8IsP-wyvSk-2112" value="" style="points=[[0,0.5,0],[0.24,0,0],[0.5,0.28,0],[0.995,0.475,0],[0.5,0.72,0],[0.24,1,0]];verticalLabelPosition=bottom;sketch=0;html=1;verticalAlign=top;aspect=fixed;align=center;pointerEvents=1;shape=mxgraph.cisco19.key;fillColor=#005073;strokeColor=none;" vertex="1" parent="1">
          <mxGeometry x="138.75" y="410.37000000000006" width="78.06" height="35.13" as="geometry" />
        </mxCell>
        <mxCell id="ZuG04GfCBI8IsP-wyvSk-2114" value="GitHub Personal Access Token" style="text;strokeColor=none;align=center;fillColor=none;html=1;verticalAlign=middle;whiteSpace=wrap;rounded=0;" vertex="1" parent="1">
          <mxGeometry x="117.50000000000006" y="370.00000000000006" width="122.5" height="30" as="geometry" />
        </mxCell>
        <mxCell id="ZuG04GfCBI8IsP-wyvSk-2129" value="" style="shape=image;verticalLabelPosition=bottom;labelBackgroundColor=default;verticalAlign=top;aspect=fixed;imageAspect=0;image=data:image/png,iVBORw0KGgoAAAANSUhEUgAAAf0AAAE5CAIAAAAV1259AAABdWlDQ1BpY2MAAHjarY4xS1tRGIafE2NVDBhKsA4iBxTpcFNSHTTWJSZgIg4SLSTZbm5uonCTHG5OSPsD3Fx0EF0U9S+ILg6O4qCDIAjB3yAIgpRwO1w0U9ul7/R8z/B+LwS0qZQTBKo17WYXF2QuX5B9bQYJ8ZE5PplWQyVWVpb5Y17uEQB3UVMpp5x5fZjfbB2efljaH5vTBn/PYMluWCD6AavUsKogHMCwlKtB7AHRllYaxBUQcXP5Aog2EKn4/AREirl8AQJBIOKuZZMQGAHCRZ8/A+GKz7NA2Fo3SxBIA4a/AYCBdErOxOLRBP85Vaf59kMAIbv2fRUIA6OkSSGZIUacKAlt/9AAybr66W5U1rVMKOXYMlmvqqa2XUNmatYXQ07FvsYAcvmC9KufswhADN92Xf0I4uPQs9V1xV04v4CR666bOIChb3B2o0zXfB8uXoL/uhvl6SmfQwvQ++h5z5PQtwOdbc/7dex5nRPoacOl8xskd2nglz68fAAAACBjSFJNAAB6JgAAgIQAAPoAAACA6AAAdTAAAOpgAAA6mAAAF3CculE8AAAABmJLR0QA/wD/AP+gvaeTAAAAB3RJTUUH5QsSBzEbTupWTwAAb7JJREFUeNrt3XdgFMXiB/CZrVfTe++9h5BAgNBClyZYaAKKoChY4YdgQ0FBEcUCglKUDopI7733TggQ0ntyuX63ZX5/HC/y0PceIZdcjsznD+Xqzk72vjc3OzsDEUIAwzAMazUIWxcAwzAMa1Y49zEMw1oXnPsYhmGtC859DMOw1gXnPoZhWOuCcx/DMKx1wbmPYRjWuuDcxzAMa11w7mMYhrUuOPcxDMNaF5z7GIZhrQvOfQzDsNYF5z6GYVjrgnMfwzCsdaEa+gKO48xmM4TwwTtpmqZpuqnLKoqiyWQCAEil0masor8IgmAymcwms9FkZBmWlbBSqdRSFQgho9GIEJLJZNbaFkmSNtlNDMOebA3LfYTQuXPn5s6d6+LiwvO85U4HB4e2bdt27tzZ19f3oe8D66qoqFi0aJGzs/OkSZOadEP/qK6u7tzZc5s3b76Ve4sgCABAUFDQ2LFjY2JipFKpRqNZsGCBuk4994u5jd9Wbm6uRqNJSkqybAjDMMyKGtzeFwRBKpOGh4f7+flZbhYWFm7duvXevXuvTXzNydmp6coqCAJN082f+ACAurq61atXHz58OCQkZOLEiQqForq6eu/evQsWLHj+ued79eplaelXVFQ0flsmo2n69OkDBgxISEjAuY9hmNU1OPcJgjCbzBkZGampqRBChFCdqu7AgQOb/thUUFjw6Ln/934MURQtyf73J5vNZoZhaJomSfLvuW82m0mSbEyvCMdxEEKK+ufaEEXx2LFj586di4uLGzNmjIeHB0VRJpMpKipq1qxZx44di4yMdPdwBwCwLPvfd0QURZ7n/9O3F8/zFEWRFCkikWXZ/1QeDMOwxnicZBFFUSqVKhQKy02FQhEZFUkQRF1dHQBAo9Fs3LgxLCwsPT2dYRgAwK1bt/bs2dOvX7/AwMCdO3ZWVFZ4enreuHEDAPD8c8/v3LXTy8tLqVSePn0aQggJIrtbt+iYGMub37p16+DBgzqdTi6XsyxbXV1dv11BEM6dO3fmzBmz2UwQRGBgYLfu3ZUKxZ49e65evTpu3DjLM8+dPXfs+LGsrKzExEQAQH5+/p69e5ISknz9fHfs2BEXF1dYUFhQWAAh9PT07NOnj6Oj40P7W1FRcf369Zqamo8++sjHx8dyJ8uysbGxaWlp58+fV9Wp3D3cIYQGg2H//v2XL18GANA03a1bt6ioKMvzi4uLDxw8UFNdY/nC8/Pz69Kli7OzsyiKixYt8vPzMxgMJSUlHh4edXV1Ls4u586dq66uHjhwoKenp60PEgzDnihWaFFWVVUdP36coqiAgAAAAMdxZ86cYVk2NTWVYRiEUFVV1cGDBzt37gwAuJd/7+TJkyzLCoKg0Wief+75K1euHD16lCAIiqJEUTQYDAX5+ZMnT/b3979y5covv/xSWVnp6OhYf+I0KCgIQshx3K5duzZu3EiSpJeXV2Vl5fnz5wvy80eMGGE0Gk+cONGuXbuMjAyTyZRzK+fEiRM8z1tyv7CwcPMfm9Pbput0up07d545c4bneYlEYjKZLly4YDKZRowY8VBDu6KiIi8vr2PHjpaurQe98cYboiiSJGn5zjObzWvXriVJkiAIo9F48uTJefPmeXh43Lt379tvv62trZVKpS4uLqWlpefOnTObzAMGDpBIJAcPHnRyckIICYIQGBhYVlZGkmRtbW1tbW2vXr1sfYRgGPakeZzcVygUCxcu/OGHHwiCEATB0hgfNGiQpS0MIWRZ9sGOaQghwzCWng2CIEiSbNeuXY8ePUwmk7OLM0EQNE0PGDCgZ8+eAIAlixefOXv2Xt49Nze3s2fPFhcXjxkzJjs722Qy/f7773v27LG8Z3l5+c8//xwfH//iiy8GBgZyHLdkyZIDBw8mJCaGhYX5+PhcvHgxIyOjqqqqsLBQoVDk5OSIomg0GgvyCzw9PYODgssrygmC8Pb2HjVqVFBQUHV19ZtvvllZWVlTU+Ph4fHQLiOE/v47wLJrD/Yvmc3mkSNHduvWzWw2r1+/fsuWLaWlpR4eHnl5ecXFxRPGT+jcpbOl8F999dXdu3eNRqNEIqFpWiqVPv300yEhIRRFubm6DR8xfOiQoUOGDrH14YFh2BPoMft5QkNDPTw8IISiKNbU1OTn59+8eTMvLy8iIgIAgBD6T69FCDk5OWVmZtZ3mHAcFxwc3LFjR8vNxKSk02fOUDSl1WrLyspCQkK6dOkCAGBZtl27dleuXLG8+Z07dxiG6dmjR2BgIACApumhQ4devnw5JycnLi7O2dm5pKTEZDKpVKri4mIXF5e6urri4mKGYa5cvZKZmclKWEv7OiMjIygoCADg6upq+b3yjz3voii6OLv892pBCEml0m7dugEAGIYJDw93dHSsrakFAISFhb366quREZE1tTUGvaGmpsbV1VUURcu2OI6Li4tLS0uzjE81mUyiKIpIxEM5MQxrCo+T+0ajsWOHjskpyZbc12q1586d27lz5/Lly2fPnv0/X84wTH0fvQVN05YzogAAURQt/zAYDJWVleHh4fVPc3FxCQwMtAzhr6urc3JycnigDS6RSKKjo6uqqliWDQ8PP336dF5enkqlomm6Y8eOO3fuzMnJCQ4KvnXr1pAhQ2iaRgiRJPng2df6TT/E8k1TUlry94dMJlNVVZWnp6clwR8cvO/g4KBQKkpLSwEAbm5uVVVVh48cLioqKiwsLCgoUCgUsbGx9e8vlUrrawDDMKxJPWZ7X6FUODk5WW46OzuzLHv37t1Tp06ZjKa/t5cfGowoiuJDCYsQsvSSP/Sqh4bEQAjr35zneYTQgz8sEEIcx1nev02bNrt277p48SLHcaGhoWlpaQcPHrx65arBYPD29q7vxrFs93/ur6Ojo7e3t6Wn6KF9OX/+/O7du3v16mX5oVN/TcP90gJIUiQA4MTxE6tXrzZz5vT09H79+jk6Ou7fv18QhIfqBI/axDCsGTzmed2Hwt1kMmk0GqlUSjO0wWgAAFjObVqeqdVqHyPRWJZ1dna2DPuxsHQoeXt7AwB8fHxqamrUanX9owaD4cqVK+lt20IIw8LCzCbzyZMnjSbjkKeHeHp6Ojo63sq9defundTU1H/sqf8vvDw9A/z9r1+/vmvXrt69ez/40OrVqw0Gg2X8JfinPiIIodFoPHnqpJOT0yuvvOIf4M8wjFar3bdv33+/FqG+AjEMw6zrcZKFoqmC/IJ7effy7ubl5+efOHFi8eLFd+7ciYqKIggCIUTT9MGDBwsKCgRBuHLlyk8//dTQ2QtEUXRxcQkLC6uqqlq2bBlCqLa2dv/+/QUFBZasDA0NdXBwWLVq1bVr13ie16g13333nSiKiYmJSoWCIIj27dtrtVqO4/x8/QAAqampBoNBq9OGhYY5ODg0qDASqTQlNdXHx2fdunVr1qypra3leT4/P3/atGl1dXXJyclJSUmWXx5/P7FRf7/BaCBIgqZpo9G4ZcuWq1evlpSUmM3mv29O4AUIYVlZWXl5+X85U4JhGPZ4GtzeF0VR4IUNGzes+GWFJZUkEomnp2d8fPzYsWMBADKZrFOnTps3b546darRaHR0dIyKirp3757lyRzHWTro6xmNRkv/jAWEUKfTWU5pZmRklJSUHDhwYO/evXK5XCKRyGQySw+Ps7Pz6NGjN2/ePH369KCgoDt373h5evXs2TMmNhYSBACgU8dO+/bti4+PVyqVAICE+ISFCxdGRkZ6eP7VyaPVah8MVsvUQ/8YtYmJif2f6r9v/74//vhjzZo1PM8zDOPk5JSWltajRw+5XF5XV2c2mx/s50EIGQwGS/20b99+7dq17777blRU1K2cW37+fgEBAbfv3DboDQAAjUYj8H/1+dAMHRgYePTo0dWrV//4449xcXG2PkgwDHuiwIa2KAsKCq5fv/5gXzxBEI6OjpGRkZaEBQBoNJqLFy9WV1fzPOfm6h4YHHg793ZCQoKnp+e5c+c0Gk1qamr9k/ft26dQKNqmtYUEBACUlpZeuXIlMjLSMlCntLT06tWrdXV1JEH6+/ubOTNN023atIEQCoJw69at27m3TSYTRVMeHh5xcXH1bXm9Tn/o8CEPDw/L/Dk8z+/Zs8fFxSU2NtZyVrmqqurMmTORkZEhISGWlxw7dgxCmJCQ8NBp53p37tzJzc01Go1IFCFBKJXKtLQ0yxaNRuOFCxfMZnNWVpblyeXl5VevXvXz84uMjNTr9ZcvXy4tLRV4XqFQBgQEUDR1+/btlJQUT0/PHTt2+Pr6JiQk1Hf75Obm5ubmCoKQkpLi6+tr64MEw7AnSoNz/9EJgiAIguWS3UbizGZIEP84bwESES/wlssCmrSmHtwvhNBDI/cf8YWiKDbDxKUYhmH/RRPmPoZhGNYC4REjGIZhrQvOfQzDsNYF5z6GYVjrgnMfwzCsdcG5j2EY1rrg3McwDGtdcO5jGIa1Ljj3MQzDWhec+xiGYa0Lzn0Mw7DWBec+hv0NnrwEe6I95rorGPZ4bpSK206Z8wt5SMCYMOqZDoyLHDb+ba3FdOyg4cABrrQU0rSsUydZ/8GAwvPoYU8a3N7Hms+Pu0wxc7TLjnNHitHhQvGbvWbXtzS/neL+0/M3b9789ttvP7gW5smTJ6dNm/Yo25r/1fzdu3c3oHACXz2sX03fLob1y4QT+/lDO+refK68ZwfT2VP/5UUajSYrK2v16tX/acHOQ4cOFRQU/M+N6/X6+fPnX79+3co1jmH/BLf3sWay5zy37Kg5TQqpfzU2ZCRIc4FfbzEmBJLhXv/QBIEQSiQSCCFCqKysTBCEmpoaqVQKADCZTOXl5ZZ12SxLIFRVVWk0Ggihq6urUqkkKbJBE2Wrv5pjPrwNxiYAcP/3B5QliiV52k2/UQFBpIfnP74qPz//8OHD6enpnTp18vPzAwAYjcaKigpRFF1dXSmKGjV81LoN69zc3IxGo4ODA0VRtbW1NE3L5fLq6mqNRkMQhJubG0EQBEH8l3U3McyKcO5jzUFjRBdzuVojcP335RhIAqh5cOiCOby35O+vgv9y6dKl+fPn+/r4Hj12tEuXLgCA9evXHz16VKFQeHl6vTrxVZVKNWfOHEdHx5KSksjIyHfefqdBqxOL1ZX6ndugb0x96N8vgJMXv2OdecBg6X/I/Y0bN65bt06r1d65c8fPzw8htGb1miNHj7AsGxQY1KFjh4LigpOnTjIsc+TIkWHDhrm7u2/YsCE0NDQ4OHj+/Pl+fn5XrlzJzs5+5pln/nF5CQxrCrifB2sOhRXi2WLk8LdkgwAgBO6WiGrjP78QQiiK4g8LfxjQf8C096a9+OKLEMLCwsJlS5e99dZb7733XmFx4ZkzZ2pra3v06DFjxozXJr72+++/8wL/v0r0b0ynTwK9GhB/+31AEGJ1AXfnNjL9Q/nUavXhw4d79eqVkJBw8OBBg8FQXFy8avWqDz/88OOPP5ZIJZGRkYMHD+7Zs6eLi4ter7+/LZPJZDSpVKqhQ4e+9dZbkyZNOnLkyD+utIxhTQQ3MbDmwPFAawb/2ItBQqDjkNaIHCT/3MuBENLr9MnJyQqFIjIisri4WK1WHzh4YMGCBVKpdNXKVZ4enm+//fb+/ftnzpxZXFysUqka1NgHAIg6LeA5QP/Dbw4gdUW1VcBsBuzDjx47duzAgQOfffZZUVHRypUrx40bp1arExISLEuETpgwgWVZiqJkMtmDfTgUSTEs4+vr+9tvv23fvr2goMDLy8vWfx+sdcG5jzUHZwcY5gqKawH1t0A2iMBPCX2c/mPXNoRQVauqU9cBABBAAACe5197/bXPZn3Gsuy4ceNIkty4cePt27ffffddgiBmzJjR0FXk6NAwIJEDjgN/PyWQU00lpEKlw99ftXTp0vXr1yfEJ/A8HxQUtGvXrrS0NKPx/i+D/fv3x8XG0QxNURRCiOM4S/TzAq9Wqw8dOqRWq19//XW5XD516tSGflFhWGPgow1rDgFuRFY4qRYfHhkvIODEgLSkf16EWRRFs9kMIezZq+fGDRtv3ri5dt1arVYbHBx84/qNAwcP5NzKefPNN0tKSkwmk4uLi1Qq/fPPP5cvX67T6ZCI/tMYm79jktPIqHikrX34AYOWfuFZ5p/a45cuXjp65OjQoUMjoyJj42IHDhw4duxYd3f3goKC7du3nzx58ptvvpEr5GaT+ciRIwaDobKy8vjx42fOnJk0aRLDMGazOSgoSCqVzpo1q6ampqKiAiGEFz3Fmgf50Ucf2boMWKugdCAMdeK+IlFOQBICBIBBAJc59Hob5vnOzD+29k0mk5OTU2RkZFxcXHFx8ZmzZzw8PFJSUmJjY9u0aXPs2LHr16/36dOnZ8+enp6et2/fPnbsWGBgYHZ2dlhYGEVRnp6eHh4ej1g8JjjYdOKImH8BSpwBQQBRRJpqgmHkr70rSUsHfxtpc+vWrS5dukRHR1tuOjs7R0dHe3l5ZWdnHzp06Pbt2y+MGhUZGenq6pqfnx8aGhoXF3f61On8gvxhw4YlJiYGBwefOXPm6NGjqampERERPj4+MpnM29vbMjYJw5oUXlcdaz4FVeLJK9yWq8KJUsGJgZl+RM9Ysm0c46Z8zPGLCKEHxz4+dLOhTBfOGk+f5nb9wZ/bQwTG0d0HSHo/JYmK/sdOHgyzXzj3sWbFi6CkSjQYREhAhRz6uLSsnkak0/EV5aLJBCmScnIm3NxtXSIMsz6c+xiGYa1Ly2ptYRiGYU0N5z6GYVjrgnMfwzCsdcG5j2EY1rrg3McwDGtdcO5jGIa1Ljj3MQzDWhec+xiGYa0Lzn0Mw7DWxTrzMOv1+mPHjqWnpzs4OPA8f+rUqdzcXJIkO3XqZJmLHMMwDGshrNDer6urW7ZsWY8ePSwzj1+4cGHx4sWBgYE6rW7SpEmi8Khz4WIYhmHNoLHz8+h0ug8++ECv15eVlf34448eHh6///67VCrt3bu3Rq1JSEi4fPmSEk8ti2EY1mI0tp9HJpPNnTuX5/lPPvnEsszF4MGDLQ9t275NBKJMLrf1PmIYhmF/aWzuQwhJktRqtSaTqf5OjuN27Nixbt26Pzb9Qf77wnUGg0Gv0QJVHSIgAAAgBAEgAJBAUWz0xKAQAAKB+lVcEQC8TMbJFUj82zpPLYxl1ni7mxuVIIhHX9OqJbDHesaV3Dzsup4hhHK5nGXZR3yt9dfX5Tjujz/+OHjw4AcffJCcnPzwozxfW15ekhDvFBwriiI0mIBgKolo49a5Y4APoAgg8o97vBAEKC7iF81HegAYACAAJDA98wIa/CwTEwcIAgmC1XfWKiCEOp3OslKgHX1aCILIy8sLDg62l08LhFCtViOEHB0d7aWe7bGS8cHcDB46mCGELMvaMvfPnj37wQcfzJkzx93dPf9evn+A/4NrRjsoldKwcO2E93y2zka+EVBEQlnxkohFSJmW6QUzk+hAbxKIj3XAQEKorVazUtOi2TAwFpn04EaefO0KmpWwapW8WzZwcWuiv0HjqVQqtVrt7+9v64I0TFFRkZ+fn61L0QCVlZU8z3t7e9u6IA1gd5WMD+bmUVFRIYqi1z8t/vw/WSf3RVGsq6uzpPW8efNu3rz50ksvubi65NzM0ajVCqXywSfTUjbwvUm3Pb25hT9xnqHeC37uH5I5b7fwwwlheCGRnUI/24GWkI9TDEqpdBw/Ue/qolq/VNmuu3TpOCCiuskvmL79UT92hLz/QFnvfoB51K/E5oTX1G4eovh4bQqsAXAlN4/GhEZLWW9LawR7L3OrDpuPl4mRTvDN3mx2AiWhH3Ot1BOnTrVLT6+/adi2Wf3Nl+LVo2RKlsM7M9h2HSArsfUe/5va2lq1Wm131zqcPHkyIyPD1qVogPLyckEQfHx8bF2QBrC7Sq6pqdFoNPhgbmrl5eWiKD7ej9eWcr2uQgIGtqV/GC9b8LTERwoHrzGO+N5w8gZfp3+sr6V//zKT9h3guWW3cvZi6Olf2yW7+oUhpksXkUZj653GMAyzgZaS+xbuSvh0O/rjEdLV/RkWoQ7LjR+sNVy8zdfqGpb+//AzgZUqRo9z+XiWYs1KxCqqk5Lr5s8x5dxEWpz+GIa1Li0r9y1CPYmnO7KfPC9Z1Ye+WS5mLTEu2W48f1vQmRr7zqRfgHLos04fzVauXWX+7cfavtHqX5aZLpwDPGfrncYwDGsm1h/PYxUEBCFepK8r2TmB/v2k+dWDfOfrhn7xVOckOiWEfMxefwuSooNDKB9fSbtMw29rDRMnG7PbS556WtqhE5Pcxtb7jWEY1uRaYnu/HksDT2diXA9J4buyxBDynWP8qz/rZ20w3q1s7LloyLJ0QKDD62+73Mll4+L1k96ueXW0esE8objQ1juNYRjWtFp07ltQJPBzI74eKc15R9Y3ntpxmQt9X/P5ZlNBpSg0Mv8pig4Jc/pqkfv1q2zX3vofPq0MCVAv+JIvKQJiC73IC8MwrJFaaD/PP4rwJqY/K+11R9hzxrz2rHntOfO7XdmOMZSPG0E17vuLio51nvWFsUs3/dEj+sVzjet+lr32nqRzV8rDC5CPdSkBhmFYS2VPuQ8AICFoG0bG+Ek6xAsHL3HTd5kSz3AvdaASw+gAd+KBpz3OxdaS7r3Ytu2MHbMM+/dqho0yPtNHOvoVSWIS6eP7j0OEMAzD7JEd9PP8nUICs+Ko1/pLfh0uCXUj+q83ff6bYddZrlKNAADFteB8kfO1IsQ3PPyhg6O0Ww+nN95x3LcbyhV1fZ5SzZuj3/anWFUJAOBuXDMe3s/dvA44PP4HwzB7ZWft/Qe5KmFmLJ0USvVNoT/bZRqyxvhKDBnsQVwrEi6Xeu+9q+8dTw7qxDrLGtxUJ9w9ZJ27SlLa6Hv21y/4RP3bd8Zn3yQCAriTx1FpAXD3lvYfrHhqIFQoG/rOGIZhNmfHuQ8AICBQSmG3RKpjLLXxJLfquHlzDicnAEOQd6vFr4+Kod5kViL9WG9NEk7OimeHy7r31P22zrBmubC1CMqcAEmB2mu6t/5g2+cxOPcxDLNDdtnP83cMBYZ1oL8cypoIwBKAgIAlQZ0BFJYLfOPG/BCubsqXJ8rfmg4lUkAzgCSBRIZowJ06BuxkylYMw7AHPSG5bwFJGOYA64NeSYLz+eKlO7za0Njx/qSDA3R0+9fgTgScg0yHD5hvXEMata13GsMwrGGeqNz38yCeT6VLBKDmYLEJBLoROdXiuF+NS7YbL9wRTPzjvzOTlMJ264VOXUNVRaj0MuUfwJ3cXzskTb3iZ/O1K8igt/WuYxiGPSr77t9/iEICh3ZkIv2oLceLOyR4JwWTRg7tv8LPPGTefl0Ymkx1TKRj/B9nmgfC0Uk5/nUmPZO/foWKSaAjo1Btjf63NbrX3zL1z2Z7PSXr1JmOjcPDPTEMa/meqNwHADjIYIdYUlSVdUwPsGRwoCfZNYFacpB7Zav5qct893jq6Q6sr3ODA5p0c5d17Y46dIKWXn7/ADoiSprdR/PVJ7pXJxn7dpN076F8bgThZU9zu2MY1go9Uf089RhSqM91hgLhPuTcYZLz/ycP9yEWHuG6f6H9bLNRawQN7vUnSCiR1l/BCyUStkOW29ptLru2kW5u+u8/qojx1Sz+XsQz+2MY1oI9mbn/j/0tyUHk56NkP42VPhNNrTvNJc3WbjhqqtU+zuVd/4ZhJT36uH690Omr1dSzY3VvvlbZJUa/Y5tQXWXrSsAwDPsHT1o/z39HEyAziooNIHvcE/44aR63het5hh/bkY4LpvxcG/UVCJ2cpU8NZJKSjT37GP5Yr+7Tj3q6l+zN99jgYNLHnhZrxjDside6ct/CSQYzY6gQH6J/ofDrMe75jeZnA7iBaXRyBO3p2Li5/f0D5f6BbGKSaeBQ/ZJv6jp0Yt94RTrkOTY6lnBxtfV+YxiGAdA6c9/C24nwdiJigqihudxXe7nn15teiuR7tGHSoyiHxi26TgWHUr7+bGYnw5ZN2hcnmPdvZgaMlHXrIWnfEdCPdfEwhmGY9Typ/fuPylUJuyczG16Xf9WX/fK68Opqw3sr9IeuC429EpdhKHcP5agXPbVaplNP0ydzVG+8VPPWq+bzZ2y9xxiGtXbWyX2EkE6nE/81b4HJZKqrq1Or1Qg19kLZZgAhUEjBmM5M9SeKN7ow+dVi5+91Q77RnczhuUYuvkJRhFzu8u1Sj+IiduDz5quXq1Lb1owbxt+9jfhGXEWGYRjWCFbIfUEQzp8/371794qKCgBAXV3dvHnzXn3llS6dOx8/ftzWO9gALnI4sTf71RjZj30ZwoTaLdB/utF4JY/XGhs9zYOPr/OHs5y/+l46/wvuzJHK0HDNkoXcndugPv1JEuEFXjAMaxaN7d/nOG7Xrl2rV6+uqqoiSRIAcOLECXWdeuHChTdzctLT0zmOoyh7OosQ7k0Eekg6xAtdL3I/n+M3XuZeyaA7xtGeLrCkXDToRYkUhvtTDg2f3plNbsPGJRhS04zHj+hfm2RIDZZNmyuJiaW8fdC5s5RKZaosZ6JjoaRxpxceIFZVmvLuihxPSlhJXAJgGFvXLoZhttfYREYIeXt7T5kyZfny5ZZ+ntOnT8fHxzs4OqakpGRlZel1OgdHR1vvZsMwJIjxJwM8yI5xwpaz3BcnuJ1X+URf4kCeeKJWTFbCce3oEZ1ZZcOjH9CMtGMWG59gyupi+H29ZvBQ07NPkW3a8WsXU+X3VD5hspffUb443ip7Iep06kULjKu/R7m1RIK/8MF8+YCnbV21GIbZXmNzn2GY1NRUrVbLsqylN5+iKBdXF8s/WOs1XZufggXxwWSEP9k/XfLTHuPma5ycBO3kkOfBtP1cZhSTEPKYgz4JJ2dpRqY0MYV7+hnVZx8bf54PnbxAQCLied1nr0OZhHByBmIjOpcgAABwt28bf/0GuATCtgHIqNet+EmSnEoGBNm6Xm2JJEm7OOdk1wiCIIjWPmCkGTSmkq3TAyMIQv1JXY7jampq7j/wt89YSUlJXl4e2cR92YIgnDx50ipvBSEgCdGP9ZRT7gSAAACKAD4E3HU8T1tRScFG5DNBIJJ1joh2zr+DLH9CigKuEdpP3wUkDRobTxCIAnAJApZ3lsjEovyyCS8YImPNPn5mvwBjYMj9hyD8678IAIAefdNWrOfmgRBCCN27d8/WBWkAO63k4uJiWxekYeyxngEAeXl5CCGSJENDQ11dH/UiIev3vAcEBFRVVQEA8vPzDx4+9FDnvo+Pj49Pk89cdvLkyYyMDGu+o4u4956+UotYEggIQIB2F3n7BwcNaEtKGzcinzPpqr5YANPjAEkCngM1eYoPvyMcnRud+4C7c9uwaDZw9gckCTgzlEjYoAjm9i10eCe6lAcEQHWKp1Pa07EJVGwCFR4FGQaQBKBpwLA2q+cmVlVVxfO8l5eXrQvSAHZXySqVSqPR+Pv727ogDWN39VxZWSmKoqen52O81jq5jxAyGo2W75/s7OypU6du3LDx2PFjH0x/XyaX27p+rCAukHgujVp0gr+hQfGOcEA4UaMDz6/TjbpIjWxPJ4VSrg7w8Tp96Mws6acfmrasReU3oVekbMa3ihFjrVJmUa9DJqNp/U9iUSEREa14a7qsYxZXmC9UVQlqNa/Rinm3zfl3DMu+E4/fQABQ0YDMfJ6OSSSj40k/f4JlCQlLyOSEgwOgn5ATwg/+MMWaiCiKuJKbQWPq2Tq5L5VKx4wZ4+DgAADw9vaeNm1aTk5O9+7dO3ToYOvKsQ4JBZ7OksQF8Qa9KJURIb6kwYy6xPGLj3HZvximJVPZiXRyOOX0GGd6AXB87Y3ajEx9rco9JJhNSLJWmQmZ3GH8a6Yu2aKZI2USSVIqIEnG1a3+CWJVpaCqFTUa0WQSVCrh1k0h55rxz9XCW5cRAGQoINs/TUbEkGFRpIcnKZUQCgXp6kq6edSPC0IQd+NimP2xTu6zLJuSkmL5N0mScXFxcXFxtt41K1NKQJvIB6sLerVl4kKop69y3x/httw0PhtLdUiiO8c2uEqhoxNMS+fVatbPyjO4Ec4u0vR2//FRN3fCzf3+DYRQ+0xRrxfNJsQLQmUln3NNuHia27vZ+P4nCAAiBBDx2WRYFOEfRLi6UgoF6+FBV1YBUQAEvvIAw+yJPY2sb2lIAgR6EMOy2E5x9PoT3NQj5pTr/OAk+ulMOsqngVEoCFBo5MXBjQMhdHAkHRzvlzskFCWngCHPIUFEoiiUlnCXz/EXzpkPbzPPy0UAQBkgkuK9Hd2q9uwkXF1pLy86MJAMCaOjYm25FxiGPQKc+41FkSDIg5gygB2cwaw9Ylp9hltyjhuVTI/rxvi6EoTdLrwIGQYwjKX4pKMjExUNnhkBwHwAgFhSZL5xTbh9q/zUcaa6krt13VxXBWruoQIjMAMqK4lKyWDiE6nYRDo+CZIkgBASBCAI8JgnQTAMsyac+1YT5glnDJF0i6eOXOY3XeFWXuUnZ9DPtaedHQjmyeoIIXz8JD5+oFvPsjbtQ1JTxbJSvuAuX1LCV1XxKrVYXMAV5psP7RTP3xMBoGMAlTmcTkim4pKokDDIMJCiIMsSUimg8OykGGYDOPetrF0klRJKdYyjDl/hvjxs3naNH59JZ0RRXi7E4yzo3rIRHAcAILy8GS/v+hE/QkWZWFHO19aKOp2g1gp3csS7uYZ1K4TX30EAUJGAzHyWio4no2JJL19CIiGkUkKpJJ2dn5hRQxjWwuHctz6WAu2iqSh/skuisPKoechG0ysRfK8kqm007eX0xGX/35AeXqSHV31LXqypFtV1ol4vmjmxtobLuS5ev2LeuoF/dwYCgAwGZMYAIiyaDI0g3NxJmZRyUJIenqSnN55NCMOaCM79puKsgG0jqVAfsn8Kv2C/+eXfTc+F8VlJ1FNpDNWaRj8SLq5/rTWGEGqbjoxGkeOQKIrl5dz1K9z5U/yhbaZPPkcAEP6AiOtIBEcSPv6Eqyvl5Eh5eNABgWRQKLCr2f0wrCXDn6Wm5aqE3ZPplHBq10Xuy92mtbeEvRe4kd0kGeFPVpf/I4IQyhVQrrj/xefjyyYkomeeByJCoiAUF/OXL5ivXuBOHjT98BMCALoB6BsA3Xyhqwfp6UkHBNKhoXR4FBWXcH8SooYXAJ9bxjCc+83BRQGf78D0SGZ2nDOvPGhut1D/YhT1Vi8mzIdkKAAAEBAwtc6FWEgSkiQAAAJAhIXTYeHSwc9YHhErSvmcm+a8O0JhgbmsUqgs569e0uefEe+KAAAqDNBdh1PJaZaBQ5CiIQEBSUGaBv95vipoNjfNeFmETGYAIcR9U5g9wLnffFzlYEQnJi2cOnaZ23KR67rI8EoiOaoTQ5Lw9E3qaoGsk4aLCyI9nFpTN9B/Rnh4Mx7eTMculptiealQVMhXlHO1KkGjFfPv8gV55uWLtKduigDQcRSV8QwVl0TFxJOBwQTLEgwDpVJCLr9/uljgzTdvoN3bCYI0d+vJxMVbq5yI40wXz5lPHIUymSS7Dx0QAPBlzFjLhnO/uUV6E2FebEYMdfI6v/QUty/X4CqBx4qBBy35+KxxcgI5b7SMxLnxN4SnN+HpTQMgBQAAIFaWC9XVolrNGwyiWi3cuiHcvmn8fZXwxiUEABkOqPZDycg4MiKK9PQm5DKxpFgzdgBydgOiUDv/Xaf1x9m27RpZJAvD3l2aV54SGSdgVBmWRzv9sJqx3mQbGNYUcO7bAAlBjD8Z5EF0TaTmbDIdzRPCZAAA0I4G31zgX8oW4/xx8P8PhLsn4e4JALDMHSqqOiGdVjQaRY4Xq6v5m1f5Kxe53ZsM711EAJBRMiD3QsFxgCQBAMjkof5kGvPCq6CxqxxDZDSY1y9HHtGQZgAIFGrLdTu349zHWjic+zYjY2GQFxkbTO67wyv/dZbSnwY3SwSc+w1FODkDJ+d/nStHKDUVmZ9HvIAQEspKhCsX6z5+Bzor7j/OSvi7ueahzzZ+uxAAGB8Alc73b5KMaDDaujIw7H/AuW9jGZH069tMDjQgIeBF4EDDr7ebkIh6pzCKR50GH3sIhBIplFg6hADl6gpi442H9pr2bYYufgABVH1P0m+Y87XFjV3kAEJRo1ZNed10YDt09AQAAQjNaxdVlxU5vDWVDo+0dT1g2D/DuW9jbYKJhf3YfRfMKrPoq6SSQ8jcImHSJlP8YfO7PdnUMMpFgccdWoHD/31UJ1VyN68AQEi69XJ8ayoAoPFjOgmlg/Ld95FUIdy4AmiGTG1HUJR5//aqiCjp1Mny196m3N0ha8erjWJPJJz7tjehJ9smyFRQpkuJ8QlyB5UalH2V23mBe2aNaVAQN74zE+pHuilx+jcKFRjs+unciiMHRAScu2VbcU4IOiTM+cNZ3LUrgKLYNukAQlP37objx4y/fm+Y841i6WJpt2zKy/vRVzHDsKaGc79FCPcUvGRmP3cAAHBXwgHtmORwqlcuv/YUl7HU8H4S1T+NDvMjH29dF+w+mQy1yRB53uoTARGOTmz7jvU32fRMJiZe0jXbuP1PzdiXjQO6S54fI0lrS4eE2boKMAwAnPsthIiAIP5bpge4Ed7OTEYU1fcSN2Mft+0GPySe6pRAp0dSrWqaByvjedAs6xxApYMkMZkJDJL2G6Sd94nmueHGscOlXbOl3bJJryZfXxrD/jscIS0XTQJPZ+LZjuyFKfK+CfR7Z4XJvxo+XmM4cxcvXmofCCdnNj7B5bulLof2o1sXNCNGV70+Qb95IzDhMT+YLeHcb+loEjgr4cxnJPlTZQOTqYO3+LbztFNXG28WC2LjRqNgzQMqlJJOXTz2X3Da9gcEqG7Y0PJemYb9u5BeZ+uiYa0Uzn27EeBGTB8q/Wa0bE4Wve8G1+Eb/YKtxtxiwcjZumTYo6AZaZ8BHkt+US5eRoTEqLr1qpkw2njhnFinsnXJsFYH9+/bEwhASjAZ7SdNj+EPXuK+O8b9dpEfm05nxlGh3uSTt67LE8jJWTF8tCSzk7FnH+OWTbUpbSQfTJE/9wLl60s4ONq6cFhrgXPf/khpkBVHxQWSXRP4P87xY7ebh1zhn2lDtYmmgz3wDzg7QAWFKHz9JentjH2fMsz/qPa3pZLx70kyO7LxCXjRMawZWD/3OY47cODAnj17FArF+PHjvby8bL2PTyZXJcyMoxNCqF5Jwtf7TM/8bhoXxndOoHqlMvhSLztA01RgkNzLS9K5u/6XJYYZbxnbtpP0GyzN6sIkpT74RHwSB7M66zcPb+fmLlq0aPjw4f7+/kOHDrX1Dj7JCAgc5bB7EvXHZPnPA9grteDtP00TftT/cths66JhjwSyEsrL2+GdGa5X8tjUtoav3q0ZPUQ9/3OhqOCvJ5GtcokerClZP/drVark5OSQkJC42Ljqqmpb7+CTDwJAU2BsV3b3FNnn/SQ0BC/8ZsyYrdt9kbueL7y4xNB2tn7KWqOZww3HloogqIAgp8+/dttxhR0yUv/LosqoQM2P35qvXdEs/MZ/0nM1LzxtOnoQiHj8LmYd1u/niQiPyMzMPHjw4P79+2fOnGnrHbQPEELY6LlilBL4QhemSzzT7yq35Tw3/FcjRQBPAjAEWHOKN+rQvDFSunX3/xMEIbbg9KRi4pxj4sxZXQzHjhlWL9O+OQkEe1FKN9PF89x7k53mLWbT0m1dxv+NIIjGH8zY/9SY0LB+7p87d+7VV1994YUXSkpKlixZYjKZWPavmUnUanVdXV2THhaWz3ZJSUlL/oQ/RK/Xm0ym4uJi1MgZIgGgCdAxHFCCoDXKyjQSy8W9vlJ4tYD/7bA21s/MULyc4WlCBAggAET0mO1Iu6tnCKFGoxFFURTFxtdz0xUThEeLji4CSbAGHUFJAIRQ4YhKbtVevCB4eaOWvZgXhFCn01nrYG429ngwq9VqhJAgCAghCKGzs7NMJnvEl1s59xFC+w/s79SpU9u2bQEAixYtup17OzYu9q/tUZREImnq3IcQSiQSO/oT8jwvCIJEIrHKR4WBoGsSyFPTy44DZwYAAAgINGbw6Xazn5zzkIoeUtHNCbo6Ex7O0MeFCHQnpDRECIkIIARE8ZHOJdpjPRuNRlEUrVXPTSggEHTsLOzchHTG+/37BEPwPEWSgJU0dvropgQh5DjOigdz87DHg9lgMCCELPUMISQbch7I+u39oMDAixcv9uvXLy8vb9euXWvWrHnwUZlM9uhfSo2pFBcXl6beihWRJAkhdHV1teJ7Dk4Tph7SpZCQJIBJADIJHJ4iv1YsHiwVC/NFgoVt5NBLBtxl0NsBurqQXq7Q150MdCcC3B51E3ZXz4IgCIJg3XpuImJwsCq1vWnDD9ArCogIuvkpY+OkPr62Ltf/RhAEQRB2UckPsseDWRTFx6tnK+c+hHD4iBGffvqpn5+fSqXasWOHs7OzrevHDjRFyyjAi9w8TPrTAbNKIwZ7EB8/K43yvt9FUFmHrpeKOcXC3TIhr1y8cUfQ3uLNIuARgAB4SEGYJxnmRcT6k1E+RJA7wdIQAAAh+NvPNLtp0N0vLkL20gglPL0dxo5X85zpzEkIAEQ8tJNll+2oku1aY+rZ+u19BweHuXPnzp49m6LwRWG2xFCgf1u6TxtaawJO0n97yN0RZjmSWVH3fxiq9OBepVBQKZZXo6oaobxWLNOJuy+Ls45xRh0CLOziSyZ7wxgfIt6fDHQnKBJQJJSwUET49F0ToqJiXL764czB/ckOysqn2upWraADg0k/f1uXC7N7TRXNOPRbCIp4OPT/zkkGkgLJpMD7XwO1elSuQtVqUVUnajRiQQ0qrEW3SoQN1/hCFQJS2M2TiPGE0Z6UqHF39RUJEklYKJdABxnEc0RbHS9VUClpii9WaIe/YMjurfDyBvjDhTUOPoCwhznLoLMMAp/7EV5nAHU6UatHBiNSa8TbFeLdKvFWFdp021yk8wandJ1dYYQLEeQCg12glxsplUKlArooCXcHiKcMajyIRACALLu3adwo3cevMaFhTEKSrQuF2Tec+9j/4CgFjtK/mvFtTchoBiYzQiKx//hN1i3segl/vVTceImvqUJAAds5wCAH4OtA+DlBVyfCxZlwdyK8nQlfFzyo+/GRbm7yYS+oj23Xfv+Vy4+/2Lo4mH3DuY81jJyFchYAAAEA4Z616RmUmaMEEQEEylXoYoFwrUS4XCR+eVsEtSJgQJgM+kiAGwu9HKCnG+nnQYR4ESFeZIAL/hZoCAgl7dqbXpmuf/1NQ7de0meG2bpAmB3DuY81CgSApS3/B8FeMNiLGARoy0M1OpRTIuSWosIKobhCKFWhq5Vc5UVwwwSACQEp7O1DJvoSiQFEvC8V4A5pChAEJAiATxL8I8hKFD17cyOPqyYMp9PbUYHBti4RZq9w7mON8d/a7C5y2C6cahcOAKABANU6UFgllFaL1SqxViWW1qISDTqdy/9wFql1RiCFPb2JOG8iyouM94V+rgRBQpqGLANkLD5PcB8VHql4doTq0Abt8p+cpn0IGDxpM/Y4cO5jzcRVDlzlf40aqtGhKjVSaUStDmk04t1K8V4tyikRV17ly2sRUMAeHkSUGwx1J8I9CW9ngmahTAqVUuiigEQr/hqQdu9h6P+ScesGfbsOsh69bV0czC7h3Mdsw0UOXeQQeNePGkJaA9IbkNmMatTirXJ0p1K8USH+msvXVovAAXZxgaHOMNCJCHSFbk6EQkE4KaG7A+Hl1IAvAQIC0d6/M1iJw7vTqwJ/0m/7k4mJo/BwfqzhcO5jLYKjFDpK/4rkNmZg4hDPI1EAZSrxWpF4s0y8Vir+dIkHKgRkMF0J/RTAWw79nKGzE+nhCr1cyQBXwsf5v+V6nYmA9n8pKRUQpFj6o3rseENyquKZ56FMbusSYXYG5z7WEkkZIGWg5fyBhwsRFwwQAggBCEBxjXi5UMwpEW6WimeKhRV3BCkUnCigJIGCAp5K6O9OhngT4b5khBfp53r/3ABCYOoqw/lbLAAgM844fbCEsedjXzZwqOnALt3McWxWVyY4xNbFweyMPR/7WKtBwL9OIQe4EwHuRL+U+4dulRbcKRfulgnlVWJ5tVimEm8WC/tz+Qs6AAwIyGFPPzLdn7hULF4v5J1YCAD4/riZB2DWMxJb71YjKsTZWfnh3JpBxzTTJjv9sJx0sbNJ0DDbwrmP2Tc3BXBTkOmh908XV2pQaa1YWYtq1WKdWiiqRkVqdOwWX1WH3CT3vzrCZPDri/ysZ2xd9Mahvb3kb32qHTNO3/sP5Qsv2ro4mD3BuY89UdyV0F1JgoD7N2u0qFaLDCY0cYXBaESWPh8CAtGArtwTAj1Jh/81eVGLBWVyaXYv0+sTdKNfkmZ1oYJwbw/2qPAVMtiTzEUBQ72IuEByVCZzWoXMAjAJoMCIRBG9/ovhpx3Gc3cFTrB1KR8X5esn69MPJAXXffsVMJttXRzMbuD2PtYqPN+RcZTCtacNBAE+6yh1cSC+2GF6e6+5+1U+O5bs346N8rHLNpCsR2/TsSHG1d8YuveU9n7K1sXB7INdHusY1lAyBgxpTy8cZvhmqLZHMt0mlFwzUbbvVVmgG7HkFN91nvaT341ldXY4xJMgHF6dBIxm7arl/K0bti4NZh9wex9rRRD4a4kwAoKucVR6BHXkGrf7rHn5Ke6Xc9wH3ZnuibSHE2Ena1sBAADp7efw3Xr14Gd0Hbs7BIZAlrV1ibCWDuc+1oog9PDKkHIG9Eqmk0PIXreF9SfNY7abnzrPj+/ExASRAe52k/3yQUNNk142Lv6ciYmWZnYChN2UHLMJfHxgGPB0JHqk0jOGSrc9wzIE6L3eOHO94dAlrrxOtHXRHpVi3EQAkH7Nr4JKZeuyYC0dzn0Muy/Ig+ieynz9gnRNf/ZcpTh6tXH+78a9l3itydYlewRMdKz8owXmhUsNO/4Eot18XWE2gXMfw/5CEsDbhRiayex5U/FCGj3nAj95teH9lYYjOS1+sCdJSpJTmFfHakaMMefctHVpsBYN5z6GPYwkgJsj/GiIJO8D5Yg0+kIB3+lr3dPf6i/fE/gWnP+UX4BizHiiS9u6sX1sXRasRWuS3FepVLm5ubm5uRqNxtY7iGGPL8gNTnlaMn+M7ItutEYlJn6lm/en8XqBYDC30BGfbFKK5JmR3Ml83arlti4L1nJZfzyPSqX6/vvvzWZzQWFBcFDwBx98YOt9xLDHR0KQHERGeEu7JguZJ80/n+U3XeJfbkelR9HRAWSLWwGGohQDBnGH9mnX/MpmZFKh4bYuENYSWT/3Dx06RJLktGnTNBrN8ePHbb2DGGYFchakhJKBnpLebYQNJ7mJ+7jsi/zzaXTbWCrUk6zSoBuFAkWCpBBKStu4qKS3r+KlV2q699R23uDw8quEg5OtKw9rcayc+wihy5cvX758eebMmVqtdtSoUbbeQQz7C4SNap+7KqBrJBUdQPa/y/+wnxu2xfziVT4liMwrFy6WIwqCjABywgCJp4ONfwVIumZLRg0yrvmJzcyStsu0bWGwFsj67X2CIIxG45Cnh+Tm5qalpXFmjqLx1WFYi4CssdiWUgo7xtIdY+lnT3Pf7DEfO8pJCMAQACGw4jLv424e18vWV8xC6LhgWaWTk37pItrXjwoItHF5sBYGWuWTUA8hNHPmzLDQsOEjhgMAevfuvWDBgvDwvzoZy8rKCgoKiKa8nhBCaDQaJRKJdXetSYmiKIoiTdN2VGZ7rGdBEAAAFEU1vswQAoYGGgM7clOQBwEsPyRMIkh0No3vmscQUBRB4+vlsSsZAuB04azy3Vdqx76mffo5JJGA5voz4YO5eTx4MBMEERQU5OLi8oivtXJLHEIYEhxSUFjAcVxdXd3pM6cfKoqXl5eXl1dT18jJkydTU1ObeitWVFdXV1dXFxAQ0Pi3ak52V8+VlZWCIFjxCNQZQdghXWW1KLF8khAwQamoSA0JIBxl1tnE41dyZERteanzzzNDX3yZio231i7/TyqVSqPR+Pvb2YLv9ngwi6Lo6en5GK+1fru7W/duhYWFCxcu/PTTTye+OtHVFa8A97+JomhHDQ37ZWmKWvENWQa80ZXRUaDEiAoMiJVBLQBP/az76nfD4SucSmfTv6nSQTZgEIjsoJo5DdWpmm2zVq9k7B81pp6t3/Pu7e09Y/qMgsKCjh07BgcH27huMKwpUQTolkSvdoQX8gQpDdtFkiIA+y7z3x0z/3mDHxRNZafRbcIp2kbXR7JRsdIRL2pHjtH13qAYPc7WtYW1FNbPfQihj6+Pj6+PrXcNw5oDQ4HUcCoumIIAMBQAAAR4kF0SqLXHuQ8Pm/fm8j2iqYGZbJy/LbKfpuU9ehnHjdZ+OYNtm0HHNF9vD9aS4XkaMMwKWOp+6AMAGApE+JAfDJFc/z9F21BqzQW+//e6qasMBZWi2OwdP4SHl8OIkQCJ6hXL8FqMmAXOfQxrKtE+xJejpIvHyl5Koo7m8IFf6D/bZKhRi0auWYvBduoqHf0Gt3a+bsumZhvVg7VkOPcxrGllRpJvDJLMGyad3YZcfIZ/aoH+96Om/HKxOad4U4waC1299Zt/5+7etnV9YLaHr6jCsCYnY2FGFBXuR/ZJERYdMA/fzj13gR/chkoKp8O9m6PtRXp6O3y3vi6zo6FjZ8rbB8rktq4SzJZwex/DmomrAiaGUTOflRx5gRVJ8MIW88w1hvVHzeXq5uh7kaSksh9M1X/6qvHCObwwSyuHcx/DmpW7A9Ehjl4yTrZqCHtDjcb9bnprif6P05y2ic+5QolUPnw04ROh+/YL0Wi0dTVgtoRzH8NswEEGB6Uzh6crvh/E6kxo0CpDny+0W89yan0Ttv2ZiCj5x99w67Zq5s+ydQVgtoRzH8NsRkaDER2ZBePlK/qzQTL41K+Gl382nLzxbxf6QmjNPhlpcorkw/f0M2Zz167Yeu8xm8HndTHMxgJc4fCubPsYuucNbuN5vt2Pxo/SqV7JtK8HodGCC/c8SUfB1xN6O1uhlUa4e8gGPm0+e1L91Wzp+DcghGxYOOHsbOs6wJoVzn0Msz0SgjBvws+N7RBHdz/NfX+a23WTbxdA3qlGV6s80QX9qETqxWzWz80K0c9GRZERMeYdG8zr18JAV8nYdx1emkA4ONq6DrDmg/t5MKylkNAg0IMY24Pd9qq0RxS165ZQXCt60MidAD+d4y/dss7lXlxurliUDx1cYEIiUHgbZv6f6dJ5fD1Xq4JzH8NaFikDgr3IwW1pqQSSEAAACAhkEORVIo01huFwhQWoOA8QFAAAkCTwcuOvXgY8b+v9xpoPzn0Ma4kcFES8O6HjAQJARIAlwK8X+GX7TCXVIte4C33pgEDo4QfMRgAQEAXIyHQLP9Us+V7UanD6txI49zGsJfJxI55Np0LdiFoecBTsG00+FUEsOGx+dpHht6Pm0lqRf9xhPnRcgmzEGEIhQ7cvQ0Jknx1L93heO/HN6uf66XZtE8rL8FVdTzx8XhfDWiKGBJ2SmAAv6siJvOTEIF8PKKFh+xh+2wXu+fXGcdfJ/il0aiTt7fQ4a7gr+vWng0N4vZ5kWSY0TDToTZ276X9aoO430DhpvKR3f2lqG8Ldw9Z1gDUVnPsY1kJJaRDtT2hLy9MiQy33dE6kE0Ko7vH8NwfMz683vhLDd0qguyZSMqaB6c9K2JQ29au/E8CV8vJm4hOMg/YbFs3RbPrROPxtaVZnWc8+AOIugScQzn0Ma9EE8a/kJSBwc4A9U+m0CHLLOX7uQfOGm8Z+F6ghHems6MZ9lkmKDgymh4+SZHXRr1+tn/o+t+VX/cFhDs+NYJLsadVZ7FHgL3MMszMEBG4OxJguzKG35dN6sLfKhewlhvFL9BfzhMau60LRdFCI45QZ7rduSJ97md++sTqjTc3LI7m8u0BsxmmjsSaGcx/D7JWHA3w5m/l+nOzb7sy9crHLj4aP1xtvFQt6U2PfmQqPcpzxifOiVdKZn3I516pCQus+msaXlSI8odsTAffzYJh9C/MiwvqwaZHUuZvcijP87zf4l1OpfmmMjxvBNu7zzbbvxKS2NXfMMhw+aPj5Y+P6+bIZSyQdsmhfP0DTtt5v7PHh3MewJ0FKKBntT7SNpvdc5CYd4A7nCIOSqYw4OtiTeJwRP/8CWQnbrgMdGS3pmq3/9SftyDHGYYMlTw2Wts+kAoJsvdPYY8L9PBj2hJAyMDGEnNCHvfS6TCqHw/80zVpnWHXQVK1t7BwMhIurJC3d6cPPHHdvh1qV9vkRtbM+1q74CZhwt49dwrmPYU8UhQQmBJM/vijd/aK0wgTGbjaN/0G3/qQVVnUhXN1k2b2cl613WLNCPHdA8/q4ijHDDft2Pvw8CAFszG8MrMk1Ve4XFhamp6ffysmx9Q5iWGskZWB2Ar3+DfmmkTJHCRy2zpQ9V3fwKm/i7rf9RQSMHBAafGUuJF1c5c+Nct95Rvn9z6i2WtW9d2XnJNPF8/WnfKEgAJMRT/TWkjVJ/75er9+wYcPp06dpfPIHw2xHSoO+KVSbMPKpa9zvp8yDfjWOiiRGd2K8XIir94TzhUKUO9EmgvRyIckGtgAJN3fFyLFsWoZh6FHj9j9rklPZiWMVk6cSEhadO0ueO6XP6MgkJVO+frauA+wfWD/3RVE8cODA3bt3Mzt0EPFEHxhma54OcGA7Ji6YHHRbWHmSG7fS6O8AjxQK7hQs5MGQUGLuCKmH0+P89KejYujwSElGe2Of/sZff6xJi6S6ZnNH91BeAXWffkGPGuL6wzIoV9i6ArCHWb+f586dOxfOX5g8eXJm+/YSidTWO2gfCIKAuEu06REEQRCt9JxWmBc5sAPz7Vj56GTmXqUYLoPODEiQgdV3hGv5jWifkSQTE+cwfJTbr5skY17hbufA8ESgdIbtE82/bOTOn7b1fj+xGnMwW7m9L4ri+++/Hx0VVVRUdOXKlX379o0cNfLBRCsvLy8sLGzSzx6EUBCECxcuIPvpYRQEQRTFqqoqWxekAeyxnnmeBwCUlJTYuiCPyrqVDAGgKURyDlLSA4kEgAAAEMkQhy+XuYAqgMSGd/f/VVDAsFIXVxf01yXDRGpE5fKfNEbOEBAEeB5xHBARAC3xaLHfg7m4uBgAQBBEYGCg8yOvlwmtu5+iKI4ZM+bu3bvV1dU3btwAAGjUaoVSWf8EhBBCqEnbthDCkydPZmRk2MufEEJYU1OjVquDgoLspczAPuu5vLxcEAQfHx87KrN1KxlCcLNU+GCl8UYlklFAQIBDAEEwtA05safERQEBeNwzshDyt29WhUfD1EhA0YA3AyQCJIraCjIsRTb4WengZ0lnl/uFePzNNAl7PJjLyspEUXzwYH70XLVye58giBUrVgAA9Hr9m2+++f777z8Y+paSNVuHhh31nNRXix2V+cHC27oIDS6qHZXZ6gWO8qZezmZX7DdX6JGbBCQGkjoj2nVJXHRON7cX2yORdlHChp7mtaDDopS//KzbvlWsLqfcvSU9ejMBAcaLF8yXLui/naUZN5EdkCV7YwaTmEqwDJTJbV2p/8CODozGhEZTXa8LIezfvz+Dx/NgLYm9tOaaWvckOtSHLK4W3R2JcB/CyIFed/itJ82f7DavPc1NzKLjgqnHW8NdMXIsl5CkvXvHIyGRDI0AALBdsvn8u9ydO6YbN7hTR+q6ZAN3IJk6m+3YhfbwoLx9ACuxdX20Ok2V+1KptG/fvrbeOwzD/lmwBxHscT/ZZTRoF0WF+ZI97/Fbz/Kjfjf39eVGZTJRwaR3w8f5oMAQ0dWT9POtv4cKDKECQyQZ7fkePfkJk437d5v/WGV45z16UDYz8Hk6NIwJCiJ9/W1dJa0Inp8HwzAAAHBXQvd4Oi6I6n1XWHbU3HWV8Z1oskcK3TaKcpQ2pCdBFIHwD+v0QpmcDo+kwyPZ6Bhh1IvczeumLb/pXxgLggE1YCIdl8CGh0sy2gOGbcC2sMeCcx/DsL+4KGFWAtU+hhpwzvz2Dm7tDePgSPKpDKZ7vNWygnB2IZxdaD8/acfOwrSPDBtWG9ct0X39vaFtJBHXVhIfL39qIBkabuuaeJK10rHMGIb9JwQELA2ezmBufyif3Z8tV6Psn/SDvtEfz+GteSEmQUKplPLxU06e4n4sx/3Sefnwl4BOrV/xfUVYRHlqoHb5EqGyAnHmFjXy58mA2/sYhv0zigAjOzG9kqgBF/jdF7nM7/RTM+jnMphwX0Iuseq4F0jQCcl0QrJ89EvcuTPGGzfM589q576jHvMyO3yg7MXX6JhYUiaDSgdbV8kTAuc+hmH/jbsD8XwWkxZJ9bzO/XKKW3dNPymN7pxARfpTMsbK2yIcnNgu2WyXbP7uba54rPn6Ne7wXlXX7kSCl2T0m0zbdpSXF+3rDyR4CFCj4NzHMOx/C/Migj3YxHDq5A3+hxPcb1f4YUlUpyQ6NoBsihHvVEgYFRImSUnjs3vyr79r2rnVuPJb/VtT6ecG0F16MRERTEQE6YMnfXtMOPcxDHskJAGi/clgLzIzhtp8lpu4zzzoOt8rkcpOZeqHhFpY65sAyuV0SBgdEsZGx4gvTjBfvmDcvF43/hVDrBvVeRAdFcsmxEvadQI0zrGGwfWFYVgDSGgQ4Ue+40s+lcZ8tcM4foe513m+bwo9ugujkEAAAEkCkrTyRglHJ8LRifLzl/Xqy78/2/DbGuPW3/XfLzEkB0PfMGlWlmzA01R4lK3rxm7g8TwYhjUYhCDKl1j8kuzUZHlqAPnTYbPjTN0Pu02VKvG935gBPztOXG4sqrT2NOwQApKi/AOVb/yf+55TrufPyF9+g/D21q//pSIiurxtgGbZj3xRIdLrgSjYuoZaNNzexzDs8bUNJeMDpL1y+QMXuZ8PmSfvNscQQEKSB6+Zd+bx56fKHWVNM+MNhExyGya5jbymynz5kvnuXfPJo7rPJmrHCpJXXmAGPstEx5IODoSjk61rqCXCuY9hWKNIadAhhooLoiipyXjcLKcBAMCRgTqNuO4I1zmelEsJFwWUNs1kXYSLm6RzN0nnbnznLtzocearl7m92+t69qE6xDEDhzPJbWhfXzowCOC1QB6Acx/DMCtwkoEof6KaR47M/Qa+lwTO2GvqcIUIcoSBztDLhVAqCVcnwt0J+jgTEmtnz/0hQAlJQq++3OSppu2bTUumGXIA9fwgKr2DJDaWiY4mfQNsXU8tAs59DMOso3ssXc4ZfARAE4ATwAUB7R0pu1kmXCkSf7ohXq3gAQ06KKGvHPg6QE9X0s0Z+rgRIV5UoDtkrXQqGCoUlEJB+QdIEpOFV98wnz5u/H2N4Y23TXFeRGoXJj5BmpLKduoCyFYdfa165zEMsyKlFBx5Tf7NNmNJtRDoSS3ozXaIJrsl3g8ZjRHdKROvFgl3StGdMuH8Na7ODMwiEBCQUSDMg4jwIiN8iChfMsqHULAQAQDh4w4JhfD+F8CgZ2SDnuE/zTNu2WQ8dtC4bIFxUS108pMMfE7WfwgdnwgQsqwD06rmgsC5j2GY1XSIIhN8zEXlmpjwh3tUlBKYFEQmBd1v2Bt5kFcpFFag4iqxqkYoqxZvF/AHroNjGgRMKNGLbOdLxHrDKG8y1p9kKEBSkKYAQ0G64b8MqMBgxWtvKV6ZbD5/2nTlsunSReO2TboZn9LdkiXDXpZ0zqY9PGBrGgKEcx/DMGvieaRg/3frWUKBaG8y2vv+Ta0JlKnEqjpRpUZqtVBYhfJr0c5LwoyDXJ0epLjDFE8i0oMI8yRCPQhWAlkWyiVQKYXso2cYSTJp7Zi0dvLKcvPNG6a7d7ljh3QfvaIrBJLXX3QKixG8vaCjE+HiausqbHI49zEMs7LHmEBTwYIwTyLM03JFEa0xApVO1OqRwYi0GvFWhXinUjyaJ3x4mterxUQ3It4NhroQwa7Qx5WQywmlHDorobsD8ShfA4S7p8TdU9K+I98pixvzsvnieW73n87f/Vzz51qqWz8mOZXx96dDI57gWYBw7mMY1uIoJUApIcC/Wt5tzMBgQiYOCRyo0YjXioWbpeKlMvTxJR4YQJgSxDnCAEfo50S4OxNODtDdhfBxIX1dIPNfOoVIkgoOpYJDJfEJaPDQ671+D7iXa/juQ2MpoIY+RSanSxMSmPh40j/I1pVhfTj3MQxr6WQMkDHQMvGPvycRG0LxAhJFABAoqREvF6FLBfzFYnHBWR7oEJTCVCnwkkIvBfB2I73dyQB3GOFHBrsT1D+dJoYKJVQotQnJDi+Ok02aYjq8z7RhhXHaDHOEAxHfkUlMlmS0k3Tt8SQNAXpy9gTDsFaCIgBF3I/wMB8yzAcMbns/ysrq0K1SIbdULCgTSiqF83lC9U2+xAQKjAgA2NGXSPUlYnyJeF8q2o9gaQAhJAhAk4AgAKBoytubenaE/NkRQn6eYecWw/nzxh1/GD74FAIgeWei7LmRdHwyJAhA2Xdy2nfpMQzDHuTlCL0cqU7/mqKttA4VVYvlNWJVjVhbJxbUiMVlwpFc4VydGQionQ+Z4kVEeROxPpSmTlFeCwgCsQyQMpAODFaMn6QQee7caePNm+ZLl0wnDhq+/J7u24Hp/5ykUxfSzZ10dAS0tZcgaBY49zEMe2J5O0JvRxKEkAAABEB5HapWi3VapNehshrhXjW6Wy2uOSMcrzZL6ODk07p4NxjmQYS5Qz83UioFUimhjGnvnNZe2btUuPeMMSfHfHS/4ePX9DpAPzeK7dGPiY6h3NwJdw9b72jDWD/3eZ4/depUbm4uSZKdOnUKDAy09T5iGIYBeP/XwP1TvbxIq3RIZ0AGExJ5sOtYPuHgd6Oc/+MGf/wgAgi0dYWRLjDQCQa5Eh6u7kpHb8eUJKeIzm6jXqNvnDTt/V3/9DOG7LZUZjadmMwEBTFRMfYyC5D1c//ChQuLFy8ePXp0zs2cSZMmbfp9E0Hi2Z4xDGtZKAK4KaGb8v55gtqyipQ2IQYjzQvIZAZ5FeKlQv56qbirAJ05zQFgjnGAYY6Ej6O3r9zLmQxT9h0a3OVy8M3fyX2zTOuAMboHmZDGxiewqWlkYHD9ViqKakw6nW+kf4sKQSvnPkKosLDwueee69KlS5vUNnPmzNHptEoHvBoyhmEtGgmRlAZS+l+jhjyIDrGUKAIAgMaAbpeL14qEa4XijVJh211RjyTOjNQFdlAw7bwz3uuk29+2aKv3hlncn446j1g6oQ3bMUvae8CJOd+F7F1PA3jDL95z5ntuQf623sv7rJz7EMLBgwdb/r1t+zYRiDK53Nb7aAcgbJo5yrF/ByHEVd3U7LaSHy4zAQFBAgCAswKmKci00PsdRBwCd8rQvQqxqEIsqxbLaiS7jCO/CxjjGXW1b8GhzPLrLrvPSJcsOCskhAaqkFQOIPQ4tzzvNU628iuZk9UawY2p5yY5r8tx3I4dO9atW/fHpj/If19yzWAw6PX6pthoPZIkEUIqlUoQ7GPCDQihRqMxGAy1tbWiaO0lipqMPdazVqsVBMGO6tkeK/mJP5ghBN5S6BMEiGCAAKjWooJKsaRGLK/1Kot4dlGt2rPycnLp7Tb39pK8gCAFABAdw2WnN2lqp5sJJHB84wtMEIRGo0EIWeoZQiiXy1mWfcSXWz/3OY77448/Dh48+MEHHyQnJ//9Ua1W26TNAYIgEEJardZeDjsIodFoNJvNWq0WPcYV7jZij/VsMplEUbSjerbHSjYajZaPub1UMmhcPVMQhLqCcDcIIQAQ6DmF1txFz3czLDVI9y4FUmcAAAQABUde3/gHm9AmODlCMHON/INaDmZLmRFCEEKWZW2Z+2fPnv3ggw/mzJnj7u6efy/fP8CfIP46peHg4ODQ9N39RUVFfn5+Tb0VK1KpVGq12t+/pXT/PSK7q+fKykqe5729vRv/Vs3G7ioZH8wW1zLaies/oTxoQNC8psQIA31WLmezyjSwj1dqioOrspHvX1FRIYqil5fXY7zWyrkviuK8efNu3rz50ksvubi65NzM0ajVCmVj9/CJhxCyo8aR/RJFEddzU8OVbBH5VNc7YE/px19QWp3y3Q+cIiJK12yI+HYOeXhrWcfe+X0GRXZrxzCPP8ynMaFh5dwnCGLjxo3WfU8MwzC7Q9FU5OAukYO71N8T1jX1+rNDNMsWB+5dJWyed6HNWLe3Jodkxjf/afAWNagUwzDsSRbTvU3qLz9WfL5a88w079snYcfEExM/rLyZZzKYmrMYeJ4GDMOw5kORMGFAl7r2yZU9e4pbdnp++0nVrg01b0916pzpGhFCUVZaaPi/wu19DMOw5ubo7hSWneX8zmTZ0WNcaDIxcUzthDcKNm66d/5GM2wd5z6GYZhtuAd4eWe291/6FfnHLqNKC58fij744Mrq38ruljbpdnE/D4ZhmC05+3k5+njqMtpcX/G749Rxruc3ajOfP9X76dghfRQOTTLRG27vYxiG2RhBQKWnS/qUl9xLVXlj5rA1JUEvDcmN63D+pz9MeoNo7WGxOPcxDMNaClcvx8xZU/gvfqyd+51zjI/3uEEXB71ceOCUtrbOihdF4H4eDMOwliU4JdIYFVzepZOuay/Hn35EgzLuvfKJsk8Pt8QYuaPC8hyCJAHRkuZlwzAMwxpDImMCU+M1IcH6vl3Lv19Nz3mf3/578cjRYlKbqOz26mr1vf0nkCiQHTLd/Nwb+uY49zEMw1oopbNC6Ryt+GyK+sWhBTMXuE2ZLGmTcfr6C86FeW7HTwBRUO/Zrn5xckj72Aa9Le7fxzAMa9Hkjkrv1IT0zT9xO49WuPqo129x3LdGhmpkUC0/+2fx5Hcb+oa4vY9hGGYfonpmgp6ZtyJ8kKsLIigAAJB7hp3Ygf6+asx/hdv7GIZh9qTGNYngDZZ/E6K5HMgbenoXt/cxDMPsideXH1d2yHKLugdISc01vWzLnoa+A859DMMwexKUmVZ+4UzZnuOC2ezdq4NHUkJD3wHnPoZhmJ3xTIrlXBwFUfQKCniMl+PcxzAMsz+0hCYfdwIHfF4XwzDMDiEAHnfqBpz7GIZhrQvOfQzDsNYF5z6GYVjrgnMfwzCsdWmS8Twmk8loNEIIlUolhI85UyiGYRjWFKzf3q+rq5s3b96rr7zSpXPn48eP23oHMQzDsH9j/fb+iRMn1HXqhQsX3szJSU9P5ziOovBVAhiGYS2Fldv7CKHTp0/Hx8c7ODqmpKRkZWXpdTpb7yOGYRj2F+u3xCmKcnF1sfyDlUhsslc0Tdtku4+NYRiGYWxdigazu3pmWZbneVuXomHsrpLxwdw8GIYRRfHxXmv93Oc4rqam5v6Nv11Otnz58vnz5zs5OTVddRAEodVqFQrFY1dKM4MQCoIgCALDMMiKayc3MXusZ57nEUI0TdtLPdtjJeODuRk8eDCLoiiVSqdMmdKtW7dHfbnV/zbLli1Tq9WTJ0/Oz8+PiIqsraqWyeW2riUMwzDsPuvnflFR0dSpUwcNHHTs+DE3V7fpM6bbeh8xDMOwv1g/9wVBuHHjRk5OjkQi6dChg6Ojo633EcMwDPuL9XMfwzAMa8nwPA0YhmGti53lvlar/fjjjyGEYeFh27dvf/ChsrIyJyenU6dOWW6ePHnyzTfeMJvNti7yfaWlpYMHD869devBOw8cOAAh1P3rEodvv/1244aNti4pAABwHPfOO+9ACHv27Hnp0qX6+3meX79+/YcffqhWqwEAgiC0b9/+8OHDti4vAABcuXwlOTkZQjjz45kcxz340LBhw5YuXWr597Wr19LapFnKb0NarXb69OlXLl8GABiNxiVLlkAIIYR37tx58GklJSUQwmvXrllu/v777xMnTrTVmBONRpOZmXnv3j0AwN27d7OysliW7devX33xLC5cuNCvX7+ioiIAAELok5mfrFixwiYFBgAcOnTo9ddfNxgM9fesW7fulVdeEQThwafNmjVr+PDhln+rVKpRo0bdyc21VZlXrlw5b948y79PnToFIZSxsu+++85oNNY/p7a29sUXX/zzzz8tHTZlZWWDBw0uLS19xE3YWe5v3ry5uLhYo9Fs/mPzl19+ef369fqHIIR1dXULFy4sKysDAAiCIJFKCQh5ni8tLb13715lZaUgCNXV1Xq93vKS0tJSk8nUDMU2Go2//fbbpk2bSJJ88H7LzU8++cTySaYoShAFy/MLCwvz8/NVKhUAoKyszPLdwHFcWVnZQ4dsU/j6669lMpnZbH7nnXeuXLlSX2MQQpZlZ86cafl+hRCKomg58urq6goKCgoLC/V6Pcdx5eXllvA1mUwVFRVN3Z2o1+vfefedmTNnqtXqa9evPTRBiIuLy4svvnjr1i0AAAKIpEjLtFEVFRX5+fklJSWCIBiNxvqPTW1traXmm0h+fv6sWbNmz55tuZT94sWLx44eKy0p2bVzZ1hY2IN1BSFMSkqaMGFCfeOA53nLWMni4uL8/PzKykrQLEfIxYsXw8PD/fz8CIIQBGHp0qUvvfiSXq8fN27c2rVr6+rq6p9JkuS2bdt27NhhNpshhCIQLbWt1+stR3VdXd2DR4i5aY4Qo9G4cePGV155xVKM+r34/PPPWZZ96MkSiWT16tVbt24FAIiiSDMMJAgAgEqlys/PLywstMw59uARUltba/VKtkxyM3LkSMtp0dzc3A8//PDatWuFxYVFhUU3btyofyaE0MnJacCAAZajGkJIUqSlDisrK+/du1daWsrzvE6nq66utsRLXV1dfZntLPdTUlLef/99hULh6uqqVCofPL5FURw2bJhKpbL8DoAQEhByPH/s2LFx48YtXbp0xIgRly5d2rx5s6V9Wl1dPW7cuKb44z1EFMXDhw9funQpNTX1oYNbEIQXXnihtLT04MGDljJbknT58uWvT3r9k08+mTtnrlqt/vTTT3fu3AkAyMnJGTdu3IONl6ZQW1t77969Ll26nDx5UqlUduvaTSaTWR5CCCGEnnvuuZW/rszLy4MQ0jRNUVR1VfVnsz/76quv3nnnnXXr1t25c+ezzz4rLCwEABw/fvybb75BTdxEJQiiXbt2NTU15eXlJEk+dIEIz/Off/75nM/naLVakiQJgiAI4ubNm2+//faXX3752muv7d+/v6qqauDAgZb0XLp0af0PR6sTBKG8vLxzVuf33ptu+UDu2bOna9euXt7enbt06dKlS90DXzkIIVdX1y6du/y68lfLblIUBSHctXPXhAkT5s6dO+XdKXl5eZ999tmOHTsAALdu3Xp5/Mv139PWghC6efPmxo0bpVIpQkgUxf79+w8ZMoQkSR8fH47jHvwJghAaNWrUxo0bz507BwCAAJIkaTQaV61a9d57733zzTdz5869ePHiF198UVBQAAA4fuLE/Pnzrf4jRqfTGfT66dOn1w8tqamp2b9vX0hwMEEQf3/yjBkzFi9enJ+fb6lhgiCqq6s///zzjz766LXXXlu1alVlZeVTTz1lOUKWLVvWFEdIXl6en5/f77//btnK5cuX/f39dTrdxUsXR44aGRsb+2AlOzg4DBkyZNWqVZZJMC1H9Y0bN1566aXly5ePHDHy9KnTly5d+vDDD3U6HULohx9+2Ldvn+Xldpb70dHR/v7+HMctXLgwNSU1NDQUAFB/xERHR7/33ntbt269fPmyQqEgKaqstPSXX36ZMmXKtGnTxo8fv2nTJgcHh71795rN5kOHDiUmJnp5eTV1me/du3fq5Km33nyre/fuLCuxFNhSZkEQwsPD33333c8//7y4uFgmk5EkWVxc/MP3P8z/av7cuXMRQJs3b372mWePHD2CEMrJycnOzpY08VXQCCGWZceMHVtbU7N06dITJ09wZs7yabe09Z5/7vkuXbt8/fXXlstGAACnz5wmKXL69Omff/75nt17CgoL4uPjL168CABYsmRJmzZtiH//oWN1NE2HhIRMmTJl3Evj1qxZ4+7ubqlnyxetRqMZPXq0i6vL3r17LRe5UBT18ccfZ2Zmzpo1a8qUKTNnzpRKJAqF4vLlyyUlJRcuXIiJiWmiopIkmZaW1rNXTz8/X0vxSJJ0dHIEADAMo1AoICTAA0c1Z+ZenfjqqpWrrl69StM0QRAmk2ncy+P+7//+b/bs2VlZWXPmzHn66aePHLl/hHTr2k0itfIRAiEcOnRoZmampc1B03Tbtm2lMum9e/fmz5+fnp7u5ORkOUIsJe/du/e77747e/ZstVotl8spirpy5crWrVs/+uijGTNmSKXSa9euhYaGXrp4EQCwePHitLQ00tpHiIuLy8hRoxITEy03RVHcvHlzSEjIyFGjLBEJHvgkGgyGfv36Pfvss6tXr9ZqtXKZjKKo3bt36/X6L7/88uuvv165cmVdXZ27u/vly5dLS0svXLjwYApbS3x8/LPPPuvt7W25qpym6fXr1x86dOjevXsffvihpSfDUmCCIBiGefPNN1Uq1R9//CGXy0mS1Ol0W7duHTli5NSpUz+e+fGPi38EAAiCUFVVZTQad+/eHR8fb9mQ/c2YZjAYPv/88zNnz6xZvaaqsmr1mtVlZWXubm7PPf+8yWQKCwsbPXr0+++/P+n1STRF6fV6Z2fnuLg4qVSanp6+Z88ePz8/rVarrlOvXLny9UmvN3VpEUJz5szx9fGprqm+cePGyVMnYzQx3333HUVRPXr0MJlMWq02Li6uT58+v/32m0qlSkxMrKur65TVKTg4GAAQFxd34sSJp59+es7cOadPn7527drAgQObYZ47vV6/8tdfO3ToEBAY+PPPPxcVFeXn5yOEOnXqZLkK/+mnn161atWff/4ZFBQkiqLRaOzTp4+7u7uLi0twSLDJaIqLi1u8ZHHnrM7Xr1/v0KFDUxdYpVLt3Llz06ZNkZGRCxcu3LBhg1arra6u5nn+jTfegBBKJZKXXnpp4sSJw4YNk0qlEMK8vLz333/fwcEhPDzc3cOD47iXX3756tWrPMcHhwS7uro2XWkt3Q71M0aIolj/G46maY1G/d709xiW8fP16969e62q1svLa9q0acuXL/f29pZIJBzHtW/fvk2bNizLRsdEjxk75ssvvpwzZ87p06evX7/+1FNP0ZT1pxwgSdJygWj9PXfu3Jk0aVKPHj2eeuqpkydPbtiwQRTF6OjojIwMURA6deq0devWb7/91jIZu1ar7dWrV2BgIEVRKSkpZWVlUVFRq1ev7ty5y6VLl77++uumq2SEEEEQubm533333axZs27dunX27Nn8/PxTp04dP36c47jJkyYJPA8A6N279zvvvHPgwAGNRgMhLC0t7dChg6urq6ura9u2bSsqKsaNG3fl8hWBF4KCglxcXJqikgEA9WenRFFs27bthAkTCIJQqVQH9h8AAJy/cN7R0bFfv36iKLq5uY0fPz4rK8vf31+pVBqNRq1Om9EuQyqVxsXFlZSUKJXK1NTUEydOhIWFxcTEhIeHW97ZznJfp9PNmjXr7t2727dtBwAwDNO7d2+j0SiRSKRSqSAIll+ga9eu7Z7dfe6cOQih+u4tCKHBYAgODk5KSvr6m6/v3L7TMbNjUxfY0gRbvHjxhx99BAD4888/i4uLR4wYASAIDAi8cuWKpatq0KBB48eP37Vr15YtWziOezAReJ6XyWTZ3bMnT56ckZHh7e3d1GUmCILneX9/fwCAq6srJGBqamr79u05MxcYGHDq9GmCIJRK5aeffJLRrl379u0tz7f0mEEISZLkOM7yXTv7s9ldu3a1tL6blMFgoCgqKirKxcUlMzNz2v9N++XXX1QqFUVR7u7ugigKghAREfHaa68NGjTIUs7y8nJLr/T9liZCWVlZAwcODAgIeOvNt+q7tpqBRCKx/K6vq6vLy8uTSqUvvPCCKIrOTs6shNXp9QCA9u3bnz59+p133pk6dSrP8yqVSq/XsyxrabfK5LKePXo22xECAMjNzX3xxRfHjRs3cuRIAEBoaOiwYcMEQXBzc9NqtTzPMzT9wQcfuLq6yuXyVatWAQBKS0vrf99wZnNCQsLmzZtnfza7e/fuHh4eTVpay8m/8+fPDx8+3DKLzMaNG0eMGOHv70+SpJ+/P0lRgiC4uLhMmDAhPT0dADDr0085jqs/rWL5NdOpU6c+ffoEBwdPnjxZ3vTTECCE3NzcLLNHeHl5OTg4REZGRkVHQQh9fX0FQeB5PjY29v/+7/86dOjw2muviaLImf/qczMYDARBpLdNn/H+DJqmR40a9VcHF7Iry5YuAwDs/peqqqr6h4qKit5++23LCaKKigoAwMyZM8vLyz/55JN58+YVFRUNGDBg6dKlCKHz588DACzdFM1Gp9NNmDChsLDwwTt37do1adIky78tpyJ/++232tra2NjYzZs3nz17tnfv3idOnEAI5dzKAQBs27ZNEIRmKO3KlSsBAMVFxbNnz/7uu+8MBoPlfkEQ1q1bZxlFgBD6ZOZMAMDx48dPnDhBkuTVq1f37t3bqVOnnJwchNBPS34CAFy9erUZCqzRaBITE1esWHHr1q3Bgwf/+uuvDz7at2/f6qoqhFBlZeWUd6cAAIxG4/z588eOGXsr59aCBQt69erF87zBYJgxY0bHjh0f+jM1kfnz51++dAkhdPfu3W7dup04fmLel/OGDBny4HNKSkrqP6Q3btxISEgYN26cIAidO3eeP39+Tk7OhAkTFi1ahBDKzc0FAGzdsrXpjhCO4/r27Xvv3j2j0fjO228DAM6ePfvn5j9Pnjhh/NcRghA6c+bM0p9/tjS0d+7YCQBYv359bm5uu/bt9uzeYxmLceDAAYTQzz//DAC4cuVK01Xy+fPnJ02apNfr6+/ZunXr+PHjH3ram2++aekoMxqNllIV5uefOHGiZ8+eZ86c+e2334KDg1UqldFonDFjRocOHQoKCpquzIcOHfr8888RQkVFRf3799+8efO5c+cCfAPOnz9f/5yampr33nuvvuoAAKNHjynIz1+1cuWYMWNKSkrmzJnz0UcfqdVqhNArr7zi7eVt0P/1NyI/+uijpv7WshaB51V1qpSUlNLS0tLSUrVa7e/v7+zsbHnU0kYODQ2VSCRyuTw1NdXbyys5JSUoKOju3bv79+/v2LFj//79pVKps7NzWFhY3759m/NaYo7jBEEIDAhQKpX1dxoMBgcHh+joaACAs7NzmzZtAgMDQ0JCMjMzDx06dPPmzf79+2dlZREEQdN0VFRUmzZtmuLX5d9FRkZGRkZu2brF399/QP8B9ZVs6dJxdna2nBdJTU319vWNj4tLTEzMyMjYtm1bRUXFhAkTEhISAAAuLi7h4eG9e/duhjXXGIbp3r378ePHz509l9Y2bcSIEQ+euxMEIS42lmFZmUzm4+MTExOTnJycnp5eXVN9+PBhgiDef/99R0dHkiTd3d1TUlJiYmKaoTNNp9P5+Pg4OjkpFIrAwMDde3YDCKa/N12hVNQ/h+O40NDQ1NRUAICrq2tMdLS3t3dsbGyvXr3OnDlz7ty5mJiYUSNHURRl+bnTJq0JjxBLvsTExFi+I7OysnJzcyurKimKCggMrD/tZDQaWYbxDwiAEIaFhXl6ekZHR8fHxyclJR0+dPjixYvTpk3r2rUrhNDF2SUsPKxPnz5Nd4SYTCaJRBIZGVl//kCn07m4uERFRT24UYPBEBgY6ObmRlGUq6trVGRUXHx8ZGSko6PjwYMHa2trp0+fHhwc3DxHiMFgkMvloaGhDg4OMTExR48cvX79+tvvvJ2RngH+VWTL5HeBgYGWEBsyZIhSoYhPSAiPiODM3NatW93c3IYMGeLp6QkAkMvlHTp2SEpKqt9Ea7le13JO0talaBgEEAS2XKVSEIQGnW1rCZUsCiJBNqAMLaHMj12SllP4R4cQwmuvNgwCCDSs0v7nJ7e15D6GYRhmYWeNBQzDMKyRcO5jGIa1Ljj3MQzDWhec+xiGYa0Lzn0Mw7DWBec+hmFY64JzH8MwrHXBuY9hGNa64NzHMAxrXXDuYxiGtS449zEMw1oXnPsYhmGtC859DMOw1gXnPoZhWOuCcx+ze3gucQxrEDtbXxfD6hmNxuvXrxcVFpk5s7+/f1JSEsuyDz2nuro6Pz8/Njb27w/9JzU1Nffu3XvElxw9etSyCCUAwMPD48EljTCsxcLtfcwumUymLVu2LFq0SBQFZ2fnYcOGbdu2rX49+nqlpaUrVqwwGo2P/s41NTWrV682GAyP8uRXX331yuUrWo02Jyfn9ddf37Jli60rBsP+N9zex+xSSWnp0qVLP/vss8TERAjhtm3bli1b1qNHj+rq6uXLl9+9ezchIWH06NEURUkkEpIk6+rqPv300+rq6qFDh/bo0aOmpmbRokUuLi6XLl165plnsrKyaJpetGjR5cuXBUGgKIphmIKCgs8//9xgMLRt23bEiBEmk+nr+V/TDB0ZGdm/f3+ZTAYA8Pb27tuvb0REBM/z7du379u37/Xr10mSXL169alTp2Qy2ZQpUwiCOHTo0ODBg+Vy+YEDB1QqVWpK6ryv5qnV6qFDhvbp28fWdYm1Ori9j9ml2urqzMzMiIgIy7qjUVFRc+bMMZvNSxYv9vHx+fjjjw8ePLh9+3YCEpYnpKen+/j4TJw48aclP505c0an033wwQeiKPbp0yc7O1ulUq1du3bDhg0jRozw8fHRaDRGozErKyszM/Ott946ePDgrZwcnU43a/asqqoqfz//+i4ghBBFUxBCmqZTU1M9PDzu3r27bdu2kpKS6dOn+/r6vj/jfZZlf/7554KCAgDAF198QZLku1Pe7dSp00svvfTGm29WVVbaui6xVgfnPmaXamprnZycGIapv4fjOIlU2n/AgJ49eyIRtW/fHgAACUjT9O3bt6urqzMzM52cnDp36bxl6xZLrL/++us9e/b8+OOPRUH8448/pk6d2r59+yFDhri7u/M8v2zZsm7dulEUFRAQYOnBb5eRsWDBgswOmf+2aPUDJ5URQgzDtGnT5rnnnpPL5OHh4bzAu7m5PfPMM6WlpXfu3CkoKOjatSvLshfOX3B2ct6y5U83d3db1yXW6uDcx+xSQEDAieMnKv/VWNbpdJs2bSopLr558+Ynn3yya/eu6urqB9OZ57mLFy4ePHhQEISI8AgAgEKhAABwHMfzPCQgwzDOzs4AAJIkJRIJAODEiRPTp08/cuRIZWUlSVEAALlCYfn1UI8giPqtVFZW1tXVyWSykpKSzz//fP2G9Xl5eTRNkySZmpp65syZVatWjRw5UqFQTJkyJSDA/8fFPw4ZMqSoqMjWdYm1Orh/H7NLzs7ODMvs3Llz8ODBFEWtXLny9OnTnh6eK1as+Pbbb6Ojoz/99FOT0SQKIkJIqVSqVHVdunQOj4jYu2evIAokSRLE/UYPQggh5Ovre+DAgeTk5NLSUo1GU1hY+N577xUVFTk4OBQVFWm12od+XliIolhRUaFUKlW1qrXr1nbu3NnV1fWzzz4bOnRo//79N2/efPjwYQCAv79/ZWXlvHnz7ty5YzAYjhw50rdv30GDB+fm5t64ccPPz8/W1Ym1Ljj3Mbvk5uY2efLkqVOnHjp0SCaTLVy48Pr1615eXnFxcQsXLpTL5Xv37h04cGBNbY1KpfLw8FizZk337OyhQ4devHjx66+/Jgji9u3bAACEkE6nM5vNkydP9vb2Likt2bN7T1RUlK+vr5+f37fffsvz/Lx58zw9Pd3c3PLy8h4qxp49ezQaTXBw8KWLl5JTkufOnatQKNq2bbt48eKzZ87cys3dvn27uk7t4+OTkpLSoUMHS8TrdLqXX365TVpadU11SnKKresSa3UgvuYFs1MIIYPBUFdXx3Gcm5ubZYCN0WisrKyUSCRyuRwAQNO02WyWy+U8z6vVaq1W6+jo6ODgIIqiwWBQKBSWN2FZliRJdZ1ao9FIpBLLyzUaTXV1tVKptDxK07TRaLT0DtXTaDT1nyCapqVSKQDAbDbX1NQghCwbUiqVAIAVK1ZIpdIhQ4YQBGE2m+vq6sxms1KpdHBwsHVFYq0Ozn0Ma1rV1dVTpky5cP7Czl07PTw8bF0cDMO5j2FNjOO4u3fvOjk5eXp62rosGAYAzn0Mw7DWBo/jxDAMa11w7mMYhrUuOPcxDMNaF5z7GIZhrQvOfQzDsNYF5z6GYVjrgnMfwzCsdcG5j2EY1rrg3McwDGtdcO5jGIa1Ljj3MQzDWhec+xiGYa0Lzn0Mw7DW5f8BQQ4IeDY+K/8AAAAldEVYdGRhdGU6Y3JlYXRlADIwMjEtMTEtMThUMDc6NDg6MDYrMDA6MDDgKe00AAAAJXRFWHRkYXRlOm1vZGlmeQAyMDIxLTExLTE4VDA3OjQ4OjA2KzAwOjAwkXRViAAAADJ0RVh0aWNjOmNvcHlyaWdodABDb3B5cmlnaHQgQXBwbGUgQ29tcHV0ZXIsIEluYy4sIDIwMTAdk7liAAAAGHRFWHRpY2M6ZGVzY3JpcHRpb24ASEQgNzA5LUGy21rxAAAAAElFTkSuQmCC;" vertex="1" parent="1">
          <mxGeometry x="470" y="66.88999999999999" width="189" height="116.22" as="geometry" />
        </mxCell>
        <mxCell id="ZuG04GfCBI8IsP-wyvSk-2131" value="&lt;font style=&quot;font-size: 24px;&quot;&gt;&lt;b&gt;plotter&lt;br&gt;&lt;/b&gt;&lt;/font&gt;" style="text;strokeColor=none;align=center;fillColor=none;html=1;verticalAlign=middle;whiteSpace=wrap;rounded=0;" vertex="1" parent="1">
          <mxGeometry x="209.25" y="30" width="171.5" height="30" as="geometry" />
        </mxCell>
        <mxCell id="ZuG04GfCBI8IsP-wyvSk-2144" value="&lt;font style=&quot;font-size: 24px;&quot;&gt;&lt;b&gt;Burndown Chart&lt;/b&gt;&lt;/font&gt;" style="text;strokeColor=none;align=center;fillColor=none;html=1;verticalAlign=middle;whiteSpace=wrap;rounded=0;" vertex="1" parent="1">
          <mxGeometry x="458.88" y="30" width="211.25" height="30" as="geometry" />
        </mxCell>
      </root>
    </mxGraphModel>
  </diagram>
</mxfile>
